<?xml version="1.0" encoding="utf-8"?>
<!-- Generator: Adobe Illustrator 24.2.3, SVG Export Plug-In . SVG Version: 6.00 Build 0)  -->
<svg version="1.1" id="Layer_1" xmlns="http://www.w3.org/2000/svg" xmlns:xlink="http://www.w3.org/1999/xlink" x="0px" y="0px"
	 viewBox="0 0 16 16" style="enable-background:new 0 0 16 16;" xml:space="preserve">
<style type="text/css">
	.st0{fill:#C7CAD5;}
</style>
<path class="st0" d="M1.76,12.65c3.5,0,7.01,0,10.51,0c0.4,0,0.64-0.17,0.72-0.51c0.04-0.18,0-0.35-0.12-0.48
	c-0.23-0.27-0.49-0.53-0.72-0.79c-0.28-0.31-0.58-0.6-0.83-0.95c-0.27-0.38-0.43-0.79-0.5-1.24c-0.03-0.18-0.03-0.36-0.03-0.54
	c0-0.88,0.01-1.77,0-2.65c-0.01-0.55-0.06-1.09-0.26-1.62c-0.18-0.48-0.45-0.9-0.78-1.28C9.57,2.4,9.36,2.25,9.19,2.07
	c0.1-0.05,0.17-0.01,0.23,0.06c0.51,0.22,0.98,0.49,1.38,0.89c0.81,0.8,1.21,1.78,1.22,2.92c0.01,0.98,0,1.96,0,2.94
	c0,0.77,0.29,1.44,0.8,2.01c0.41,0.45,0.82,0.9,1.23,1.35c0.19,0.2,0.25,0.43,0.14,0.69c-0.12,0.27-0.34,0.37-0.61,0.37
	c-0.81,0-1.61,0-2.42,0c-0.06,0-0.12,0-0.19,0.01c-0.14,0.08-0.29,0.04-0.44,0.04c-0.16,0-0.32,0.01-0.48,0
	c-1.23,0.01-2.45,0-3.68,0c-0.37,0-0.75,0-1.12,0c-0.08,0-0.16,0.01-0.22-0.05c-0.87,0-1.74,0-2.62-0.01
	c-0.33,0-0.55-0.15-0.64-0.44C1.75,12.78,1.75,12.72,1.76,12.65z"/>
<path class="st0" d="M0.78,6.6c0.01-0.97,0.18-1.9,0.56-2.79c0.1-0.23,0.29-0.3,0.47-0.19C1.96,3.7,2.01,3.86,1.93,4.04
	c-0.22,0.5-0.37,1.02-0.45,1.55c-0.17,1.2-0.06,2.37,0.41,3.5C1.91,9.13,1.93,9.16,1.94,9.2c0.07,0.18,0,0.35-0.16,0.42
	c-0.16,0.07-0.33,0-0.41-0.18C1.1,8.84,0.93,8.21,0.85,7.56C0.81,7.24,0.78,6.92,0.78,6.6z"/>
<path class="st0" d="M15.22,6.6c-0.01,0.97-0.18,1.91-0.57,2.81c-0.06,0.14-0.16,0.24-0.32,0.23c-0.13,0-0.23-0.08-0.29-0.21
	c-0.04-0.1-0.02-0.18,0.02-0.27c0.39-0.89,0.55-1.82,0.52-2.78c-0.02-0.78-0.18-1.54-0.48-2.26c-0.02-0.04-0.03-0.08-0.05-0.11
	c-0.07-0.19-0.01-0.36,0.17-0.43c0.16-0.07,0.33,0,0.41,0.18c0.27,0.6,0.44,1.23,0.52,1.88C15.19,5.97,15.22,6.29,15.22,6.6z"/>
<path class="st0" d="M2.1,6.6c0.01-0.76,0.14-1.49,0.44-2.18C2.61,4.27,2.7,4.18,2.87,4.19C3.01,4.2,3.1,4.28,3.15,4.42
	c0.03,0.1-0.01,0.18-0.04,0.27C2.65,5.8,2.61,6.93,2.94,8.08C2.99,8.24,3.06,8.4,3.12,8.56C3.2,8.75,3.13,8.92,2.97,8.99
	c-0.17,0.07-0.34,0-0.43-0.2C2.26,8.17,2.1,7.35,2.1,6.6z"/>
<path class="st0" d="M13.9,6.61c-0.01,0.76-0.14,1.49-0.44,2.18c-0.06,0.14-0.16,0.23-0.32,0.22c-0.14-0.01-0.24-0.09-0.28-0.23
	c-0.03-0.1,0.01-0.18,0.04-0.27c0.28-0.66,0.4-1.35,0.38-2.07c-0.02-0.59-0.13-1.17-0.36-1.71c-0.01-0.03-0.02-0.06-0.04-0.09
	c-0.08-0.2-0.01-0.37,0.17-0.44c0.17-0.07,0.33,0.01,0.41,0.2C13.76,5.11,13.89,5.85,13.9,6.61z"/>
<g>
	<path class="st0" d="M5.03,13.82c0.18,0,0.36-0.01,0.55-0.01c1.43,0,2.87,0,4.3,0c0.06,0,0.12,0,0.19,0.01
		c0.02,0.06-0.01,0.11-0.04,0.16C9.44,14.8,8.67,15.3,7.66,15.4c-0.62,0.06-1.21-0.06-1.76-0.35c-0.11-0.05-0.2-0.12-0.3-0.2
		c-0.24-0.25-0.39-0.56-0.52-0.88C5.06,13.92,5.05,13.87,5.03,13.82z"/>
	<path class="st0" d="M10.53,13.82c0.15,0,0.29,0,0.44,0c-0.28,0.9-0.87,1.54-1.72,1.92c-1.18,0.53-2.66,0.23-3.47-0.67
		c0.06-0.08,0.11-0.01,0.14,0.02c0.2,0.13,0.39,0.25,0.61,0.33c1.11,0.4,2.15,0.26,3.08-0.47c0.33-0.26,0.61-0.58,0.8-0.97
		C10.45,13.93,10.48,13.86,10.53,13.82z"/>
	<path class="st0" d="M10.53,13.82c-0.2,0.52-0.56,0.92-0.99,1.25c-0.48,0.36-1.02,0.56-1.62,0.6c-0.75,0.05-1.42-0.13-2.03-0.56
		c-0.03-0.02-0.05-0.07-0.1-0.04c-0.08-0.06-0.14-0.13-0.18-0.22c0.22,0.08,0.41,0.22,0.63,0.3c1.07,0.39,2.08,0.26,3.01-0.4
		c0.34-0.25,0.62-0.56,0.83-0.93C10.22,13.82,10.38,13.82,10.53,13.82z"/>
</g>
<path class="st0" d="M9.1,2.03c0.01-0.3-0.01-0.59-0.16-0.86C8.73,0.8,8.43,0.57,8,0.45c0.09-0.01,0.14-0.01,0.2-0.01
	c0.59,0.05,1.15,0.6,1.21,1.19c0.02,0.16,0.01,0.33,0.02,0.5C9.34,2.12,9.27,2.06,9.19,2.07C9.16,2.05,9.13,2.04,9.1,2.03z"/>
<path class="st0" d="M11.55,10.16c-1.23-1.4-0.54-3.4-0.75-5.09c-0.05-1.18-0.63-2.3-1.58-3.01C9.19,2.03,9.15,2,9.1,1.99
	c-0.57-0.16-1.17-0.22-1.75-0.1C7.09,1.95,6.81,1.97,6.59,2.13c-1.6,0.7-2.53,1.9-2.6,3.67c-0.18,1.71,0.48,3.74-0.85,5.12
	c-0.42,0.59-1.21,1.03-1.39,1.74c3.44,0.13,6.96,0,10.43,0.05c0.33,0.01,0.7-0.09,0.81-0.45C13.17,11.43,11.96,10.81,11.55,10.16z
	 M8.01,11.01c-0.99,0.01-1.01-1.44-0.02-1.45C8.99,9.54,9.01,11,8.01,11.01z M8.47,8.56C8.44,8.86,8.27,9.04,8,9.05
	c-0.27,0-0.45-0.19-0.47-0.49c-0.1-1.11-0.2-2.22-0.3-3.32C7.05,4.14,8.76,3.99,8.78,5.07C8.68,6.26,8.57,7.39,8.47,8.56z"/>
<path class="st0" d="M9.12,1.56C9.09,1.43,9.05,1.31,8.99,1.19C8.93,1.07,8.85,0.96,8.76,0.85c-0.08-0.1-0.19-0.18-0.3-0.25
	C8.36,0.54,8.25,0.47,8.15,0.47c0,0,0.03-0.01,0.05-0.03C8.15,0.4,8.09,0.41,8.04,0.41C7.58,0.43,7.19,0.59,6.9,0.95
	C6.61,1.3,6.56,1.7,6.59,2.13C6.84,2.06,7.09,2,7.34,1.93C7.31,1.64,7.41,1.41,7.67,1.26C7.9,1.13,8.13,1.13,8.36,1.28
	c0.24,0.15,0.33,0.38,0.3,0.66c0,0,0,0,0,0C8.8,1.97,8.95,2,9.1,2.03c0.02-0.02,0.03-0.04,0.03-0.07C9.14,1.82,9.14,1.69,9.12,1.56z
	"/>
</svg>
