<?xml version="1.0" encoding="utf-8"?>
<!-- Generator: Adobe Illustrator 24.2.3, SVG Export Plug-In . SVG Version: 6.00 Build 0)  -->
<svg version="1.1" id="Layer_1" xmlns="http://www.w3.org/2000/svg" xmlns:xlink="http://www.w3.org/1999/xlink" x="0px" y="0px"
	 viewBox="0 0 32 32" style="enable-background:new 0 0 32 32;" xml:space="preserve">
<style type="text/css">
	.st0{fill:#CACACA;}
</style>
<path class="st0" d="M13.31,25.68c0.13-0.04,0.18-0.13,0.25-0.19c0.26-0.26,0.51-0.52,0.78-0.77c0.23-0.22,0.54-0.14,0.67,0.15
	c0.06,0.14,0.05,0.28-0.04,0.4c-0.04,0.06-0.1,0.11-0.15,0.17c-0.5,0.5-1.01,1.01-1.51,1.51c-0.05,0.05-0.11,0.11-0.17,0.15
	c-0.15,0.1-0.36,0.09-0.5-0.02c-0.04-0.03-0.07-0.06-0.1-0.1c-0.53-0.53-1.06-1.06-1.59-1.59c-0.1-0.1-0.19-0.2-0.18-0.36
	c0.01-0.16,0.06-0.29,0.21-0.37c0.14-0.07,0.29-0.07,0.43,0.02c0.09,0.06,0.17,0.15,0.25,0.23c0.26,0.26,0.51,0.52,0.77,0.78
	c0.08-0.06,0.05-0.13,0.05-0.19c0-1.12,0-2.23,0-3.35c0-0.05,0-0.09,0-0.14c0-0.06-0.04-0.08-0.09-0.08c-0.07,0-0.13,0-0.2,0
	c-1.83,0-3.66,0.01-5.48,0c-1.48,0-2.79-0.47-3.94-1.4c-1.17-0.95-1.93-2.18-2.2-3.65c-0.39-2.11,0.15-3.97,1.61-5.55
	C2.94,10.48,3.9,9.92,4.99,9.6c0.17-0.05,0.17-0.05,0.17-0.24C5.13,6.26,7.19,3.79,9.93,3.12c2.65-0.65,5.28,0.42,6.75,2.63
	c0.18,0.27,0.18,0.27,0.45,0.09c0.88-0.59,1.84-0.95,2.9-1.04c2.07-0.18,3.81,0.51,5.23,2.01c0.68,0.72,1.14,1.57,1.41,2.53
	c0.04,0.15,0.11,0.21,0.25,0.25c1.09,0.29,2.04,0.83,2.83,1.64c0.93,0.95,1.52,2.07,1.73,3.39c0.31,1.94-0.19,3.66-1.46,5.14
	c-0.95,1.11-2.17,1.78-3.62,2.05c-0.49,0.09-0.98,0.11-1.48,0.1c-1.7,0-3.39,0-5.09,0c-0.33,0-0.3,0.04-0.3-0.3
	c0-0.17-0.08-0.39,0.04-0.51c0.11-0.1,0.32-0.03,0.49-0.03c1.74,0,3.49,0,5.23,0c2.5,0,4.68-1.72,5.28-4.16
	c0.69-2.85-1.02-5.83-4.03-6.57c-0.52-0.13-0.51-0.13-0.65-0.63c-0.56-2.02-1.86-3.36-3.87-3.92c-1.75-0.48-3.37-0.1-4.81,1.02
	C17.14,6.88,17.07,6.94,17,7c-0.24,0.18-0.49,0.13-0.64-0.13c-0.1-0.16-0.17-0.33-0.27-0.49c-0.88-1.39-2.12-2.26-3.74-2.53
	C9.28,3.35,6.71,5.4,6.15,8C6.03,8.53,5.97,9.07,6.03,9.62C6.08,10.13,6,10.2,5.51,10.33c-2.12,0.55-3.53,1.87-4.07,4
	c-0.5,1.97,0.02,3.71,1.44,5.16c0.84,0.85,1.87,1.36,3.06,1.53c0.23,0.03,0.47,0.05,0.7,0.05c1.85,0,3.69,0,5.54,0
	c0.32,0,0.28,0.03,0.28-0.29c0-0.51,0-1.01,0-1.52c0-0.1,0-0.21,0.04-0.3c0.06-0.18,0.24-0.3,0.41-0.29
	c0.2,0.01,0.37,0.17,0.39,0.38c0.01,0.08,0.01,0.17,0.01,0.25c0,2,0,3.99,0,5.99C13.31,25.41,13.31,25.53,13.31,25.68z"/>
<path class="st0" d="M18.91,27.59c0.27-0.27,0.54-0.54,0.81-0.81c0.06-0.06,0.12-0.12,0.18-0.17c0.17-0.13,0.4-0.11,0.54,0.03
	c0.15,0.14,0.16,0.4,0.04,0.57c-0.02,0.03-0.05,0.06-0.08,0.08c-0.54,0.54-1.09,1.09-1.63,1.63c-0.07,0.07-0.13,0.13-0.23,0.15
	c-0.17,0.03-0.31,0-0.44-0.12c-0.55-0.56-1.11-1.11-1.67-1.67c-0.2-0.21-0.21-0.44-0.04-0.62c0.15-0.15,0.45-0.17,0.65,0.04
	c0.26,0.29,0.54,0.55,0.81,0.82c0.04,0.04,0.08,0.07,0.13,0.11c0.05-0.08,0.03-0.15,0.03-0.22c0-1.74,0-3.49,0-5.23
	c0-0.01,0-0.02,0-0.03c0-0.23,0.01-0.23-0.23-0.23c-1.18,0-2.36,0-3.54,0c-0.29,0-0.26,0-0.26-0.26c0-0.16,0-0.32,0-0.48
	c0-0.07,0.03-0.1,0.1-0.1c0.07,0,0.15,0,0.22,0c1.12,0,2.25,0,3.37,0c0.07,0,0.13,0,0.2,0c0.09,0.01,0.13-0.03,0.15-0.12
	c0.02-0.19,0.14-0.3,0.33-0.33c0.25-0.04,0.46,0.12,0.5,0.37c0.01,0.08,0,0.17,0,0.25c0,2.02,0,4.03,0,6.05c0,0.09,0,0.19,0,0.28
	C18.88,27.57,18.89,27.58,18.91,27.59z"/>
<path class="st0" d="M11.61,10.36c0.46-0.01,0.95,0.09,1.42,0.3c0.07,0.03,0.14,0.06,0.2,0.11c0.17,0.12,0.21,0.31,0.13,0.5
	c-0.08,0.18-0.26,0.28-0.46,0.24c-0.08-0.02-0.16-0.06-0.24-0.09c-1.07-0.45-2.32-0.2-3.13,0.64c-0.51,0.54-0.77,1.18-0.79,1.92
	c-0.04,1.24,0.83,2.45,2.1,2.78c0.65,0.17,1.28,0.11,1.89-0.16c0.1-0.05,0.2-0.09,0.32-0.06c0.18,0.05,0.3,0.14,0.33,0.33
	c0.03,0.19-0.03,0.32-0.19,0.43c-0.13,0.09-0.29,0.14-0.44,0.19c-1.35,0.43-2.58,0.19-3.64-0.74c-0.79-0.7-1.2-1.6-1.22-2.68
	c-0.03-1.67,1.09-3.17,2.74-3.61C10.93,10.39,11.24,10.36,11.61,10.36z"/>
<path class="st0" d="M22.49,17.78c0.09,0.05,0.18,0.02,0.27,0.02c0.31,0,0.62,0,0.93,0c0.2,0.01,0.36,0.13,0.41,0.29
	c0.05,0.18-0.01,0.36-0.16,0.47c-0.07,0.05-0.15,0.07-0.24,0.07c-0.68,0-1.37,0.01-2.05,0c-0.3,0-0.49-0.26-0.39-0.54
	c0.17-0.5,0.46-0.92,0.96-1.15c0.17-0.08,0.35-0.14,0.51-0.24c0.19-0.11,0.38-0.24,0.45-0.48c0.06-0.2,0-0.35-0.14-0.48
	c-0.31-0.28-0.83-0.18-1.02,0.19c-0.05,0.09-0.08,0.19-0.18,0.24c-0.14,0.08-0.36,0.08-0.48-0.01c-0.15-0.11-0.21-0.29-0.14-0.48
	c0.15-0.44,0.45-0.74,0.89-0.87c0.46-0.14,0.91-0.09,1.32,0.17c0.61,0.37,0.8,1.14,0.45,1.77c-0.17,0.31-0.45,0.53-0.75,0.7
	c-0.15,0.09-0.32,0.15-0.48,0.23C22.57,17.71,22.52,17.72,22.49,17.78z"/>
<path class="st0" d="M16.93,10.36c-1.9-0.05-3.67,1.52-3.68,3.64c-0.01,2.12,1.73,3.7,3.68,3.7c2.01-0.01,3.67-1.63,3.66-3.69
	C20.59,11.82,18.76,10.31,16.93,10.36z M19.66,14.77c0,0.02,0,0.04,0,0.06c0.08,0.38-0.14,0.79-0.55,1.01
	c-0.35,0.4-0.77,0.7-1.28,0.87c-0.72,0.24-1.43,0.21-2.1-0.12c-1.09-0.54-1.66-1.44-1.63-2.66c0.04-1.58,1.33-2.6,2.54-2.72
	c1.47-0.14,2.76,0.85,3.05,2.21c0.06,0.27,0.08,0.55,0.08,0.84C19.69,14.41,19.83,14.62,19.66,14.77z"/>
<path class="st0" d="M19.11,15.84c0.25-0.3,0.4-0.66,0.55-1.01c0.37,0.2,0.44,0.45,0.22,0.8c-0.1,0.15-0.25,0.19-0.41,0.21
	C19.35,15.84,19.23,15.84,19.11,15.84z"/>
<path class="st0" d="M19.66,14.77c0.07-0.17,0.02-0.35,0.1-0.52c0,0.05,0.01,0.09,0.01,0.14c0,0.08,0.04,0.11,0.11,0.16
	c0.34,0.24,0.49,0.73,0.15,1.11c-0.04-0.12,0.03-0.2,0.05-0.29c0.07-0.25-0.06-0.52-0.29-0.63C19.74,14.72,19.7,14.75,19.66,14.77z"
	/>
</svg>
