<?xml version="1.0" encoding="utf-8"?>
<!-- Generator: Adobe Illustrator 24.2.3, SVG Export Plug-In . SVG Version: 6.00 Build 0)  -->
<svg version="1.1" id="Layer_1" xmlns="http://www.w3.org/2000/svg" xmlns:xlink="http://www.w3.org/1999/xlink" x="0px" y="0px"
	 viewBox="0 0 32 32" style="enable-background:new 0 0 32 32;" xml:space="preserve">
<style type="text/css">
	.st0{fill:#28323E;}
	.st1{fill:#29323E;}
</style>
<path class="st0" d="M29.34,17.38c-1.46-2.25-3.45-3.93-5.77-5.23c-0.08-0.04-0.19-0.06-0.23-0.17c0.84-0.14,1.66-0.31,2.47-0.55
	c0.75-0.23,1.48-0.49,2.11-0.97c0.43-0.32,0.66-0.73,0.64-1.29c-0.02-0.77-0.02-1.54,0-2.31c0.02-0.56-0.22-0.96-0.65-1.28
	c-0.49-0.38-1.05-0.62-1.62-0.81c-2.07-0.69-4.23-0.93-6.39-1.08c-2.18-0.15-4.37-0.12-6.55,0.05c-1.67,0.14-3.33,0.36-4.95,0.81
	c-0.8,0.22-1.59,0.5-2.27,1c-0.46,0.34-0.73,0.76-0.7,1.37c0.03,0.63,0,1.25,0.01,1.88c0,0.22-0.05,0.32-0.27,0.4
	c-0.51,0.16-1,0.39-1.44,0.71c-0.45,0.33-0.73,0.75-0.69,1.34c0.03,0.45,0,0.9,0.01,1.34c0,0.13-0.04,0.21-0.17,0.26
	C2.57,13,2.26,13.18,1.98,13.42c-0.36,0.31-0.55,0.69-0.53,1.18c0.02,0.73,0.04,1.47-0.01,2.2c-0.04,0.72,0.29,1.19,0.85,1.56
	c0.49,0.32,1.03,0.53,1.63,0.74c-0.22,0.07-0.38,0.13-0.55,0.19c-0.62,0.22-1.22,0.47-1.72,0.92c-0.32,0.29-0.5,0.64-0.49,1.09
	c0.01,0.78,0.03,1.56,0,2.34c-0.02,0.6,0.24,1.03,0.7,1.37c0.5,0.36,1.05,0.6,1.63,0.8c1.81,0.6,3.68,0.85,5.56,1
	c2.86,0.23,5.71,0.2,8.56-0.12c0.12-0.01,0.22,0.01,0.33,0.07c0.48,0.26,0.98,0.49,1.48,0.69c1.89,0.75,3.83,1.19,5.88,0.89
	c1.47-0.22,2.71-0.84,3.55-2.12c0.37-0.56,0.74-1.12,1.13-1.67c0.59-0.84,0.87-1.78,0.85-2.8C30.8,20.12,30.2,18.7,29.34,17.38z
	 M6.37,6.29C6.69,5.96,7.1,5.78,7.52,5.61c1.18-0.47,2.42-0.71,3.67-0.9c2.03-0.31,4.08-0.41,6.13-0.4c2.57,0.03,5.14,0.2,7.65,0.82
	c0.73,0.18,1.45,0.4,2.12,0.76c0.24,0.13,0.46,0.27,0.64,0.49c0.15,0.19,0.17,0.38,0,0.58c-0.29,0.34-0.67,0.53-1.07,0.7
	c-1.25,0.53-2.56,0.79-3.89,0.98c-3.44,0.49-6.89,0.51-10.34,0.15c-1.67-0.17-3.32-0.44-4.89-1.06C7.1,7.56,6.69,7.37,6.37,7.05
	C6.09,6.77,6.09,6.57,6.37,6.29z M6.16,7.84c1.52,0.92,3.19,1.24,4.87,1.49c2.95,0.44,5.92,0.5,8.9,0.32
	c2.08-0.13,4.15-0.38,6.16-1.01c0.61-0.19,1.19-0.44,1.75-0.82c0,0.55,0.01,1.07-0.01,1.58c-0.01,0.23-0.2,0.37-0.37,0.5
	c-0.48,0.36-1.03,0.57-1.6,0.75c-1.15,0.37-2.34,0.58-3.54,0.75c-0.15,0.02-0.28,0.01-0.42-0.05c-1.63-0.66-3.31-1.09-5.09-1.02
	c-1.28,0.05-2.48,0.35-3.51,1.16c-0.06,0.05-0.12,0.07-0.2,0.06c-1.87-0.18-3.73-0.43-5.51-1.1c-0.4-0.15-0.79-0.34-1.13-0.6
	C6.26,9.69,6.15,9.48,6.16,9.19C6.18,8.75,6.16,8.3,6.16,7.84z M4,10.63c0.41-0.38,0.92-0.57,1.43-0.77
	C5.5,9.83,5.54,9.84,5.58,9.91c0.35,0.6,0.94,0.89,1.54,1.15c1.21,0.51,2.5,0.76,3.79,0.96c0.55,0.09,1.1,0.15,1.67,0.23
	c-0.22,0.33-0.44,0.65-0.65,0.97c-0.05,0.07-0.1,0.09-0.18,0.08c-2.24-0.17-4.48-0.4-6.6-1.21c-0.41-0.16-0.81-0.34-1.14-0.64
	C3.7,11.15,3.69,10.92,4,10.63z M3.77,12.21c1.93,1.1,4.04,1.37,6.15,1.64c0.42,0.05,0.84,0.08,1.26,0.12
	c0.17,0.01,0.24,0.04,0.11,0.21c-0.36,0.48-0.62,1-0.75,1.59c-0.03,0.11-0.08,0.14-0.19,0.13c-1.85-0.21-3.7-0.46-5.44-1.18
	c-0.1-0.04-0.19-0.1-0.29-0.14c-0.61-0.28-0.98-0.69-0.86-1.42C3.81,12.85,3.77,12.54,3.77,12.21z M2.7,13.78
	c0.1-0.07,0.2-0.15,0.35-0.18c-0.03,0.72,0.43,1.13,0.97,1.45c0.93,0.55,1.96,0.81,3,1.04c1.06,0.23,2.13,0.39,3.21,0.5
	c0.05,0,0.11-0.02,0.17,0.1c-0.49-0.04-0.96-0.06-1.42-0.11c-1.53-0.15-3.06-0.36-4.54-0.8c-0.6-0.18-1.19-0.39-1.73-0.73
	C2.01,14.62,2.01,14.23,2.7,13.78z M2.57,17.67c-0.27-0.2-0.42-0.43-0.4-0.79c0.03-0.42,0.01-0.84,0.01-1.3
	c1.43,0.87,2.98,1.17,4.55,1.44c1.16,0.2,2.33,0.31,3.5,0.38c0.16,0.01,0.21,0.06,0.23,0.22c0.06,0.55,0.19,1.09,0.39,1.61
	c0.05,0.14,0.07,0.21-0.12,0.2c-2.08-0.13-4.14-0.33-6.15-0.9C3.86,18.33,3.17,18.1,2.57,17.67z M11.19,20.33
	c0.08,0.01,0.13,0.02,0.17,0.1c0.36,0.7,0.81,1.34,1.32,2.02c-2.22-0.17-4.36-0.41-6.42-1.13c-0.4-0.14-0.77-0.32-1.13-0.54
	c-0.37-0.23-0.5-0.54-0.47-0.97c0.03-0.5,0.01-0.49,0.49-0.38c1.13,0.26,2.27,0.41,3.42,0.56C9.44,20.09,10.31,20.25,11.19,20.33z
	 M2.46,20.48c0.29-0.18,0.6-0.32,0.92-0.44c0.17-0.07,0.35-0.12,0.55-0.19c-0.05,1.24,0.85,1.63,1.73,2.01
	c1.34,0.58,2.78,0.82,4.21,1.03c1.06,0.15,2.14,0.24,3.21,0.3c0.22,0.01,0.37,0.09,0.49,0.32c-1.28,0.02-2.52-0.01-3.76-0.09
	c-1.81-0.12-3.6-0.33-5.36-0.81c-0.69-0.19-1.38-0.4-1.99-0.79C1.7,21.34,1.7,20.96,2.46,20.48z M9.96,26.13
	c-1.88-0.12-3.75-0.34-5.57-0.83c-0.71-0.19-1.4-0.43-2.03-0.84C2.04,24.26,1.85,24,1.88,23.58c0.03-0.41,0.01-0.82,0.01-1.27
	c0.56,0.36,1.12,0.61,1.7,0.8c1.74,0.56,3.54,0.8,5.35,0.96c1.73,0.15,3.47,0.19,5.21,0.14c0.09,0,0.17-0.02,0.25,0.06
	c0.71,0.64,1.47,1.22,2.34,1.78C14.43,26.24,12.2,26.27,9.96,26.13z M26.77,27.12c-1.15,0.57-2.38,0.65-3.62,0.52
	c-2.98-0.33-5.53-1.64-7.81-3.53c-1.52-1.26-2.78-2.73-3.6-4.55c-0.49-1.08-0.75-2.2-0.55-3.39c0.08-0.47,0.24-0.91,0.54-1.34
	c0.02,0.47,0.05,0.9,0.14,1.32c0.37,1.75,1.23,3.26,2.39,4.6c2.39,2.76,5.33,4.63,8.92,5.45c1.43,0.32,2.87,0.38,4.31-0.02
	c0.11-0.03,0.22-0.07,0.33-0.11c0.1-0.03,0.2-0.07,0.34-0.11C27.77,26.49,27.31,26.85,26.77,27.12z M28.96,24.56
	c-0.82,0.75-1.84,1.04-2.93,1.12c-0.24,0.02-0.48,0-0.72,0c-1.65-0.01-3.21-0.42-4.7-1.09c-2.35-1.06-4.37-2.55-6-4.55
	c-0.97-1.19-1.74-2.5-2.04-4.03c-0.27-1.34-0.12-2.59,0.86-3.64c0.74-0.79,1.7-1.14,2.74-1.28c1.81-0.23,3.53,0.14,5.2,0.81
	c2.76,1.1,5.09,2.8,6.89,5.17c0.86,1.13,1.52,2.36,1.77,3.78C30.29,22.27,30.06,23.55,28.96,24.56z"/>
<path class="st1" d="M25.72,5.83c-0.27-0.19-0.56-0.32-0.87-0.42c-1.35-0.45-2.76-0.62-4.17-0.74c-2.64-0.23-5.28-0.21-7.92,0.05
	C11.59,4.84,10.42,5,9.29,5.36C8.9,5.48,8.51,5.63,8.19,5.9C7.74,6.28,7.74,6.81,8.2,7.19c0.19,0.16,0.42,0.28,0.65,0.37
	c0.64,0.26,1.31,0.42,1.99,0.54c2.16,0.38,4.34,0.48,6.85,0.48c0.54-0.02,1.4-0.05,2.26-0.1c1.54-0.1,3.07-0.27,4.56-0.69
	c0.43-0.12,0.85-0.27,1.22-0.54C26.3,6.84,26.29,6.23,25.72,5.83z M25.23,6.71c-0.6,0.36-1.28,0.5-1.96,0.63
	c-1.75,0.35-3.53,0.46-5.32,0.5c-0.42,0.01-0.84,0-1.26,0c-2.17-0.02-4.33-0.12-6.46-0.61C9.73,7.12,9.23,6.99,8.78,6.71
	c-0.24-0.14-0.24-0.2,0-0.34c0.6-0.36,1.28-0.5,1.96-0.63c2.75-0.52,5.54-0.57,8.33-0.46c1.58,0.06,3.15,0.21,4.69,0.56
	c0.52,0.12,1.03,0.25,1.48,0.53C25.48,6.52,25.47,6.56,25.23,6.71z"/>
<g>
	<path class="st0" d="M21.04,16.29c0.24,0.04,0.47,0.11,0.69,0.22c0.56,0.26,1.05,0.61,1.49,1.04c0.08,0.07,0.13,0.16,0.27,0.11
		c0.33-0.12,0.68-0.22,1.05-0.34c-0.51-0.57-1.08-1-1.69-1.38c-0.14-0.09-0.18-0.16-0.12-0.32c0.08-0.2,0.12-0.41,0.18-0.62
		c0.03-0.11,0.01-0.16-0.1-0.2c-0.33-0.13-0.66-0.27-0.99-0.42c-0.11-0.05-0.16-0.03-0.19,0.08c-0.05,0.18-0.12,0.36-0.15,0.54
		c-0.04,0.2-0.11,0.24-0.31,0.18c-0.45-0.15-0.92-0.22-1.4-0.16c-0.99,0.14-1.39,1.05-0.81,1.87c0.17,0.24,0.38,0.45,0.6,0.65
		c0.45,0.38,0.94,0.69,1.42,1.01c0.34,0.23,0.7,0.45,0.95,0.78c0.1,0.13,0.16,0.28,0.07,0.45c-0.09,0.17-0.25,0.2-0.41,0.19
		c-0.25-0.01-0.49-0.09-0.72-0.19c-0.71-0.31-1.31-0.77-1.82-1.35c-0.06-0.07-0.11-0.16-0.24-0.12c-0.35,0.11-0.71,0.22-1.09,0.34
		c0.51,0.67,1.11,1.18,1.8,1.59c0.39,0.24,0.39,0.24,0.26,0.66c-0.13,0.43-0.13,0.43,0.27,0.61c0.08,0.04,0.16,0.07,0.25,0.11
		c0.2,0.08,0.44,0.26,0.58,0.21c0.18-0.07,0.14-0.39,0.23-0.6c0-0.01,0.01-0.02,0.01-0.03c0.01-0.17,0.1-0.19,0.25-0.14
		c0.46,0.14,0.93,0.2,1.41,0.16c0.65-0.06,1.03-0.41,1.11-1.01c0.07-0.54-0.19-0.93-0.54-1.28c-0.5-0.5-1.09-0.87-1.67-1.26
		c-0.34-0.23-0.69-0.46-0.97-0.75c-0.12-0.12-0.23-0.27-0.14-0.46C20.67,16.27,20.86,16.27,21.04,16.29z"/>
	<path class="st0" d="M29.1,20.58c-0.12-1.11-0.58-2.1-1.2-3.02c-1.67-2.46-3.95-4.14-6.72-5.17c-1.43-0.53-2.9-0.8-4.43-0.54
		c-2.14,0.37-3.32,1.94-3.03,4.07c0.16,1.21,0.7,2.27,1.4,3.25c1.39,1.92,3.2,3.34,5.32,4.36c1.42,0.68,2.91,1.1,4.5,1.12
		c0.41,0,0.81-0.04,1.2-0.12C28.2,24.15,29.32,22.66,29.1,20.58z M26.34,23.76c-0.21,0.06-0.42,0.1-0.63,0.13
		c-0.28,0.04-0.57,0.05-0.76,0.06c-1.68-0.06-3.16-0.52-4.56-1.25c-2.05-1.07-3.79-2.5-5.03-4.49c-0.54-0.87-0.94-1.79-0.96-2.84
		c-0.01-1.37,0.7-2.33,2.03-2.71c1.03-0.3,2.08-0.25,3.11,0c3.47,0.87,6.22,2.76,8.09,5.85c0.45,0.74,0.74,1.55,0.78,2.43
		C28.46,22.38,27.72,23.38,26.34,23.76z"/>
</g>
</svg>
