<?xml version="1.0" encoding="utf-8"?>
<!-- Generator: Adobe Illustrator 24.2.3, SVG Export Plug-In . SVG Version: 6.00 Build 0)  -->
<svg version="1.1" id="Layer_1" xmlns="http://www.w3.org/2000/svg" xmlns:xlink="http://www.w3.org/1999/xlink" x="0px" y="0px"
	 viewBox="0 0 32 32" style="enable-background:new 0 0 32 32;" xml:space="preserve">
<path d="M15.35,23.51c0.47,0,0.86,0,1.3,0c0,1.03,0,2.04,0,3.11c0.29-0.01,0.53-0.01,0.76-0.04c5.27-0.7,9.22-5.15,9.28-10.43
	c0.06-5.34-3.72-9.83-8.97-10.69C12.12,4.56,6.74,8.2,5.58,13.69c-1.21,5.69,2.13,11.15,7.7,12.63c0.25,0.07,0.53,0.25,0.66,0.46
	c0.09,0.15,0.02,0.53-0.12,0.65c-0.17,0.15-0.51,0.23-0.73,0.18c-1.75-0.4-3.35-1.16-4.7-2.33C4.59,22,3.18,17.84,4.42,13
	c1.23-4.82,4.48-7.77,9.35-8.76c6.46-1.31,12.69,2.92,14,9.4c1.31,6.46-2.79,12.72-9.24,14.07c-0.78,0.16-1.6,0.22-2.4,0.28
	c-0.56,0.04-0.78-0.21-0.79-0.76C15.35,26,15.35,24.77,15.35,23.51z"/>
<path d="M19.61,14.09c-1.2,0-2.41,0-3.61,0c-1.2,0-2.41,0-3.61,0c-0.58,0-0.77,0.18-0.77,0.76c0,1.19,0,2.38,0,3.56
	c0.01,2.46,1.93,4.43,4.34,4.44c2.46,0.01,4.39-1.91,4.42-4.4c0.01-1.2,0-2.41,0-3.61C20.38,14.27,20.19,14.09,19.61,14.09z
	 M15.91,21.46c-0.02-0.01-0.05-0.01-0.07-0.02c0.17-1.03,0.35-2.07,0.53-3.18c-0.57,0.24-1.08,0.45-1.67,0.69
	c0.32-1.4,0.62-2.74,0.94-4.11c0.41,0.12,0.77,0.23,1.18,0.35c-0.29,0.82-0.58,1.61-0.89,2.46c0.45-0.12,0.82-0.23,1.29-0.36
	C16.77,18.73,16.34,20.09,15.91,21.46z"/>
<path d="M14.08,13.4c-0.46,0-0.85,0-1.29,0c0-1.1-0.02-2.18,0.01-3.25c0.01-0.34,0.28-0.54,0.63-0.54c0.37,0,0.64,0.2,0.64,0.58
	C14.1,11.25,14.08,12.31,14.08,13.4z"/>
<path d="M19.22,13.4c-0.45,0-0.84,0-1.31,0c0-0.18,0-0.36,0-0.53c0-0.84-0.01-1.68,0-2.51c0-0.47,0.27-0.76,0.67-0.76
	c0.38,0.01,0.63,0.28,0.64,0.74C19.23,11.34,19.22,12.35,19.22,13.4z"/>
</svg>
