<?xml version="1.0" encoding="utf-8"?>
<!-- Generator: Adobe Illustrator 24.2.3, SVG Export Plug-In . SVG Version: 6.00 Build 0)  -->
<svg version="1.1" id="Layer_1" xmlns="http://www.w3.org/2000/svg" xmlns:xlink="http://www.w3.org/1999/xlink" x="0px" y="0px"
	 viewBox="0 0 16 16" style="enable-background:new 0 0 16 16;" xml:space="preserve">
<style type="text/css">
	.st0{fill:#CACACA;}
</style>
<path class="st0" d="M11.9,3.26c0-0.34-0.22-0.56-0.56-0.56c-2.22,0-4.45,0-6.67,0c-0.33,0-0.58,0.24-0.58,0.58
	c0.01,1.57,0,3.15,0,4.72c0,1.59,0,3.17,0,4.76c0,0.33,0.22,0.55,0.55,0.55c2.23,0,4.47,0,6.7,0c0.33,0,0.55-0.22,0.55-0.55
	C11.9,9.59,11.9,6.42,11.9,3.26z M9.14,5.46c0-0.19,0.11-0.3,0.3-0.3c0.42,0,0.85,0,1.27,0c0.2,0,0.3,0.1,0.31,0.3
	c0,0.26,0,0.51,0,0.77c0,0.07-0.02,0.08-0.08,0.08c-0.29,0-0.57,0-0.86,0c0,0,0,0,0,0c-0.29,0-0.57,0-0.86,0
	c-0.06,0-0.09-0.01-0.08-0.08C9.15,5.97,9.14,5.72,9.14,5.46z M4.98,5.45c0-0.19,0.11-0.3,0.3-0.3c0.42,0,0.84,0,1.26,0
	c0.21,0,0.32,0.1,0.32,0.32c0,0.25,0,0.5,0,0.75c0,0.07-0.02,0.09-0.09,0.09c-0.29,0-0.57,0-0.86,0c-0.29,0-0.57,0-0.86,0
	C5,6.31,4.98,6.3,4.98,6.23C4.98,5.97,4.98,5.71,4.98,5.45z M6.86,10.54c0,0.19-0.11,0.3-0.3,0.3c-0.43,0-0.86,0-1.29,0
	c-0.18,0-0.29-0.11-0.29-0.29c0-0.51,0-1.02,0-1.53c0-0.51,0-1.03,0-1.54c0-0.08,0.03-0.09,0.1-0.08c0.06,0,0.11-0.02,0.11,0.08
	c-0.01,0.24,0,0.49,0,0.73c0,0.06,0.01,0.07,0.07,0.07c0.45,0,0.89,0,1.34,0c0.05,0,0.07-0.01,0.07-0.07c0-0.25,0-0.49,0-0.74
	c0-0.1,0.06-0.07,0.11-0.08c0.06,0,0.1-0.01,0.1,0.08C6.86,8.49,6.86,9.51,6.86,10.54z M7.33,6.91c0,0.21-0.06,0.27-0.28,0.27
	c-0.38,0-0.76,0-1.14,0c-0.39,0-0.78,0-1.17,0c-0.18,0-0.24-0.07-0.24-0.24c0-0.07,0-0.15,0-0.22c0-0.12,0.07-0.19,0.19-0.2
	c0.02,0,0.05,0,0.07,0c0.77,0,1.53,0,2.3,0c0.21,0,0.27,0.06,0.27,0.27C7.33,6.83,7.33,6.87,7.33,6.91z M8.29,12.12
	c0,0.06,0,0.12-0.01,0.17C8.26,12.44,8.13,12.54,8,12.53c-0.14,0-0.26-0.11-0.28-0.24c-0.01-0.06-0.01-0.13-0.01-0.19
	c0-1.37,0-2.73,0-4.1c0-1.39,0-2.78,0-4.17c0-0.08,0-0.15,0.04-0.22c0.06-0.1,0.18-0.16,0.29-0.14C8.16,3.49,8.26,3.59,8.28,3.7
	c0.01,0.04,0.01,0.08,0.01,0.12C8.29,6.59,8.29,9.36,8.29,12.12z M10.71,10.84c-0.41,0-0.82,0-1.24,0c-0.23,0-0.33-0.1-0.33-0.33
	c0-0.5,0-1,0-1.5c0-0.51,0-1.02,0-1.54c0-0.1,0.05-0.09,0.11-0.09c0.07,0,0.1,0.01,0.1,0.09c-0.01,0.24,0,0.48,0,0.72
	c0,0.05,0,0.08,0.07,0.08c0.45,0,0.9,0,1.34,0c0.06,0,0.07-0.02,0.07-0.07c0-0.24,0-0.49,0-0.73c0-0.06,0.01-0.08,0.07-0.08
	c0.13,0.01,0.13,0,0.13,0.13c0,1,0,2.01,0,3.01C11.02,10.74,10.92,10.84,10.71,10.84z M11.5,6.96c0,0.15-0.07,0.22-0.22,0.22
	c-0.4,0-0.8,0-1.19,0c-0.39,0-0.79,0-1.18,0c-0.16,0-0.23-0.07-0.23-0.23c0-0.08,0-0.15,0-0.23c0-0.12,0.08-0.2,0.2-0.21
	c0.03,0,0.07,0,0.11,0c0.76,0,1.51,0,2.27,0c0.19,0,0.25,0.07,0.25,0.25C11.5,6.83,11.5,6.89,11.5,6.96z"/>
<path class="st0" d="M11.29,13.51c-1.1,0-2.19,0-3.29,0c-1.1,0-2.2,0-3.3,0c-0.07,0-0.09,0.02-0.09,0.09c0,0.53,0,1.05,0,1.58
	c0,0.36,0.2,0.57,0.56,0.57c1.89,0,3.78,0,5.67,0c0.32,0,0.54-0.21,0.54-0.53c0-0.54,0-1.07,0-1.61
	C11.39,13.52,11.37,13.51,11.29,13.51z M6.55,15.15c-0.31,0-0.55-0.25-0.56-0.56c0-0.3,0.24-0.55,0.54-0.55
	c0.31,0,0.56,0.25,0.56,0.56C7.09,14.9,6.84,15.15,6.55,15.15z M9.46,15.15c-0.3,0-0.55-0.26-0.54-0.56c0-0.3,0.25-0.55,0.56-0.55
	c0.3,0,0.55,0.26,0.54,0.56S9.76,15.16,9.46,15.15z"/>
<path class="st0" d="M11.39,0.8c0-0.32-0.22-0.54-0.54-0.54c-1.9,0-3.8,0-5.69,0c-0.31,0-0.54,0.22-0.54,0.53c0,0.54,0,1.08,0,1.62
	c0,0.07,0.02,0.08,0.08,0.08c1.1,0,2.2,0,3.3,0c1.1,0,2.19,0,3.29,0c0.08,0,0.1-0.02,0.1-0.1C11.38,1.87,11.39,1.33,11.39,0.8z
	 M6.53,1.96c-0.3,0-0.54-0.25-0.54-0.55c0-0.31,0.26-0.56,0.56-0.56c0.3,0.01,0.55,0.26,0.54,0.57C7.09,1.72,6.83,1.96,6.53,1.96z
	 M9.46,1.96c-0.3,0-0.55-0.25-0.55-0.55c0-0.31,0.26-0.56,0.56-0.56c0.3,0,0.54,0.25,0.54,0.56C10.01,1.71,9.77,1.96,9.46,1.96z"/>
</svg>
