<?xml version="1.0" encoding="utf-8"?>
<!-- Generator: Adobe Illustrator 24.2.3, SVG Export Plug-In . SVG Version: 6.00 Build 0)  -->
<svg version="1.1" id="Layer_1" xmlns="http://www.w3.org/2000/svg" xmlns:xlink="http://www.w3.org/1999/xlink" x="0px" y="0px"
	 viewBox="0 0 16 16" style="enable-background:new 0 0 16 16;" xml:space="preserve">
<style type="text/css">
	.st0{fill:#CACACA;}
</style>
<path class="st0" d="M14.83,4.94c-1.44,0.01-2.87,0-4.31,0c-1.44,0-2.87,0-4.31,0c-0.18,0-0.25,0.03-0.24,0.24
	c0.01,2.83,0.01,5.66,0,8.48c0,0.21,0.07,0.23,0.25,0.23c2.56-0.01,5.11,0,7.67,0c0.76,0,1.18-0.42,1.18-1.19
	c0-2.51,0-5.01,0.01-7.52C15.08,4.99,15.03,4.94,14.83,4.94z M9.89,5.8c1.33,0,2.66,0,4,0c0.12,0,0.2,0,0.2,0.17
	c0,0.17-0.09,0.15-0.2,0.15c-0.67,0-1.33,0-2,0s-1.33,0-2,0c-0.12,0-0.2,0-0.2-0.17C9.7,5.78,9.79,5.8,9.89,5.8z M8.16,13.35
	c-0.23-0.01-0.45-0.01-0.68,0c-0.16,0.01-0.19-0.05-0.19-0.2c0.01-0.81,0-1.61,0-2.42s0-1.61,0-2.42c0-0.16,0.04-0.22,0.21-0.21
	c0.23,0.01,0.45,0.01,0.68,0c0.13,0,0.16,0.04,0.16,0.17c0,1.63,0,3.27,0,4.9C8.34,13.31,8.3,13.35,8.16,13.35z M9.89,13.35
	c-0.23-0.02-0.45-0.01-0.68,0c-0.1,0-0.16-0.01-0.16-0.14c0-1.25,0-2.49,0-3.74c0-0.12,0.04-0.15,0.15-0.15
	c0.23,0.01,0.47,0.01,0.7,0c0.15-0.01,0.19,0.04,0.19,0.19c-0.01,0.61,0,1.22,0,1.82c0,0.6-0.01,1.2,0,1.8
	C10.09,13.29,10.06,13.36,9.89,13.35z M11.84,13.2c0,0.12-0.04,0.15-0.16,0.15c-0.23-0.01-0.47-0.01-0.7,0
	c-0.15,0.01-0.19-0.04-0.18-0.19c0.01-0.53,0-1.05,0-1.58c0-0.51,0-1.03,0-1.54c0-0.15,0.03-0.21,0.19-0.2
	c0.23,0.01,0.47,0.01,0.7,0c0.11,0,0.15,0.03,0.15,0.15C11.84,11.06,11.84,12.13,11.84,13.2z M13.44,13.35
	c-0.24-0.01-0.48-0.01-0.72,0c-0.12,0-0.17-0.04-0.16-0.16c0.01-0.39,0-0.77,0-1.16c0-0.37,0-0.75,0-1.12c0-0.14,0.02-0.2,0.18-0.19
	c0.24,0.01,0.48,0.01,0.72,0c0.1,0,0.14,0.03,0.14,0.14c0,0.78,0,1.56,0,2.35C13.6,13.31,13.55,13.35,13.44,13.35z M13.89,8.44
	c-1.33,0-2.66,0-4,0c-0.1,0-0.2,0.02-0.2-0.15c0-0.17,0.08-0.17,0.2-0.17c0.67,0,1.35,0,2.02,0c0.66,0,1.32,0,1.98,0
	c0.1,0,0.2-0.02,0.2,0.15C14.09,8.44,14.01,8.44,13.89,8.44z M13.89,7.28c-0.67,0-1.33,0-2,0c-0.67,0-1.33,0-2,0
	c-0.12,0-0.21-0.01-0.2-0.17c0-0.16,0.09-0.15,0.2-0.15c1.33,0,2.66,0,4,0c0.12,0,0.21,0,0.2,0.17C14.09,7.29,14,7.28,13.89,7.28z"
	/>
<path class="st0" d="M5.67,5.18c0-0.2-0.06-0.24-0.24-0.24c-1.42,0.01-2.84,0.01-4.26,0c-0.2,0-0.24,0.05-0.24,0.24
	c0.01,1.71,0,3.41,0,5.12c0,0.83,0,1.66,0,2.48c0,0.65,0.46,1.1,1.09,1.1c1.15,0,2.3,0,3.45,0.01c0.17,0,0.2-0.05,0.2-0.21
	c-0.01-1.42,0-2.84,0-4.26C5.67,8.01,5.66,6.6,5.67,5.18z M3.61,6.02c0.52,0.09,1.03,0.62,1.12,1.15C4.74,7.28,4.7,7.3,4.61,7.29
	c-0.17,0-0.34,0-0.51,0c-0.18,0-0.35,0-0.53,0c-0.1,0-0.13-0.03-0.13-0.13c0-0.34,0-0.69,0-1.03C3.45,6.01,3.52,6.01,3.61,6.02z
	 M2.96,6.03C3.08,6,3.14,6.02,3.14,6.16c-0.01,0.22,0,0.44,0,0.66c0,0.2,0.01,0.41,0,0.61C3.12,7.57,3.17,7.61,3.3,7.61
	c0.42-0.01,0.85,0,1.27,0c0.11,0,0.17,0.01,0.14,0.15C4.58,8.43,3.93,8.94,3.23,8.9C2.49,8.86,1.9,8.29,1.84,7.58
	C1.79,6.85,2.28,6.17,2.96,6.03z M2,9.72c0.86,0,1.73,0,2.59,0c0.13,0,0.16,0.04,0.16,0.16c0,0.13-0.05,0.16-0.17,0.16
	c-0.44-0.01-0.88,0-1.32,0c-0.42,0-0.85,0-1.27,0c-0.13,0-0.16-0.04-0.16-0.16C1.84,9.75,1.88,9.72,2,9.72z M4.59,13.01
	c-0.43-0.01-0.86,0-1.3,0c-0.43,0-0.86,0-1.3,0c-0.13,0-0.16-0.04-0.16-0.16c0-0.13,0.04-0.16,0.16-0.16c0.86,0,1.73,0,2.59,0
	c0.13,0,0.16,0.04,0.16,0.16C4.75,12.98,4.71,13.01,4.59,13.01z M4.59,12.02c-0.86,0-1.73,0-2.59,0c-0.12,0-0.16-0.03-0.17-0.16
	c0-0.15,0.06-0.17,0.18-0.16c0.43,0.01,0.86,0,1.29,0c0.42,0,0.85,0,1.27,0c0.12,0,0.17,0.03,0.17,0.16
	C4.75,11.98,4.72,12.02,4.59,12.02z M4.59,11.03c-0.43-0.01-0.86,0-1.3,0s-0.86,0-1.3,0c-0.13,0-0.16-0.04-0.16-0.16
	c0-0.13,0.04-0.16,0.16-0.16c0.86,0,1.73,0,2.59,0c0.13,0,0.16,0.04,0.16,0.16C4.75,11.01,4.71,11.04,4.59,11.03z"/>
<path class="st0" d="M15.07,3.2c-0.01-0.64-0.46-1.09-1.1-1.09c-3.98,0-7.96,0-11.94,0c-0.64,0-1.09,0.45-1.1,1.09
	c-0.01,0.37,0,0.75,0,1.12c0,0.34-0.05,0.31,0.3,0.31c2.26,0,4.52,0,6.77,0c2.28,0,4.56,0,6.84,0c0.17,0,0.25-0.03,0.24-0.23
	C15.06,4,15.08,3.6,15.07,3.2z M6.26,3.77c-0.62,0-1.23,0-1.85,0c-0.62,0-1.25,0-1.87,0c-0.31,0-0.49-0.15-0.49-0.41
	c0-0.26,0.17-0.41,0.49-0.41c1.24,0,2.48,0,3.71,0c0.31,0,0.49,0.16,0.48,0.42C6.74,3.62,6.56,3.77,6.26,3.77z M9.11,3.89
	C8.83,3.89,8.6,3.65,8.6,3.37c0-0.3,0.23-0.53,0.53-0.52c0.29,0,0.51,0.23,0.51,0.52C9.64,3.66,9.4,3.9,9.11,3.89z M11.27,3.89
	c-0.29,0-0.53-0.24-0.53-0.53c0-0.29,0.23-0.51,0.52-0.51c0.3,0,0.53,0.23,0.52,0.53C11.79,3.66,11.56,3.89,11.27,3.89z M13.41,3.89
	c-0.28,0-0.52-0.24-0.52-0.52c0-0.28,0.23-0.52,0.51-0.53c0.3-0.01,0.54,0.22,0.54,0.52C13.94,3.66,13.71,3.9,13.41,3.89z"/>
</svg>
