<?xml version="1.0" encoding="utf-8"?>
<!-- Generator: Adobe Illustrator 24.2.3, SVG Export Plug-In . SVG Version: 6.00 Build 0)  -->
<svg version="1.1" id="Layer_1" xmlns="http://www.w3.org/2000/svg" xmlns:xlink="http://www.w3.org/1999/xlink" x="0px" y="0px"
	 viewBox="0 0 16 16" style="enable-background:new 0 0 16 16;" xml:space="preserve">
<style type="text/css">
	.st0{fill:#C7CAD5;}
	.st1{fill:#FFFFFF;}
</style>
<path class="st0" d="M12.66,5.56c0,0.1,0,0.21,0,0.31c0.03,0.04,0.04,0.09,0.04,0.15c0,0.22,0,0.43,0,0.65c0,0.05,0,0.1-0.05,0.14
	c0,0.1,0,0.21,0,0.31c0.03,0.04,0.04,0.09,0.04,0.15c0,0.22,0,0.43,0,0.65c0,0.05,0,0.1-0.05,0.14c0,0.75,0,1.5,0,2.25
	c0.03,0.04,0.04,0.09,0.04,0.15c0,0.22,0,0.43,0,0.65c0,0.05,0,0.1-0.05,0.14c0,0.1,0,0.21,0,0.31c0.03,0.04,0.04,0.09,0.04,0.15
	c0,0.22,0,0.43,0,0.65c0,0.05,0,0.1-0.05,0.14c0,0.27,0,0.55,0,0.82c0,0.37-0.27,0.65-0.65,0.65c-0.57,0-1.13,0-1.7,0
	c-0.06,0.05-0.12,0.05-0.19,0.05c-0.41,0-0.82,0-1.23,0c-0.07,0-0.14,0.01-0.19-0.05c-1.34,0-2.67,0-4.01,0
	c-0.06,0.05-0.12,0.05-0.19,0.05c-0.41,0-0.82,0-1.23,0c-0.07,0-0.14,0.01-0.19-0.05c-0.56,0-1.13,0-1.69,0
	c-0.25,0-0.45-0.11-0.56-0.34c0.03-0.08,0.09-0.04,0.14-0.04c0.11,0.01,0.22,0.02,0.33,0.02c3.39,0,6.79,0,10.18,0
	c0.13,0,0.25,0,0.37-0.03c0.25-0.07,0.39-0.23,0.44-0.47c0.01-0.07,0.01-0.14,0.01-0.22c0-3.47,0-6.93,0-10.4
	c0-0.12-0.07-0.25,0.02-0.36c0.23,0.11,0.33,0.3,0.34,0.55c0.01,0.23,0,0.47,0.01,0.7c0.03,0.04,0.04,0.09,0.04,0.15
	c0,0.22,0,0.43,0,0.65c0,0.05,0,0.1-0.05,0.14c0,0.1,0,0.21,0,0.31c0.03,0.04,0.04,0.09,0.04,0.15c0,0.22,0,0.43,0,0.65
	C12.7,5.47,12.7,5.52,12.66,5.56z"/>
<path class="st0" d="M12.31,2.12c0.07,1.28,0.02,2.56,0.03,3.84c0.01,2.33,0,4.65,0,6.98c0,0.45-0.26,0.72-0.72,0.72
	c-3.5,0-7,0-10.49,0c-0.11,0-0.21-0.06-0.32-0.03c-0.04-0.06-0.06-0.12-0.06-0.19c0-0.06,0.02-0.1,0.09-0.1c0.04,0,0.08,0,0.12,0
	c3.43,0,6.86,0,10.29,0c0.5,0,0.78-0.29,0.78-0.77c-0.01-3.44,0-6.88,0-10.32c0-0.09-0.03-0.2,0.13-0.18
	C12.22,2.06,12.27,2.08,12.31,2.12z"/>
<path class="st0" d="M4.68,2.04c-0.53,0-1.07,0-1.6,0C3.07,1.73,3.06,1.43,3.09,1.12c0.04-0.44,0.39-0.75,0.82-0.74
	c0.42,0.01,0.76,0.35,0.77,0.79C4.69,1.46,4.68,1.75,4.68,2.04z"/>
<path class="st0" d="M13.41,3.44c0.02,0.2,0.14,0.19,0.3,0.19c0.43-0.01,0.86,0,1.29,0c0.18,0,0.25,0.06,0.25,0.2
	c0,0.15-0.08,0.23-0.25,0.23c-0.45,0-0.89,0.01-1.34,0c-0.13,0-0.23,0-0.25,0.16c-0.04-0.03-0.05-0.07-0.05-0.11
	c-0.01-0.19-0.01-0.38,0-0.57C13.36,3.51,13.37,3.47,13.41,3.44z"/>
<path class="st0" d="M13.41,5.94c0.02,0.2,0.14,0.19,0.3,0.19c0.43-0.01,0.86,0,1.29,0c0.18,0,0.25,0.06,0.25,0.2
	c0,0.15-0.08,0.23-0.25,0.23c-0.45,0-0.89,0.01-1.34,0c-0.13,0-0.23,0-0.25,0.16c-0.04-0.03-0.05-0.07-0.05-0.11
	c-0.01-0.19-0.01-0.38,0-0.57C13.36,6,13.37,5.96,13.41,5.94z"/>
<path class="st0" d="M13.41,7.19c0.02,0.2,0.14,0.19,0.3,0.19c0.43-0.01,0.86,0,1.29,0c0.18,0,0.25,0.06,0.25,0.2
	c0,0.15-0.08,0.23-0.25,0.23c-0.45,0-0.89,0.01-1.34,0c-0.13,0-0.23,0-0.25,0.16c-0.04-0.03-0.05-0.07-0.05-0.11
	c-0.01-0.19-0.01-0.38,0-0.57C13.36,7.25,13.37,7.21,13.41,7.19z"/>
<path class="st0" d="M13.41,10.37c0.02,0.2,0.14,0.19,0.3,0.19c0.43-0.01,0.86,0,1.29,0c0.18,0,0.25,0.06,0.25,0.2
	c0,0.15-0.08,0.23-0.25,0.23c-0.45,0-0.89,0.01-1.34,0c-0.13,0-0.23,0-0.25,0.16c-0.04-0.03-0.05-0.07-0.05-0.11
	c-0.01-0.19-0.01-0.38,0-0.57C13.36,10.44,13.37,10.4,13.41,10.37z"/>
<path class="st0" d="M13.41,11.62c0.02,0.2,0.14,0.19,0.3,0.19c0.43-0.01,0.86,0,1.29,0c0.18,0,0.25,0.06,0.25,0.2
	c0,0.15-0.08,0.23-0.25,0.23c-0.45,0-0.89,0.01-1.34,0c-0.13,0-0.23,0-0.25,0.16c-0.04-0.03-0.05-0.07-0.05-0.11
	c-0.01-0.19-0.01-0.38,0-0.57C13.36,11.69,13.37,11.65,13.41,11.62z"/>
<path class="st0" d="M13.41,4.69c0.02,0.2,0.14,0.19,0.3,0.19c0.43-0.01,0.86,0,1.29,0c0.18,0,0.25,0.06,0.25,0.2
	c0,0.15-0.08,0.23-0.25,0.23c-0.45,0-0.89,0.01-1.34,0c-0.13,0-0.23,0-0.25,0.16c-0.04-0.03-0.05-0.07-0.05-0.11
	c-0.01-0.19-0.01-0.38,0-0.57C13.36,4.76,13.37,4.72,13.41,4.69z"/>
<path class="st0" d="M13.41,3.44c0,0.26,0,0.52,0,0.78c-0.04,0.07-0.11,0.09-0.18,0.08c-0.19,0-0.38,0-0.57,0c0-0.31,0-0.63,0-0.94
	c0.19,0,0.38,0,0.57,0C13.3,3.37,13.37,3.37,13.41,3.44z"/>
<path class="st0" d="M13.41,4.69c0,0.26,0,0.52,0,0.78c-0.04,0.07-0.11,0.09-0.18,0.08c-0.19,0-0.38,0-0.57,0c0-0.31,0-0.63,0-0.94
	c0.19,0,0.38,0,0.57,0C13.3,4.62,13.37,4.62,13.41,4.69z"/>
<path class="st0" d="M13.41,5.94c0,0.26,0,0.52,0,0.78c-0.04,0.07-0.11,0.09-0.18,0.08c-0.19,0-0.38,0-0.57,0c0-0.31,0-0.63,0-0.94
	c0.19,0,0.38,0,0.57,0C13.3,5.87,13.37,5.87,13.41,5.94z"/>
<path class="st0" d="M13.41,7.19c0,0.26,0,0.52,0,0.78c-0.04,0.07-0.11,0.09-0.18,0.08c-0.19,0-0.38,0-0.57,0c0-0.31,0-0.63,0-0.94
	c0.19,0,0.38,0,0.57,0C13.3,7.12,13.37,7.11,13.41,7.19z"/>
<path class="st0" d="M13.41,10.37c0,0.26,0,0.52,0,0.78c-0.04,0.07-0.11,0.09-0.18,0.08c-0.19,0-0.38,0-0.57,0c0-0.31,0-0.63,0-0.94
	c0.19,0,0.38,0,0.57,0C13.3,10.3,13.37,10.3,13.41,10.37z"/>
<path class="st0" d="M13.41,11.62c0,0.26,0,0.52,0,0.78c-0.04,0.07-0.11,0.09-0.18,0.08c-0.19,0-0.38,0-0.57,0c0-0.31,0-0.63,0-0.94
	c0.19,0,0.38,0,0.57,0C13.3,11.55,13.37,11.55,13.41,11.62z"/>
<path class="st0" d="M4.68,2.04c1.34,0,2.68,0,4.02,0c0.05-0.06,0.12-0.05,0.19-0.05c0.41,0,0.82,0,1.23,0c0.07,0,0.14,0,0.19,0.05
	c0.56,0,1.12,0,1.69,0c0.06,0,0.11-0.02,0.16,0.02c-0.09,0.1-0.08,0.22-0.08,0.34c0,2.85,0,5.69,0,8.54c0,0.55,0,1.1,0,1.65
	c0,0.15-0.02,0.29-0.09,0.42c-0.13,0.23-0.33,0.34-0.58,0.36c-0.09,0.01-0.19,0.01-0.28,0.01c-3.34,0-6.68,0-10.02,0
	c-0.12,0-0.24,0-0.35,0.05c-0.05-0.09-0.02-0.18-0.02-0.28c0-3.44,0-6.88,0-10.32c0-0.13,0-0.25,0.04-0.37
	C0.86,2.2,1.1,2.04,1.41,2.04c0.56,0,1.11,0,1.67,0C3.13,1.98,3.2,1.99,3.27,1.99c0.41,0,0.82,0,1.23,0
	C4.56,1.99,4.63,1.98,4.68,2.04z M9.81,5.54c0-0.41-0.25-0.66-0.66-0.66c-1.63,0-3.27,0-4.9,0c-0.42,0-0.68,0.27-0.68,0.68
	c0,1.63,0,3.26,0,4.89c0,0.4,0.27,0.68,0.67,0.68c1.64,0,3.28,0,4.92,0c0.39,0,0.66-0.26,0.66-0.65c0-0.82,0-1.65,0-2.47
	S9.81,6.36,9.81,5.54z"/>
<path class="st1" d="M4.22,1.26c0,0.19-0.15,0.33-0.34,0.33c-0.19,0-0.35-0.16-0.35-0.34c0-0.18,0.17-0.34,0.34-0.34
	C4.06,0.91,4.22,1.07,4.22,1.26z"/>
<path class="st0" d="M10.31,2.04c-0.53,0-1.07,0-1.6,0C8.7,1.73,8.69,1.43,8.71,1.12C8.75,0.68,9.1,0.37,9.54,0.38
	c0.42,0.01,0.76,0.35,0.77,0.79C10.31,1.46,10.31,1.75,10.31,2.04z M9.84,1.28C9.85,1.09,9.7,0.92,9.51,0.92
	C9.34,0.91,9.16,1.08,9.16,1.26c0,0.18,0.15,0.33,0.34,0.34C9.69,1.6,9.84,1.46,9.84,1.28z"/>
<path class="st0" d="M4.69,13.97v0.81c-0.01,0.46-0.34,0.82-0.77,0.84c-0.45,0.02-0.8-0.29-0.83-0.76c-0.02-0.3-0.01-0.6-0.02-0.89
	H4.69z M3.88,14.4c-0.19,0-0.34,0.15-0.34,0.33c0,0.19,0.17,0.36,0.36,0.35c0.18-0.01,0.33-0.17,0.32-0.35
	C4.22,14.55,4.07,14.4,3.88,14.4z"/>
<path class="st0" d="M8.7,13.97c0.54,0,1.08,0,1.61,0c0,0.27,0,0.54,0,0.81c0,0.46-0.33,0.82-0.77,0.84
	c-0.45,0.02-0.8-0.3-0.83-0.77C8.69,14.56,8.7,14.26,8.7,13.97z M9.16,14.73c-0.01,0.19,0.17,0.36,0.36,0.36
	c0.18,0,0.33-0.17,0.33-0.35c0-0.19-0.15-0.33-0.34-0.33C9.32,14.4,9.16,14.54,9.16,14.73z"/>
<g>
	<path class="st0" d="M6.25,9.84c0.16-0.45,0.31-0.91,0.47-1.38c-0.33,0-0.65,0-0.97,0c-0.06,0-0.11,0-0.17,0
		C5.39,8.45,5.32,8.35,5.4,8.17C5.6,7.7,5.81,7.24,6.02,6.78C6.17,6.44,6.32,6.1,6.47,5.75c0.05-0.12,0.12-0.17,0.25-0.16
		c0.17,0.01,0.33,0,0.5,0.01c0.13,0.1,0.15,0.14,0.08,0.3c-0.23,0.51-0.47,1.02-0.7,1.53C6.58,7.46,6.56,7.5,6.55,7.53
		c-0.06,0.1-0.04,0.16,0.09,0.15c0.04,0,0.08,0.01,0.11,0.04l0,0c0.26,0.03,0.53,0,0.79,0.01c0.08,0,0.17-0.02,0.22,0.07
		C7.81,7.91,7.78,8,7.72,8.08C7.37,8.54,7.01,8.99,6.66,9.45C6.56,9.57,6.47,9.7,6.37,9.81C6.34,9.84,6.31,9.92,6.25,9.84z"/>
	<path class="st0" d="M6.25,9.84c0.11,0,0.13-0.12,0.18-0.18c0.42-0.53,0.83-1.07,1.25-1.61c0.06-0.07,0.09-0.14,0.06-0.23
		C7.7,7.73,7.61,7.75,7.52,7.75c-0.21,0-0.42,0-0.62,0c-0.05,0-0.11,0.02-0.15-0.03c0.36,0,0.73,0,1.09,0
		c0.09,0,0.17,0.01,0.22,0.11c0.05,0.09,0,0.16-0.05,0.23c-0.59,0.76-1.18,1.52-1.77,2.28c-0.03,0.04-0.07,0.11-0.14,0.07
		c-0.07-0.04-0.03-0.1-0.01-0.15C6.14,10.11,6.18,9.97,6.25,9.84z"/>
	<path class="st0" d="M6.75,7.72c-0.34,0-0.33,0-0.19-0.31C6.8,6.89,7.04,6.37,7.28,5.85C7.34,5.74,7.27,5.67,7.22,5.6
		c0.36-0.04,0.5,0.04,0.3,0.44C7.26,6.55,7.04,7.07,6.8,7.59C6.78,7.63,6.76,7.68,6.75,7.72z"/>
</g>
</svg>
