<?xml version="1.0" encoding="utf-8"?>
<!-- Generator: Adobe Illustrator 24.2.3, SVG Export Plug-In . SVG Version: 6.00 Build 0)  -->
<svg version="1.1" id="Layer_1" xmlns="http://www.w3.org/2000/svg" xmlns:xlink="http://www.w3.org/1999/xlink" x="0px" y="0px"
	 viewBox="0 0 16 16" style="enable-background:new 0 0 16 16;" xml:space="preserve">
<style type="text/css">
	.st0{fill:#C7CAD5;}
</style>
<g>
	<path class="st0" d="M0.88,9.24c0-1.69,0-3.38,0-5.07c0-0.5,0-0.5,0.49-0.5c0.29,0,0.58,0.01,0.88,0c0.18-0.01,0.21,0.05,0.21,0.22
		c-0.01,2.12,0,4.24,0,6.36c0,0.79,0,1.58,0,2.37c0,0.51,0.17,0.68,0.69,0.68c1.86,0,3.72,0,5.58,0c0.19,0,0.25,0.04,0.24,0.23
		c-0.02,0.34-0.01,0.69,0,1.04c0,0.2-0.08,0.29-0.29,0.29c-2.5,0-5.01,0-7.51,0c-0.24,0-0.28-0.05-0.28-0.34c0-1.08,0-2.15,0-3.23
		C0.88,10.61,0.88,9.92,0.88,9.24z"/>
	<path class="st0" d="M10.41,1.24c0.08,0.07,0.12,0.1,0.15,0.14c0.63,0.63,1.27,1.27,1.95,1.94c-0.31,0-0.56,0-0.8,0
		c-0.38,0-0.75,0-1.13,0c-0.13,0-0.17-0.04-0.17-0.17C10.41,2.53,10.41,1.91,10.41,1.24z"/>
	<path class="st0" d="M12.37,3.62c-0.66,0.01-1.32,0-1.98,0.01c-0.22,0-0.29-0.08-0.29-0.3c0.01-0.67,0-1.34,0.01-2.01
		c0-0.14-0.03-0.19-0.18-0.19c-2.28,0-4.56,0-6.85,0c-0.27,0-0.32,0.05-0.32,0.33c0,3.72,0,7.44,0,11.16c0,0.29,0.04,0.34,0.33,0.34
		c2.51,0,5.02,0,7.54,0c0.06,0,0.14,0.04,0.2-0.05c-0.42-0.25-0.78-0.56-1.07-0.96c-0.04-0.06-0.1-0.05-0.17-0.05
		c-1.78,0-3.56,0.01-5.35,0.01c-0.06,0-0.12,0-0.18-0.02c-0.09-0.02-0.15-0.08-0.13-0.18c0.01-0.09,0.07-0.13,0.16-0.12
		c0.07,0,0.14,0,0.21,0c1.73,0,3.46,0,5.21,0c-0.07-0.2-0.15-0.37-0.19-0.56c-0.03-0.16-0.11-0.18-0.25-0.18c-1.6,0.01-3.2,0-4.79,0
		c-0.08,0-0.15-0.01-0.23-0.02c-0.09-0.02-0.13-0.08-0.12-0.17c0.01-0.09,0.06-0.13,0.15-0.13c0.06,0,0.12,0,0.18,0
		c1.47,0,2.93,0,4.4,0c0.17,0,0.38,0.05,0.49-0.03c0.11-0.09,0.01-0.32,0.04-0.48c0.03-0.19-0.04-0.22-0.22-0.22
		c-1.57,0.01-3.13,0-4.7,0c-0.05,0-0.11,0-0.16,0c-0.1,0-0.18-0.03-0.18-0.15c0-0.13,0.08-0.17,0.2-0.17c0.05,0,0.11,0,0.16,0
		c1.59,0,3.18,0,4.77,0c0.08,0,0.19,0.05,0.22-0.06C9.32,9.18,9.45,8.97,9.5,8.74c-1.75,0-3.49,0-5.23,0c-0.07,0-0.14,0-0.21,0
		c-0.08,0-0.13-0.05-0.14-0.13C3.93,8.53,3.95,8.48,4.02,8.44C4.1,8.41,4.17,8.41,4.25,8.41c1.78,0,3.56,0.01,5.35,0.01
		c0.04,0,0.11,0.01,0.13-0.02c0.18-0.25,0.4-0.46,0.66-0.71c-0.13,0-0.21,0-0.28,0c-1.94,0-3.87,0-5.81,0c-0.06,0-0.12,0-0.18,0
		C4,7.68,3.93,7.64,3.93,7.52c0-0.11,0.08-0.14,0.17-0.14c0.07,0,0.14,0,0.21,0c2.11,0,4.21,0,6.32,0c0.17,0,0.33-0.03,0.49-0.1
		c0.4-0.18,0.83-0.27,1.27-0.24c0.18,0.01,0.2-0.04,0.2-0.19c-0.01-1-0.01-2,0-3C12.59,3.68,12.55,3.62,12.37,3.62z M4.14,3.15
		c1.51,0,3.02,0,4.53,0c0.12,0,0.25,0.02,0.25,0.17c0,0.16-0.14,0.16-0.25,0.16c-0.77,0-1.53,0-2.3,0c-0.74,0-1.49,0-2.23,0
		c-0.11,0-0.25,0.02-0.24-0.16C3.9,3.17,4.02,3.15,4.14,3.15z M3.93,4.37c0-0.08,0.04-0.14,0.11-0.15c0.07-0.01,0.14-0.01,0.21-0.01
		c2.29,0,4.57,0,6.86,0c0.05,0,0.11-0.01,0.16,0c0.08,0.01,0.14,0.06,0.15,0.15c0,0.1-0.06,0.16-0.15,0.17c-0.05,0.01-0.11,0-0.16,0
		c-1.15,0-2.3,0-3.45,0c-1.14,0-2.27,0-3.41,0c-0.07,0-0.14,0.01-0.21-0.01C3.97,4.51,3.93,4.45,3.93,4.37z M11.3,6.62
		c-0.06,0-0.12,0-0.18,0c-1.14,0-2.29,0-3.43,0c0,0,0,0,0,0c-1.14,0-2.29,0-3.43,0c-0.07,0-0.14,0-0.21-0.01
		C3.96,6.6,3.93,6.54,3.94,6.46c0-0.07,0.03-0.12,0.1-0.13C4.09,6.32,4.14,6.32,4.2,6.32c2.32,0,4.64,0,6.95,0c0.05,0,0.09,0,0.14,0
		c0.09,0.01,0.13,0.06,0.13,0.15C11.42,6.56,11.38,6.61,11.3,6.62z M11.32,5.56c-0.06,0.01-0.12,0.02-0.18,0.02
		C8.84,5.59,6.55,5.59,4.25,5.6c-0.08,0-0.15,0-0.23-0.03C3.95,5.53,3.93,5.48,3.93,5.4c0.01-0.08,0.05-0.13,0.13-0.13
		c0.06,0,0.12,0,0.18,0c1.14,0,2.29,0,3.43,0c1.14,0,2.29,0,3.43,0c0.06,0,0.12,0,0.18,0c0.08,0.01,0.12,0.06,0.12,0.14
		C11.43,5.49,11.4,5.55,11.32,5.56z"/>
	<path class="st0" d="M12.32,7.35c-1.55,0-2.83,1.28-2.81,2.82c0.01,1.53,1.27,2.8,2.8,2.8c1.57,0,2.82-1.26,2.82-2.81
		C15.12,8.61,13.85,7.35,12.32,7.35z M12.54,11.4c-0.19,0-0.22,0.07-0.2,0.22c0.01,0.04-0.01,0.09-0.02,0.14
		c-0.01,0.09-0.07,0.14-0.16,0.13c-0.09-0.01-0.17-0.06-0.15-0.16c0.06-0.31-0.1-0.36-0.35-0.32c-0.12,0.02-0.23-0.04-0.24-0.16
		c0-0.14,0.12-0.17,0.25-0.16c0.13,0.01,0.26,0,0.39,0c0.14,0,0.28,0,0.41,0c0.24-0.01,0.4-0.16,0.41-0.38
		c0-0.21-0.16-0.38-0.4-0.39c-0.14-0.01-0.28,0-0.41-0.01c-0.36-0.02-0.66-0.33-0.66-0.69c0-0.35,0.3-0.69,0.65-0.69
		c0.16,0,0.2-0.06,0.18-0.2c-0.01-0.05-0.01-0.11,0.01-0.16c0.02-0.08,0.08-0.16,0.18-0.15c0.09,0.01,0.14,0.08,0.14,0.18
		c0,0.01,0,0.02,0,0.02c-0.07,0.29,0.1,0.33,0.33,0.3c0.02,0,0.05,0,0.07,0c0.12-0.02,0.23,0.03,0.24,0.15
		c0,0.14-0.12,0.17-0.25,0.17c-0.25,0-0.51,0-0.76,0c-0.29,0-0.45,0.14-0.46,0.37c0,0.23,0.17,0.38,0.44,0.39
		c0.2,0.01,0.4-0.03,0.59,0.05c0.29,0.12,0.49,0.45,0.44,0.73C13.15,11.13,12.88,11.39,12.54,11.4z"/>
</g>
</svg>
