<?xml version="1.0" encoding="utf-8"?>
<!-- Generator: Adobe Illustrator 24.2.3, SVG Export Plug-In . SVG Version: 6.00 Build 0)  -->
<svg version="1.1" id="Layer_1" xmlns="http://www.w3.org/2000/svg" xmlns:xlink="http://www.w3.org/1999/xlink" x="0px" y="0px"
	 viewBox="0 0 28 28" style="enable-background:new 0 0 28 28;" xml:space="preserve">
<style type="text/css">
	.st0{fill:#FFFFFF;}
</style>
<path class="st0" d="M13.89,3.79c0.36-0.28,0.73-0.53,1.12-0.77c0.16-0.09,0.32-0.18,0.48-0.27c0.29-0.17,0.6-0.29,0.9-0.44
	c0.27-0.14,0.57-0.21,0.84-0.33c0.34-0.15,0.7-0.22,1.05-0.34c0.56-0.2,1.14-0.25,1.71-0.37c0.99-0.22,2-0.25,3.01-0.3
	c0.85-0.05,1.71-0.06,2.57-0.03C26.11,0.96,26.66,0.98,27.2,1c0.09,0,0.14,0.02,0.14,0.14c-0.01,0.29,0,0.58,0,0.88
	c0,0.09-0.01,0.13-0.12,0.12c-1.14-0.05-2.28-0.06-3.41,0.12c-0.47,0.07-0.95,0.15-1.4,0.34c-0.23,0.1-0.48,0.18-0.7,0.31
	c-0.37,0.21-0.73,0.45-1.05,0.73c-0.34,0.3-0.65,0.63-0.91,1.01c-0.25,0.37-0.48,0.75-0.67,1.16c-0.12,0.26-0.24,0.51-0.34,0.78
	c-0.22,0.57-0.41,1.14-0.57,1.73c-0.2,0.74-0.38,1.49-0.62,2.22c-0.01,0.02-0.01,0.05-0.01,0.08c0.02,0.21-0.1,0.39-0.14,0.59
	c-0.17,0.53-0.33,1.06-0.51,1.59c-0.11,0.31-0.25,0.6-0.38,0.89c-0.09,0.11-0.12,0.24-0.2,0.35c-0.29,0.48-0.62,0.93-0.97,1.37
	c-0.07,0.09-0.15,0.16-0.21,0.25c-0.2,0.19-0.38,0.39-0.58,0.57c-0.11,0.07-0.16,0.22-0.31,0.23c-0.22,0.21-0.49,0.37-0.72,0.58
	c-0.01,0.01-0.02,0.02-0.03,0.02c-0.28,0.14-0.52,0.35-0.81,0.49c-0.33,0.16-0.66,0.32-0.99,0.47c-0.25,0.11-0.51,0.18-0.75,0.29
	c-0.44,0.2-0.92,0.26-1.38,0.4c-0.62,0.2-1.26,0.26-1.9,0.35C7.6,19.1,7.5,19.05,7.45,19.11c-0.94,0.11-1.88,0.17-2.83,0.16
	c-0.97-0.01-1.94-0.06-2.91-0.15c-0.04,0-0.07-0.02-0.11-0.03c-0.08-0.01-0.17,0.01-0.24-0.04c-0.11-0.01-0.21-0.04-0.32-0.04
	c-0.13,0-0.17-0.05-0.16-0.18c0.01-0.2,0-0.4,0-0.6c0-0.16,0.01-0.17,0.17-0.15c0.46,0.06,0.92,0.07,1.39,0.08s0.94,0,1.39-0.09
	c0.52-0.11,1.06-0.16,1.56-0.35c0.25-0.1,0.52-0.15,0.75-0.29c0.28-0.17,0.6-0.28,0.85-0.51c0.15-0.14,0.32-0.25,0.47-0.39
	c0.3-0.27,0.57-0.57,0.81-0.89c0.33-0.45,0.58-0.96,0.78-1.48c0.2-0.51,0.37-1.02,0.53-1.54c0.21-0.65,0.39-1.3,0.56-1.96
	c0.1-0.4,0.19-0.8,0.28-1.2c0-0.25,0.07-0.48,0.13-0.72c0.18-0.53,0.37-1.05,0.6-1.56c0.13-0.28,0.27-0.54,0.41-0.82
	C11.63,6.25,11.7,6.13,11.77,6c0.22-0.34,0.46-0.65,0.7-0.97c0.04-0.05,0.07-0.09,0.12-0.13c0.11-0.07,0.18-0.17,0.26-0.27
	c0.23-0.23,0.48-0.43,0.72-0.66C13.66,3.9,13.76,3.82,13.89,3.79z"/>
<path class="st0" d="M15.09,15.61c0.02-0.12,0.12-0.17,0.2-0.24c0.08-0.03,0.11,0.04,0.14,0.08c0.61,0.77,1.38,1.33,2.27,1.76
	c0.61,0.3,1.24,0.53,1.91,0.68c-0.28-0.1-0.49-0.3-0.72-0.47c-1.03-0.78-1.79-1.78-2.39-2.91c-0.09-0.17-0.22-0.33-0.24-0.54
	c0.09-0.1,0.08-0.25,0.19-0.32c0.07-0.01,0.09,0.05,0.11,0.09c0.32,0.65,0.68,1.28,1.12,1.85c0.44,0.58,0.93,1.1,1.52,1.53
	c0.62,0.45,1.3,0.79,2.06,1.04c-0.23-0.22-0.49-0.36-0.7-0.54c-0.9-0.78-1.6-1.69-2.07-2.78c-0.48-1.1-0.81-2.24-1.12-3.4
	c-0.03-0.1-0.02-0.2-0.03-0.29c0.05-0.19,0.11-0.38,0.19-0.57c0.07,0.26,0.14,0.52,0.2,0.79c0.09,0.43,0.22,0.84,0.34,1.26
	c0.16,0.54,0.34,1.07,0.55,1.59c0.17,0.42,0.36,0.84,0.59,1.23c0.25,0.43,0.56,0.81,0.87,1.2c0.11,0.14,0.25,0.25,0.38,0.37
	c0.16,0.16,0.33,0.32,0.52,0.45c0.48,0.35,1.01,0.59,1.56,0.82c0.54,0.23,1.09,0.23,1.64,0.27c0.62,0.04,1.23,0.04,1.85,0.03
	c0.34-0.01,0.69-0.03,1.03-0.03c0.06,0,0.15-0.04,0.18,0.04c0.03,0.1,0.03,0.21,0,0.31c-0.01,0.05-0.08,0.03-0.13,0.03
	c-0.31,0-0.62,0-0.94,0.01c-0.51,0-1.02-0.01-1.53,0.01C23.87,19,23.1,19,22.33,18.98c-0.72-0.02-1.44-0.04-2.16-0.14
	c-0.21-0.03-0.43-0.03-0.63-0.09c-0.51-0.14-1.04-0.18-1.53-0.37c-0.27-0.1-0.56-0.16-0.81-0.28c-0.29-0.14-0.61-0.23-0.88-0.39
	c-0.19-0.11-0.4-0.18-0.57-0.3c-0.25-0.18-0.55-0.28-0.78-0.49c-0.06-0.05-0.13-0.09-0.21-0.12c-0.2-0.09-0.33-0.28-0.53-0.37
	c0.11-0.07,0.16-0.2,0.27-0.26c0.22,0.09,0.38,0.26,0.58,0.38c0.3,0.19,0.6,0.38,0.92,0.55c0.39,0.21,0.8,0.38,1.2,0.58
	c0.03,0.01,0.06,0.03,0.09,0.04c0.55,0.16,1.07,0.4,1.64,0.48c0.29,0.04,0.58,0.15,0.87,0.2c0.09,0.05,0.18,0.02,0.25,0.05
	c-0.03,0.01-0.08-0.03-0.13-0.02c-0.31-0.11-0.65-0.14-0.96-0.26c-0.43-0.16-0.88-0.29-1.29-0.51c-0.27-0.15-0.55-0.29-0.82-0.44
	c-0.65-0.37-1.21-0.86-1.67-1.45C15.13,15.74,15.08,15.69,15.09,15.61z"/>
<path class="st0" d="M11.8,6.01c-0.04,0.13-0.11,0.25-0.2,0.36c-0.16-0.14-0.19-0.34-0.27-0.52C10.89,4.9,10.28,4.1,9.45,3.47
	c-0.61-0.46-1.26-0.83-1.97-1.1C7.19,2.26,6.9,2.16,6.69,2.1c0.17,0.07,0.37,0.25,0.58,0.41c0.34,0.27,0.67,0.55,0.95,0.87
	c0.43,0.49,0.79,1.03,1.1,1.6c0.6,1.09,0.93,2.28,1.24,3.48c0.03,0.1,0.02,0.2,0.04,0.29c-0.06,0.24-0.12,0.47-0.18,0.71
	c-0.05-0.36-0.17-0.71-0.25-1.06c-0.13-0.53-0.28-1.06-0.45-1.58c-0.1-0.28-0.2-0.56-0.32-0.83C9.22,5.54,9,5.12,8.74,4.71
	c-0.2-0.32-0.42-0.63-0.68-0.92C7.9,3.62,7.74,3.46,7.59,3.29C7.47,3.15,7.33,3.03,7.18,2.92c-0.28-0.2-0.55-0.4-0.84-0.58
	C6.07,2.18,5.78,2.08,5.5,1.95C5.1,1.77,4.68,1.72,4.26,1.67C4.11,1.65,3.97,1.64,3.83,1.62C3.69,1.54,3.52,1.64,3.38,1.55
	c-0.77,0-1.54,0-2.31,0c-0.08,0-0.16-0.01-0.23,0.04C0.78,1.3,0.79,1.28,1,1.2c1.61-0.02,3.22-0.01,4.84,0
	c0.34,0.1,0.69,0.05,1.03,0.09C7.1,1.32,7.33,1.32,7.56,1.34C8.02,1.4,8.49,1.43,8.93,1.56c0.37,0.11,0.76,0.16,1.12,0.3
	c0.33,0.13,0.68,0.2,1,0.36c0.26,0.13,0.54,0.21,0.8,0.33c0.44,0.21,0.87,0.43,1.27,0.71c0.21,0.15,0.44,0.26,0.61,0.46
	c0.04,0.04,0.09,0.07,0.16,0.08c-0.1,0.07-0.18,0.15-0.3,0.19C13.41,4,13.31,3.86,13.18,3.78c-0.6-0.39-1.22-0.74-1.88-1.03
	c-0.56-0.24-1.15-0.41-1.72-0.63c1.03,0.43,1.92,1.05,2.72,1.82c0.19,0.18,0.36,0.39,0.53,0.59c0.03,0.04,0.06,0.07,0.04,0.12
	c-0.05,0.11-0.13,0.2-0.23,0.27c-0.08-0.03-0.12-0.1-0.17-0.16c-0.29-0.33-0.6-0.65-0.94-0.94c-0.37-0.32-0.78-0.57-1.18-0.84
	c-0.24-0.15-0.5-0.26-0.75-0.37C9.14,2.4,8.68,2.18,8.18,2.09C7.9,2.03,7.64,1.91,7.36,1.86c0.4,0.13,0.79,0.29,1.17,0.49
	c0.81,0.42,1.53,0.97,2.13,1.67c0.43,0.5,0.76,1.07,1.05,1.66C11.76,5.78,11.84,5.88,11.8,6.01z"/>
<path class="st0" d="M19.53,25.05c-0.11,0.34-0.22,0.68-0.33,1.02c-0.07,0.21-0.14,0.43-0.21,0.64c-0.02,0.06-0.05,0.1-0.12,0.1
	c-0.07,0-0.11-0.02-0.13-0.09c-0.13-0.46-0.27-0.91-0.41-1.37c-0.03-0.1-0.04-0.21-0.12-0.32c-0.01,0.16-0.03,0.29-0.03,0.42
	c-0.02,0.4-0.04,0.81-0.06,1.21c0,0.09-0.01,0.15-0.13,0.15c-0.11,0-0.15-0.04-0.14-0.15c0.04-0.68,0.08-1.36,0.12-2.04
	c0.01-0.09,0.05-0.12,0.14-0.12c0.22-0.01,0.23,0,0.29,0.21c0.12,0.4,0.24,0.8,0.36,1.19c0.04,0.13,0.05,0.26,0.12,0.4
	c0.09-0.18,0.11-0.36,0.17-0.53c0.13-0.39,0.25-0.78,0.37-1.17c0.03-0.1,0.13-0.12,0.31-0.1c0.11,0.01,0.07,0.1,0.08,0.15
	c0.04,0.67,0.08,1.34,0.12,2c0.01,0.16-0.01,0.16-0.17,0.16c-0.12,0-0.1-0.08-0.1-0.15c-0.02-0.36-0.04-0.73-0.05-1.09
	c-0.03-0.17,0.01-0.35-0.02-0.52c0-0.03,0.01,0-0.01-0.02C19.54,25.01,19.54,25.05,19.53,25.05z"/>
<path class="st0" d="M25.02,25.88c0-0.41,0-0.82,0-1.23c0-0.14,0.09-0.19,0.22-0.15c0.04,0.01,0.05,0.04,0.05,0.07
	c0,0.05,0,0.09,0,0.14c0,0.65,0,1.3,0,1.95c0,0.05,0.03,0.14-0.06,0.14c-0.08,0-0.18,0.06-0.26-0.07c-0.23-0.43-0.47-0.85-0.71-1.27
	c-0.07-0.13-0.14-0.27-0.21-0.4c-0.11,0.08-0.04,0.19-0.04,0.28c0,0.43,0,0.86,0,1.29c0,0.09,0.03,0.18-0.13,0.18
	c-0.14,0-0.14-0.07-0.14-0.17c0-0.66,0-1.31,0-1.97c0-0.06-0.04-0.16,0.06-0.16c0.1-0.01,0.22-0.06,0.29,0.06
	c0.06,0.11,0.12,0.22,0.18,0.33c0.23,0.44,0.5,0.85,0.7,1.3c0.05,0.01,0.04,0.07,0.06,0.09C25.02,26.16,25.06,26.02,25.02,25.88z"/>
<path class="st0" d="M26.65,25.56c0.37,0.24,0.42,0.54,0.32,0.84c-0.03,0.1-0.09,0.18-0.17,0.24c-0.3,0.24-0.65,0.23-1,0.18
	c-0.06-0.01-0.08-0.04-0.08-0.1c0-0.09,0-0.19,0-0.28c0-0.59,0-1.18,0-1.77c0-0.12,0.04-0.17,0.15-0.17c0.19-0.01,0.37-0.02,0.56,0
	c0.26,0.03,0.44,0.18,0.49,0.4c0.05,0.23-0.02,0.51-0.23,0.63C26.68,25.53,26.67,25.54,26.65,25.56z"/>
<path class="st0" d="M14.68,27.17c0.61,0.24,0.9,0.04,0.89-0.58c-0.08,0.01-0.12,0.08-0.18,0.11c-0.29,0.18-0.68,0.07-0.81-0.25
	c-0.15-0.35-0.15-0.7,0.06-1.04c0.22-0.34,0.63-0.39,0.93-0.1c0.02-0.07,0-0.16,0.11-0.17c0.12-0.01,0.17,0.02,0.17,0.15
	c0,0.41,0.01,0.82,0,1.23c-0.01,0.19-0.01,0.38-0.08,0.57c-0.03,0.09-0.08,0.17-0.15,0.23c-0.34,0.26-0.58,0.27-0.94,0.09
	C14.6,27.36,14.6,27.35,14.68,27.17z"/>
<path class="st0" d="M5.15,25.31c0.04-0.02,0.03-0.05,0.03-0.07c0.01-0.11,0.08-0.1,0.16-0.1c0.09,0,0.08,0.07,0.08,0.13
	c0,0.5,0,1.01-0.01,1.51c-0.01,0.39-0.21,0.65-0.57,0.73c-0.21,0.05-0.42,0-0.6-0.12c-0.08-0.05-0.02-0.11-0.01-0.16
	c0.01-0.06,0.05-0.07,0.1-0.04c0.12,0.05,0.24,0.08,0.37,0.08c0.23,0,0.41-0.18,0.44-0.42c0.01-0.08,0-0.17,0-0.28
	c-0.1,0.09-0.18,0.15-0.27,0.2c-0.12,0.07-0.25,0.07-0.37,0c-0.44-0.27-0.57-0.81-0.33-1.28c0.13-0.27,0.34-0.37,0.62-0.36
	C4.94,25.14,5.05,25.21,5.15,25.31z"/>
<path class="st0" d="M19.53,22.41c0.13-0.43,0.29-0.83,0.41-1.25c0.02-0.07,0.02-0.16,0.12-0.18c0.18-0.03,0.22,0,0.23,0.18
	c0.03,0.51,0.06,1.02,0.09,1.53c0,0.08,0.01,0.14-0.1,0.14s-0.11-0.05-0.12-0.13c-0.01-0.31-0.03-0.62-0.04-0.93
	c0-0.11-0.01-0.22-0.06-0.34c-0.13,0.4-0.25,0.79-0.38,1.17c-0.03,0.09,0,0.23-0.17,0.22c-0.15-0.01-0.12-0.14-0.15-0.22
	c-0.12-0.39-0.23-0.78-0.35-1.17c-0.08,0.02-0.05,0.06-0.05,0.1c0.01,0.4-0.04,0.79-0.05,1.19c0,0.11-0.06,0.11-0.14,0.11
	c-0.1,0-0.08-0.07-0.08-0.12c0.03-0.53,0.07-1.06,0.1-1.59c0-0.06-0.01-0.15,0.09-0.14c0.09,0.01,0.2-0.05,0.24,0.1
	c0.07,0.26,0.16,0.52,0.23,0.78C19.42,22.05,19.47,22.23,19.53,22.41z"/>
<path class="st0" d="M17.65,24.5c-0.19,0.28-0.36,0.51-0.55,0.74c-0.04,0.05-0.07,0.1-0.1,0.14c-0.07,0.09-0.05,0.14,0.01,0.22
	c0.22,0.36,0.42,0.73,0.66,1.08c0.05,0.08,0.03,0.11-0.07,0.12c-0.13,0.01-0.21-0.01-0.28-0.14c-0.15-0.26-0.29-0.52-0.45-0.77
	c-0.04-0.06-0.06-0.16-0.15-0.13c-0.1,0.03-0.16,0.12-0.16,0.23c0,0.17,0,0.33,0,0.5c0,0.05,0,0.11,0,0.16
	c0,0.14-0.08,0.19-0.21,0.15c-0.05-0.02-0.06-0.05-0.06-0.09c0-0.07,0-0.15,0-0.22c0-0.61,0-1.22,0-1.83c0-0.09-0.01-0.17,0.13-0.17
	c0.11,0,0.15,0.04,0.15,0.15c-0.01,0.3,0,0.6,0,0.9c0.08-0.01,0.1-0.07,0.13-0.12c0.19-0.27,0.38-0.54,0.56-0.81
	C17.33,24.46,17.48,24.51,17.65,24.5z"/>
<path class="st0" d="M20.32,25.34c0-0.22,0-0.44,0-0.66c0-0.19,0-0.19,0.14-0.18c0.13,0,0.13,0,0.13,0.2c0,0.39,0,0.78,0,1.17
	c0,0.19,0.03,0.37,0.12,0.53c0.08,0.14,0.2,0.18,0.35,0.18s0.28-0.04,0.36-0.19c0.09-0.18,0.12-0.36,0.12-0.56c0-0.39,0-0.78,0-1.17
	c0-0.14,0.09-0.2,0.23-0.15c0.05,0.02,0.05,0.06,0.05,0.1c-0.01,0.52,0.03,1.04-0.03,1.55c-0.06,0.44-0.4,0.76-0.86,0.69
	c-0.26-0.04-0.43-0.19-0.53-0.42c-0.07-0.16-0.1-0.34-0.09-0.52C20.32,25.71,20.32,25.53,20.32,25.34z"/>
<path class="st0" d="M1.03,25.65c0-0.34,0-0.68,0-1.01c0-0.1,0.03-0.14,0.14-0.14c0.28,0.01,0.56,0.01,0.84,0
	c0.12,0,0.14,0.06,0.14,0.16c0,0.11-0.05,0.12-0.13,0.12c-0.19,0-0.38,0-0.58,0c-0.1,0-0.13,0.03-0.12,0.13
	c0.01,0.15,0.01,0.31,0,0.46c-0.01,0.11,0.04,0.13,0.14,0.13c0.17-0.01,0.34,0,0.52,0c0.07,0,0.14-0.01,0.13,0.1
	c-0.01,0.09-0.01,0.18-0.13,0.18c-0.17,0-0.33,0-0.5,0c-0.16,0-0.16,0-0.16,0.17c0,0.15,0,0.29,0,0.44c0,0.16,0,0.17,0.16,0.17
	c0.19,0,0.37,0,0.56,0c0.15,0,0.17,0.04,0.16,0.18c-0.01,0.07-0.03,0.09-0.1,0.09c-0.32,0-0.64,0-0.96,0c-0.1,0-0.1-0.05-0.1-0.13
	C1.03,26.34,1.03,25.99,1.03,25.65z"/>
<path class="st0" d="M14.61,22.36c0.08-0.15,0.12-0.3,0.14-0.45c0.01-0.05,0.01-0.09,0.07-0.1c0.11-0.02,0.16,0.02,0.13,0.13
	c-0.04,0.17-0.06,0.34-0.17,0.48c-0.07,0.09,0.01,0.14,0.03,0.19c0.04,0.07,0.12,0.12,0.16,0.21c-0.13,0-0.25,0.05-0.33-0.09
	c-0.04-0.06-0.08-0.05-0.13-0.01c-0.11,0.09-0.25,0.13-0.39,0.13c-0.2,0-0.38-0.05-0.47-0.24c-0.09-0.2-0.11-0.42,0.05-0.62
	c0.02-0.03,0.04-0.05,0.07-0.07c0.1-0.08,0.12-0.16,0.05-0.29c-0.09-0.19-0.07-0.39,0.07-0.56c0.13-0.16,0.41-0.17,0.56-0.03
	c0.15,0.13,0.16,0.44,0.02,0.6c-0.04,0.04-0.09,0.08-0.14,0.12c-0.13,0.1-0.14,0.1-0.03,0.22C14.42,22.08,14.51,22.21,14.61,22.36z"
	/>
<path class="st0" d="M13.87,26.19c0-0.15,0-0.29,0-0.44c-0.01-0.23-0.14-0.38-0.32-0.38c-0.16,0-0.35,0.19-0.36,0.37
	c-0.01,0.22,0,0.44,0,0.66c0,0.09-0.01,0.17,0,0.26c0.01,0.11-0.03,0.15-0.14,0.15c-0.12,0-0.14-0.05-0.14-0.15
	c0-0.46,0-0.92,0-1.37c0-0.05-0.03-0.13,0.06-0.14c0.07,0,0.16-0.04,0.18,0.09c0.02,0.11,0.09,0.04,0.14,0
	c0.17-0.13,0.35-0.14,0.55-0.07c0.21,0.07,0.26,0.25,0.3,0.44c0.07,0.37,0.03,0.74,0.03,1.11c0,0.12-0.08,0.1-0.15,0.1
	s-0.15,0.02-0.15-0.1C13.87,26.54,13.87,26.36,13.87,26.19L13.87,26.19z"/>
<path class="st0" d="M18.48,21.82c0.01,0.33-0.06,0.56-0.2,0.78c-0.22,0.36-0.91,0.35-1.13-0.02c-0.27-0.47-0.25-0.91,0.04-1.38
	c0.2-0.31,0.89-0.32,1.08,0.01C18.4,21.43,18.47,21.65,18.48,21.82z"/>
<path class="st0" d="M2.77,25.32c0.15-0.15,0.32-0.22,0.53-0.19c0.17,0.02,0.29,0.11,0.36,0.27c0.05,0.13,0.08,0.26,0.08,0.4
	c-0.01,0.29-0.01,0.58,0,0.88c0,0.11-0.05,0.13-0.14,0.13c-0.1,0-0.14-0.03-0.14-0.14c0.01-0.27,0-0.54,0-0.82c0-0.05,0-0.09,0-0.14
	c-0.02-0.19-0.17-0.35-0.32-0.34c-0.18,0.01-0.35,0.17-0.36,0.36c-0.01,0.3,0,0.61,0,0.92c0,0.14-0.11,0.2-0.23,0.15
	c-0.06-0.03-0.04-0.09-0.04-0.14c0-0.37,0-0.74,0-1.11c0-0.09,0.01-0.17-0.01-0.26c-0.02-0.07-0.02-0.14,0.07-0.15
	c0.08-0.01,0.17-0.03,0.18,0.1C2.75,25.27,2.74,25.29,2.77,25.32z"/>
<path class="st0" d="M6.8,25.33c0.11-0.1,0.22-0.18,0.36-0.2c0.33-0.05,0.59,0.14,0.61,0.5s0,0.72,0.01,1.07
	c0,0.11-0.07,0.11-0.14,0.11c-0.09,0-0.14-0.02-0.13-0.12c0.01-0.21,0-0.42,0-0.64c0-0.1,0-0.2,0-0.3
	c-0.01-0.23-0.14-0.38-0.33-0.38c-0.17,0.01-0.35,0.2-0.35,0.39c0,0.21,0,0.41,0,0.62c0,0.09,0,0.17,0,0.26
	c0,0.15-0.08,0.2-0.22,0.16c-0.08-0.02-0.05-0.08-0.05-0.13c0-0.33,0-0.65,0-0.98c0-0.14,0-0.28,0-0.42c0-0.07-0.02-0.14,0.09-0.14
	c0.09,0,0.16,0.01,0.16,0.13C6.77,25.28,6.78,25.3,6.8,25.33z"/>
<path class="st0" d="M8.88,26.01c-0.13,0-0.25,0-0.38,0s-0.15,0.02-0.13,0.15c0.03,0.27,0.29,0.47,0.56,0.43
	c0.08-0.01,0.16-0.03,0.23-0.05c0.04-0.01,0.09-0.04,0.11,0.01c0.02,0.05,0.05,0.11,0.01,0.17c-0.01,0.02-0.03,0.04-0.05,0.06
	c-0.14,0.1-0.6,0.06-0.76-0.03c-0.25-0.15-0.35-0.37-0.38-0.64c-0.03-0.29,0.04-0.57,0.22-0.8c0.22-0.28,0.86-0.26,0.97,0.11
	c0.04,0.15,0.11,0.29,0.11,0.46c0,0.09-0.03,0.13-0.13,0.13C9.14,26.01,9.01,26.01,8.88,26.01z"/>
<path class="st0" d="M10.38,26.01c-0.13,0-0.25,0.01-0.38,0C9.88,26,9.87,26.06,9.88,26.16c0.03,0.29,0.27,0.48,0.57,0.44
	c0.07-0.01,0.13-0.02,0.19-0.04c0.06-0.01,0.12-0.06,0.14,0.03c0.03,0.09,0.01,0.17-0.08,0.2c-0.39,0.13-0.89,0.06-1.05-0.44
	c-0.12-0.37-0.06-0.71,0.15-1.02c0.2-0.31,0.8-0.26,0.97,0.07c0.08,0.15,0.1,0.3,0.13,0.45c0.02,0.11-0.03,0.16-0.15,0.15
	C10.63,26.01,10.5,26.01,10.38,26.01z"/>
<path class="st0" d="M8,21.96c0.27,0.24,0.2,0.58,0.32,0.85c-0.24,0.04-0.24,0.04-0.28-0.18c-0.03-0.14-0.05-0.27-0.1-0.4
	c-0.05-0.14-0.3-0.25-0.43-0.19c-0.05,0.03-0.04,0.08-0.04,0.12c0,0.19,0,0.37,0,0.56c0,0.08-0.02,0.12-0.11,0.12
	s-0.11-0.02-0.11-0.11c0-0.54,0-1.07,0-1.61c0-0.08,0.01-0.12,0.1-0.13c0.17-0.01,0.33-0.03,0.49,0c0.38,0.05,0.56,0.48,0.33,0.79
	C8.13,21.84,8.08,21.91,8,21.96z"/>
<path class="st0" d="M26.72,21.96c0.27,0.23,0.19,0.57,0.32,0.84c-0.23,0.05-0.23,0.05-0.28-0.16c-0.03-0.14-0.05-0.27-0.1-0.41
	c-0.05-0.15-0.29-0.26-0.42-0.2c-0.06,0.02-0.05,0.07-0.05,0.12c0,0.17,0,0.33,0,0.5c0,0.18,0,0.18-0.22,0.17c0-0.2,0-0.41,0-0.61
	c0-0.35,0-0.69,0-1.04c0-0.17,0-0.17,0.16-0.19c0.15-0.02,0.3-0.02,0.46,0c0.35,0.06,0.53,0.49,0.31,0.78
	C26.85,21.83,26.8,21.91,26.72,21.96z"/>
<path class="st0" d="M22.64,25.78c0-0.28,0-0.56,0-0.83c0-0.16,0-0.16-0.16-0.17c-0.12,0-0.24-0.01-0.36,0
	c-0.11,0.01-0.1-0.06-0.09-0.13c0-0.07-0.02-0.15,0.1-0.15c0.44,0,0.87,0,1.31,0c0.12,0,0.1,0.07,0.1,0.15
	c0.01,0.09-0.01,0.14-0.12,0.13c-0.13-0.01-0.25,0.01-0.38,0c-0.12-0.01-0.14,0.04-0.14,0.15c0,0.58,0,1.15,0,1.73
	c0,0.16-0.01,0.17-0.16,0.16c-0.09,0-0.11-0.04-0.11-0.12C22.64,26.38,22.64,26.08,22.64,25.78z"/>
<path class="st0" d="M21.99,21.65c0-0.18,0-0.36,0-0.54c0-0.08,0-0.13,0.11-0.13s0.11,0.06,0.11,0.14c0,0.36-0.01,0.73,0.01,1.09
	c0.01,0.12,0.05,0.23,0.13,0.33c0.14,0.17,0.35,0.18,0.49,0.01c0.11-0.13,0.14-0.28,0.15-0.44c0-0.33,0-0.66,0-0.99
	c0-0.1,0.02-0.14,0.13-0.13c0.07,0.01,0.09,0.03,0.09,0.1c-0.01,0.41,0.03,0.82-0.02,1.23c-0.05,0.44-0.41,0.65-0.82,0.51
	c-0.14-0.05-0.24-0.13-0.29-0.27c-0.05-0.15-0.09-0.3-0.09-0.46C21.99,21.94,21.99,21.79,21.99,21.65z"/>
<path class="st0" d="M10.45,22.81c0.11-0.36,0.21-0.72,0.32-1.08c0.06-0.21,0.13-0.41,0.19-0.63c0.03-0.11,0.08-0.13,0.18-0.13
	c0.11,0,0.15,0.04,0.18,0.14c0.16,0.56,0.33,1.12,0.5,1.69c-0.22,0.05-0.23,0.05-0.29-0.15c-0.03-0.12-0.03-0.27-0.12-0.35
	c-0.1-0.08-0.26-0.01-0.39-0.03c-0.14-0.02-0.21,0.03-0.23,0.17c-0.01,0.07-0.03,0.14-0.06,0.21
	C10.67,22.81,10.72,22.86,10.45,22.81z"/>
<path class="st0" d="M3.36,21.91c0-0.27,0-0.53,0-0.8c0-0.11,0.03-0.14,0.14-0.13c0.22,0.01,0.44,0,0.66,0c0.07,0,0.12,0,0.11,0.09
	c-0.01,0.08-0.01,0.14-0.12,0.14c-0.15-0.01-0.3,0-0.46,0c-0.07,0-0.11,0.02-0.1,0.1c0.01,0.12,0,0.24,0,0.36
	c0,0.07,0.03,0.09,0.09,0.09c0.15,0,0.29,0,0.44,0c0.09,0,0.11,0.04,0.11,0.12c0,0.09-0.03,0.12-0.11,0.11c-0.14-0.01-0.28,0-0.42,0
	c-0.09,0-0.11,0.03-0.11,0.11c0.01,0.15,0.01,0.29,0,0.44c-0.01,0.11,0.04,0.12,0.13,0.12c0.16,0,0.32,0,0.48,0
	c0.06,0,0.11,0,0.12,0.09c0,0.1-0.05,0.1-0.12,0.1c-0.23,0-0.46,0-0.7,0c-0.1,0-0.13-0.03-0.12-0.13
	C3.37,22.44,3.36,22.17,3.36,21.91z"/>
<path class="st0" d="M24.78,21.9c0-0.26,0-0.53,0-0.79c0-0.09,0.02-0.13,0.12-0.12c0.22,0.01,0.44,0,0.66,0
	c0.06,0,0.13-0.02,0.12,0.08c0,0.09-0.03,0.15-0.14,0.15c-0.14,0-0.28,0-0.42,0c-0.09,0-0.13,0.03-0.13,0.12
	c0.01,0.13-0.04,0.3,0.02,0.39c0.07,0.1,0.25,0.02,0.38,0.03c0.05,0,0.09,0,0.14,0c0.08-0.01,0.1,0.04,0.1,0.11
	c0,0.08-0.01,0.13-0.11,0.12c-0.15-0.01-0.29,0-0.44,0c-0.07,0-0.1,0.02-0.09,0.09c0,0.16,0,0.32,0,0.48c0,0.08,0.04,0.1,0.11,0.1
	c0.15,0,0.3,0,0.46,0c0.06,0,0.13-0.02,0.14,0.09c0,0.1-0.06,0.1-0.13,0.1c-0.23,0-0.45-0.01-0.68,0c-0.11,0-0.13-0.04-0.13-0.14
	C24.78,22.43,24.78,22.16,24.78,21.9z"/>
<path class="st0" d="M20.91,22.1c0,0.21,0,0.41,0,0.61c0,0.08-0.01,0.12-0.11,0.12c-0.08,0-0.12-0.02-0.12-0.11
	c0-0.54,0-1.08,0-1.61c0-0.08,0.02-0.12,0.11-0.12c0.13-0.01,0.26-0.02,0.4-0.01c0.39,0.03,0.61,0.37,0.49,0.74
	c-0.09,0.29-0.24,0.35-0.51,0.39C21.1,22.11,21.02,22.1,20.91,22.1z"/>
<path class="st0" d="M8.93,10.59c-0.32-0.02-0.48-0.18-0.5-0.49c-0.02-0.3,0.3-0.55,0.52-0.54c0.26,0.02,0.5,0.26,0.5,0.54
	C9.44,10.38,9.23,10.59,8.93,10.59z"/>
<path class="st0" d="M1.29,10.59c-0.3,0-0.51-0.2-0.51-0.49C0.77,9.81,1.01,9.56,1.29,9.56c0.27,0,0.5,0.25,0.5,0.53
	C1.79,10.38,1.59,10.58,1.29,10.59z"/>
<path class="st0" d="M19.65,10.08c0,0.3-0.19,0.5-0.49,0.51s-0.52-0.2-0.52-0.5c0-0.28,0.24-0.53,0.5-0.53
	C19.42,9.56,19.64,9.79,19.65,10.08z"/>
<path class="st0" d="M26.29,10.07c0-0.29,0.23-0.52,0.51-0.52c0.27,0,0.5,0.25,0.5,0.53c0,0.29-0.21,0.49-0.5,0.49
	C26.48,10.59,26.28,10.38,26.29,10.07z"/>
<path class="st0" d="M24.71,10.1c0,0.29-0.21,0.49-0.51,0.49c-0.3,0-0.49-0.21-0.5-0.52c-0.01-0.23,0.3-0.53,0.52-0.51
	C24.49,9.58,24.71,9.81,24.71,10.1z"/>
<path class="st0" d="M22.22,10.08c0,0.29-0.2,0.5-0.5,0.5s-0.51-0.19-0.51-0.48c-0.01-0.28,0.24-0.54,0.51-0.55
	C21.93,9.54,22.24,9.82,22.22,10.08z"/>
<path class="st0" d="M6.36,9.56c0.27,0,0.5,0.25,0.5,0.53c0,0.3-0.22,0.5-0.52,0.5c-0.29-0.01-0.49-0.22-0.49-0.51
	C5.86,9.79,6.09,9.55,6.36,9.56z"/>
<path class="st0" d="M1.03,21.9c0-0.27,0-0.53,0-0.8c0-0.09,0.02-0.13,0.12-0.12c0.22,0.01,0.44,0,0.66,0c0.07,0,0.12,0,0.11,0.09
	c-0.01,0.08-0.01,0.14-0.12,0.14c-0.15-0.01-0.29,0-0.44,0c-0.08,0-0.11,0.03-0.12,0.11c-0.03,0.43-0.03,0.43,0.39,0.43
	c0.05,0,0.09,0,0.14,0c0.09-0.01,0.11,0.03,0.11,0.12s-0.03,0.12-0.12,0.11c-0.13-0.01-0.27,0-0.4,0c-0.09,0-0.14,0.01-0.13,0.12
	c0.01,0.17-0.07,0.39,0.03,0.5c0.1,0.12,0.32,0.02,0.49,0.05c0.07,0.01,0.19-0.07,0.19,0.09c0.01,0.18-0.13,0.09-0.2,0.09
	c-0.19,0.01-0.38-0.01-0.58,0.01c-0.13,0.01-0.15-0.04-0.15-0.16C1.03,22.42,1.03,22.16,1.03,21.9z"/>
<path class="st0" d="M3.87,10.59c-0.3,0-0.49-0.2-0.51-0.49c-0.01-0.3,0.3-0.55,0.51-0.54c0.26,0.01,0.5,0.26,0.5,0.54
	C4.38,10.38,4.16,10.59,3.87,10.59z"/>
<path class="st0" d="M4.47,21.9c-0.01-0.28,0.09-0.53,0.28-0.74c0.11-0.13,0.28-0.17,0.45-0.2c0.13-0.02,0.26-0.01,0.39,0.03
	c0.11,0.03,0.15,0.12,0.09,0.22c-0.03,0.05-0.07,0.03-0.1,0.02c-0.34-0.16-0.68-0.01-0.81,0.34c-0.09,0.24-0.09,0.48-0.01,0.7
	c0.1,0.27,0.36,0.47,0.73,0.4c0.05-0.01,0.09-0.02,0.14-0.03c0.04-0.01,0.08,0.01,0.08,0.06c0.01,0.05,0.02,0.08-0.04,0.11
	c-0.42,0.23-1.07-0.08-1.16-0.55C4.48,22.13,4.45,22.02,4.47,21.9z"/>
<path class="st0" d="M9.28,21.95c-0.02,0.26,0.11,0.48,0.34,0.65c0.05,0.04,0.12,0.05,0.19,0.06c0.11,0.01,0.21,0.01,0.32-0.02
	c0.05-0.01,0.12-0.07,0.16,0.04c0.03,0.11-0.03,0.13-0.11,0.14c-0.16,0.03-0.32,0.04-0.49,0.02c-0.32-0.05-0.5-0.26-0.58-0.55
	c-0.12-0.41-0.05-0.8,0.23-1.13c0.07-0.08,0.16-0.12,0.25-0.15c0.2-0.07,0.4-0.07,0.61-0.03c0.1,0.02,0.11,0.06,0.09,0.15
	c-0.02,0.1-0.05,0.12-0.14,0.06C10,21.1,9.85,21.11,9.7,21.2C9.36,21.42,9.28,21.54,9.28,21.95z"/>
<path class="st0" d="M15.61,21.91c-0.02-0.28,0.09-0.53,0.28-0.75c0.11-0.12,0.27-0.17,0.43-0.19c0.14-0.02,0.28-0.02,0.41,0.02
	c0.04,0.01,0.11,0.01,0.11,0.07s-0.02,0.12-0.04,0.17c-0.02,0.04-0.06,0.01-0.09,0c-0.3-0.16-0.67-0.01-0.8,0.3
	c-0.07,0.17-0.08,0.33-0.07,0.51c0.02,0.42,0.38,0.74,0.81,0.62c0.03-0.01,0.05-0.02,0.08-0.02c0.07-0.01,0.09,0.02,0.11,0.08
	s-0.02,0.09-0.06,0.1c-0.3,0.08-0.59,0.09-0.86-0.1c-0.15-0.1-0.23-0.27-0.28-0.44C15.62,22.15,15.61,22.04,15.61,21.91z"/>
<path class="st0" d="M6.58,22.05c0,0.23,0,0.45,0,0.68c0,0.09-0.03,0.11-0.11,0.11s-0.12-0.02-0.12-0.11c0-0.44,0-0.87,0-1.31
	c0-0.2,0-0.2-0.19-0.2c-0.05,0-0.11-0.01-0.16,0c-0.11,0.01-0.15-0.04-0.15-0.15c0-0.12,0.08-0.08,0.14-0.08c0.32,0,0.65,0,0.97,0
	c0.06,0,0.12-0.02,0.12,0.08c0,0.08-0.03,0.14-0.12,0.15c-0.03,0-0.05,0-0.08,0c-0.31,0-0.31,0-0.31,0.32
	C6.58,21.7,6.58,21.87,6.58,22.05z"/>
<path class="st0" d="M24.11,21.21c0,0.54,0,1.07,0,1.59c-0.22,0.05-0.23,0.05-0.23-0.15c0-0.42,0-0.85,0-1.27
	c0-0.17,0-0.17-0.18-0.17c-0.07,0-0.13,0-0.2,0c-0.12,0.01-0.13-0.06-0.13-0.15c0-0.1,0.07-0.08,0.12-0.08c0.33,0,0.66,0,0.99,0
	c0.05,0,0.11-0.01,0.11,0.07s-0.01,0.15-0.11,0.15C24.37,21.21,24.24,21.21,24.11,21.21z"/>
<path class="st0" d="M11.46,25.34c0.1-0.05,0.15-0.15,0.25-0.18c0.07-0.02,0.15-0.05,0.21-0.01c0.06,0.04,0.02,0.12,0.03,0.19
	c0,0.05-0.02,0.07-0.07,0.08c-0.33,0.11-0.39,0.19-0.4,0.56c-0.01,0.23,0,0.46,0,0.7c0,0.1-0.02,0.14-0.13,0.14
	s-0.15-0.03-0.15-0.15c0-0.46,0-0.92,0-1.37c0-0.08,0-0.14,0.11-0.15s0.14,0.04,0.13,0.14C11.44,25.29,11.45,25.3,11.46,25.34z"/>
<path class="st0" d="M12.05,21.89c0-0.26,0-0.52,0-0.78c0-0.08,0-0.14,0.11-0.14s0.11,0.05,0.11,0.13c0,0.46,0,0.91,0,1.37
	c0,0.16-0.03,0.16,0.16,0.16c0.15,0,0.29,0,0.44,0c0.07,0,0.11,0.01,0.11,0.1s-0.05,0.09-0.11,0.09c-0.23,0-0.45-0.01-0.68,0
	c-0.11,0-0.15-0.03-0.15-0.14C12.05,22.42,12.05,22.16,12.05,21.89z"/>
<path class="st0" d="M2.22,21.9c0-0.26,0-0.53,0-0.79c0-0.09,0.01-0.13,0.12-0.13c0.1,0,0.1,0.06,0.1,0.13c0,0.46,0,0.91,0,1.37
	c0,0.16,0,0.17,0.16,0.17c0.15,0,0.29,0,0.44,0c0.07,0,0.11,0.02,0.11,0.1c0,0.09-0.05,0.09-0.12,0.09c-0.23,0-0.46,0-0.69,0
	c-0.09,0-0.11-0.03-0.11-0.11C2.23,22.44,2.22,22.17,2.22,21.9z"/>
<path class="st0" d="M6.1,25.97c0,0.24-0.01,0.48,0,0.72c0,0.12-0.06,0.13-0.15,0.13c-0.08,0-0.14-0.01-0.14-0.12
	c0-0.47,0-0.94,0-1.41c0-0.12,0.06-0.14,0.16-0.14c0.12-0.01,0.12,0.07,0.12,0.15C6.1,25.52,6.1,25.74,6.1,25.97z"/>
<path class="st0" d="M12.47,25.98c0,0.24,0,0.48,0,0.71c0,0.11-0.05,0.12-0.14,0.12c-0.08,0-0.14,0-0.14-0.11c0-0.48,0-0.95,0-1.43
	c0-0.11,0.06-0.13,0.15-0.13c0.09,0,0.13,0.03,0.13,0.13C12.47,25.5,12.47,25.74,12.47,25.98z"/>
<path class="st0" d="M8.56,21.9c0-0.27,0-0.54,0-0.81c0-0.09,0.02-0.11,0.11-0.11c0.09,0,0.11,0.03,0.11,0.11c0,0.54,0,1.08,0,1.63
	c0,0.09-0.03,0.11-0.12,0.11s-0.11-0.03-0.11-0.11C8.57,22.45,8.56,22.17,8.56,21.9z"/>
<path class="st0" d="M6.13,24.7c0,0.11-0.07,0.18-0.17,0.18c-0.09,0-0.18-0.1-0.18-0.2c0.01-0.1,0.09-0.18,0.18-0.18
	C6.07,24.5,6.14,24.58,6.13,24.7z"/>
<path class="st0" d="M12.51,24.7c0,0.11-0.06,0.18-0.16,0.18c-0.1,0-0.17-0.07-0.16-0.2c0-0.11,0.06-0.18,0.16-0.18
	S12.51,24.57,12.51,24.7z"/>
<path class="st0" d="M3.38,1.55c0.12,0,0.23,0,0.35,0c0.05,0,0.09,0.02,0.09,0.07c-0.12,0-0.23,0-0.35,0
	C3.42,1.63,3.39,1.61,3.38,1.55z"/>
<path class="st0" d="M19.53,25.05c-0.01-0.06,0-0.12,0.07-0.17c0,0.24,0,0.46,0,0.68c-0.07-0.09-0.02-0.19-0.03-0.29
	C19.55,25.21,19.59,25.12,19.53,25.05z"/>
<path class="st0" d="M1,1.2c0,0,0,0.01-0.01,0.02C0.83,1.35,0.83,1.35,0.84,1.59C0.75,1.48,0.79,1.35,0.81,1.24
	C0.83,1.15,0.93,1.2,1,1.2z"/>
<path class="st0" d="M1.35,19.04c0.09-0.01,0.17-0.01,0.24,0.04C1.5,19.13,1.41,19.17,1.35,19.04z"/>
<path class="st0" d="M24.02,25.34c-0.06-0.1-0.02-0.21-0.03-0.32c0-0.03,0.02-0.05,0.05-0.03c0.03,0.02,0.02,0.04,0.02,0.07
	C23.99,25.14,24.05,25.25,24.02,25.34z"/>
<path class="st0" d="M7.45,19.11c0.04-0.12,0.13-0.06,0.21-0.07C7.62,19.16,7.52,19.11,7.45,19.11z"/>
<path class="st0" d="M10.59,8.76c-0.12-0.27-0.15-0.56-0.23-0.83C10.09,6.95,9.8,5.99,9.32,5.1c-0.2-0.35-0.39-0.7-0.63-1.03
	c-0.26-0.36-0.53-0.7-0.85-1c-0.28-0.26-0.57-0.5-0.88-0.72C6.8,2.23,6.64,2.12,6.47,2.01C6.79,2.09,7.11,2.12,7.4,2.28
	C7.59,2.39,7.82,2.42,8,2.53C8.3,2.69,8.63,2.8,8.9,3.02c0.16,0.13,0.34,0.22,0.5,0.34c0.24,0.17,0.45,0.36,0.66,0.56
	c0.26,0.26,0.51,0.53,0.71,0.84C10.92,5,11.06,5.24,11.2,5.48c0.15,0.29,0.28,0.58,0.4,0.88C11.2,7.14,10.86,7.93,10.59,8.76z"/>
<path class="st0" d="M17.34,11.15c0.09,0.15,0.1,0.33,0.14,0.49c0.17,0.67,0.37,1.32,0.58,1.97c0.19,0.56,0.41,1.12,0.68,1.65
	c0.16,0.32,0.35,0.63,0.57,0.93c0.31,0.44,0.67,0.83,1.05,1.19c0.2,0.19,0.4,0.38,0.64,0.52c0.13,0.07,0.23,0.19,0.37,0.26
	c0.01,0.01,0.01,0.04,0.02,0.08c-0.23-0.07-0.45-0.1-0.65-0.21c-0.13-0.07-0.28-0.11-0.42-0.18c-0.33-0.17-0.67-0.33-0.97-0.56
	c-0.18-0.14-0.38-0.26-0.55-0.41c-0.23-0.19-0.42-0.41-0.63-0.62c-0.29-0.29-0.52-0.61-0.76-0.94c-0.26-0.36-0.49-0.75-0.69-1.15
	c-0.09-0.18-0.18-0.35-0.28-0.52c0.08-0.2,0.16-0.4,0.25-0.6c0.19-0.44,0.31-0.9,0.46-1.36C17.22,11.52,17.28,11.33,17.34,11.15z"/>
<path class="st0" d="M16.45,7.28c-0.01-0.18,0.08-0.33,0.13-0.49c0.15-0.44,0.35-0.85,0.61-1.24c0.28-0.41,0.59-0.79,0.95-1.13
	c0.26-0.24,0.53-0.46,0.81-0.68c0.26-0.21,0.55-0.38,0.83-0.56c0.21-0.13,0.42-0.27,0.66-0.34c0.05-0.02,0.1-0.08,0.16-0.01
	c-0.2,0.22-0.44,0.38-0.64,0.59c-0.39,0.41-0.74,0.86-1.03,1.34c-0.22,0.37-0.42,0.75-0.59,1.14c-0.24,0.53-0.42,1.08-0.59,1.63
	c-0.19,0.6-0.32,1.21-0.48,1.82c0,0.01-0.02,0.02-0.03,0.03c-0.11-0.07-0.12-0.2-0.15-0.31c-0.18-0.55-0.37-1.1-0.61-1.63
	C16.47,7.4,16.45,7.34,16.45,7.28z"/>
<path class="st0" d="M15.02,10.27c-0.01,0.16-0.08,0.31-0.12,0.46c-0.2,0.7-0.42,1.4-0.67,2.09c-0.06,0.17-0.12,0.34-0.21,0.49
	c-0.09,0-0.1-0.07-0.13-0.13c-0.36-0.76-0.59-1.57-0.81-2.38c-0.02-0.07-0.02-0.14-0.02-0.22c0.06-0.36,0.18-0.7,0.28-1.05
	c0.18-0.59,0.42-1.17,0.65-1.74c0.03-0.08,0.05-0.18,0.14-0.23c0.14,0.01,0.15,0.14,0.18,0.23c0.2,0.5,0.33,1.02,0.47,1.53
	c0.08,0.29,0.2,0.57,0.24,0.88C15.03,10.22,15.04,10.25,15.02,10.27z"/>
<path class="st0" d="M16.26,13.98c0.13,0.16,0.2,0.36,0.3,0.54c0.16,0.3,0.34,0.58,0.52,0.86c0.22,0.33,0.45,0.65,0.71,0.94
	c0.14,0.16,0.29,0.32,0.45,0.48c0.35,0.34,0.75,0.62,1.13,0.92c0.12,0.09,0.26,0.15,0.38,0.24c-0.28-0.03-0.55-0.09-0.81-0.18
	c-0.35-0.12-0.71-0.24-1.05-0.4c-0.21-0.1-0.42-0.19-0.62-0.31c-0.37-0.22-0.74-0.44-1.06-0.72c-0.31-0.28-0.63-0.56-0.86-0.92
	c-0.01-0.02-0.04-0.03-0.06-0.05c0.09-0.21,0.27-0.36,0.4-0.54C15.88,14.55,16.06,14.26,16.26,13.98z"/>
<path class="st0" d="M12.91,15.13c-0.03,0.08-0.09,0.14-0.14,0.21c-0.31,0.36-0.65,0.68-1.01,0.99c-0.14,0.12-0.29,0.23-0.44,0.32
	c-0.31,0.19-0.62,0.38-0.96,0.54c-0.38,0.18-0.78,0.32-1.18,0.44c-0.04,0.01-0.07,0.02-0.1,0.05c-0.02,0.03-0.08,0.05-0.1,0
	C8.96,17.64,9,17.6,9.03,17.59c0.23-0.11,0.4-0.3,0.59-0.46c0.32-0.27,0.62-0.56,0.87-0.9c0.11-0.14,0.23-0.27,0.33-0.42
	c0.39-0.53,0.72-1.1,0.97-1.72c0.05-0.13,0.11-0.25,0.17-0.38c0.08-0.01,0.1,0.05,0.13,0.1c0.23,0.4,0.48,0.79,0.77,1.15
	C12.88,15.03,12.91,15.08,12.91,15.13z"/>
<path class="st0" d="M11.8,6.01c-0.16-0.41-0.37-0.8-0.6-1.18c-0.24-0.39-0.52-0.76-0.85-1.09C10.1,3.5,9.84,3.27,9.56,3.06
	c-0.39-0.29-0.8-0.52-1.23-0.74C8.06,2.18,7.78,2.07,7.5,1.97C7.41,1.94,7.36,1.88,7.28,1.85c0.19-0.04,0.29-0.01,0.46,0.06
	c0.17,0.07,0.35,0.11,0.53,0.15c0.49,0.11,0.95,0.32,1.4,0.53c0.4,0.18,0.79,0.41,1.17,0.65c0.32,0.21,0.64,0.45,0.91,0.71
	c0.32,0.3,0.65,0.59,0.88,0.98c-0.24,0.28-0.48,0.56-0.67,0.87C11.92,5.87,11.88,5.96,11.8,6.01z"/>
<path class="st0" d="M15.48,10.8c0.16-0.57,0.32-1.14,0.47-1.71c0.11-0.4,0.21-0.8,0.31-1.2c0.01-0.06,0.01-0.12,0.06-0.16
	c0.15,0.09,0.16,0.27,0.22,0.41c0.2,0.46,0.35,0.94,0.49,1.42c0.03,0.09,0.05,0.18,0.03,0.27c-0.1,0.06-0.14-0.03-0.2-0.07
	c-0.24-0.18-0.37-0.19-0.56-0.02c-0.19,0.16-0.24,0.38-0.14,0.58c0.1,0.18,0.34,0.26,0.57,0.19c0.06-0.02,0.12-0.06,0.19-0.04
	c-0.04,0.26-0.14,0.49-0.21,0.74c-0.12,0.42-0.25,0.83-0.39,1.24c-0.05,0.14-0.11,0.28-0.16,0.42c-0.11-0.01-0.11-0.1-0.14-0.17
	c-0.2-0.54-0.36-1.1-0.53-1.65C15.47,10.97,15.48,10.89,15.48,10.8z"/>
<path class="st0" d="M14.32,7.06c0.22-0.47,0.48-0.91,0.76-1.34c0.02-0.04,0.05-0.08,0.09-0.1c0.18,0.06,0.21,0.24,0.31,0.37
	c0.18,0.23,0.3,0.49,0.43,0.75c0.02,0.05,0.04,0.1,0.03,0.15c-0.16,0.61-0.32,1.23-0.48,1.84c-0.07,0.25-0.14,0.5-0.2,0.75
	c-0.01,0.05-0.02,0.11-0.08,0.13c-0.13-0.02-0.13-0.13-0.16-0.22c-0.16-0.63-0.36-1.24-0.57-1.85C14.39,7.38,14.27,7.24,14.32,7.06z
	"/>
<path class="st0" d="M15.38,5.34c0.26-0.31,0.52-0.61,0.82-0.88c0.29-0.26,0.59-0.52,0.91-0.75c0.33-0.24,0.67-0.45,1.03-0.65
	c0.29-0.16,0.6-0.27,0.89-0.4c0.19-0.09,0.39-0.15,0.59-0.22c0.05-0.02,0.1-0.03,0.17-0.01c-0.15,0.1-0.28,0.2-0.42,0.28
	c-0.32,0.18-0.62,0.39-0.9,0.63c-0.15,0.13-0.31,0.24-0.46,0.37c-0.21,0.18-0.41,0.38-0.6,0.58c-0.23,0.25-0.44,0.52-0.63,0.81
	c-0.17,0.26-0.32,0.53-0.46,0.81c-0.09,0.18-0.16,0.36-0.25,0.54c-0.08,0.01-0.11-0.05-0.13-0.1c-0.16-0.3-0.35-0.58-0.54-0.86
	C15.38,5.44,15.36,5.39,15.38,5.34z"/>
<path class="st0" d="M11.6,13.02c-0.09,0.34-0.25,0.65-0.39,0.97c-0.19,0.44-0.43,0.85-0.67,1.25c-0.09,0.15-0.2,0.28-0.31,0.41
	c-0.26,0.31-0.53,0.6-0.83,0.87c-0.24,0.22-0.5,0.42-0.76,0.61c-0.04,0.03-0.08,0.07-0.16,0.05c0.07-0.13,0.18-0.22,0.28-0.32
	c0.38-0.4,0.67-0.86,0.93-1.34c0.2-0.37,0.38-0.75,0.54-1.14c0.22-0.53,0.37-1.07,0.52-1.62c0.09-0.33,0.16-0.67,0.28-0.99
	c0.05-0.01,0.08,0.02,0.09,0.06c0.14,0.37,0.33,0.73,0.47,1.1C11.6,12.97,11.61,13,11.6,13.02z"/>
<path class="st0" d="M12.11,13.37c0.1-0.35,0.24-0.68,0.36-1.02c0.15-0.4,0.28-0.8,0.41-1.21c0.11,0.01,0.11,0.1,0.13,0.18
	c0.22,0.75,0.47,1.49,0.79,2.2c0.03,0.06,0.04,0.11,0.03,0.17c-0.2,0.41-0.43,0.82-0.73,1.17c-0.26-0.13-0.35-0.4-0.52-0.61
	s-0.28-0.46-0.43-0.69C12.12,13.5,12.11,13.44,12.11,13.37z"/>
<path class="st0" d="M11.19,11.23c0.04-0.22,0.1-0.44,0.18-0.65c0.04-0.03,0.09-0.03,0.13-0.03c0.19-0.02,0.36-0.07,0.41-0.28
	s0.04-0.41-0.16-0.55c-0.05-0.04-0.12-0.06-0.12-0.14c0.1-0.33,0.21-0.67,0.32-1c0.05-0.16,0.1-0.33,0.19-0.47
	c0.08,0.05,0.09,0.13,0.11,0.2c0.11,0.42,0.21,0.84,0.31,1.25C12.6,9.7,12.63,9.84,12.62,10c-0.23,0.88-0.53,1.74-0.84,2.6
	c-0.09,0.02-0.11-0.05-0.14-0.11c-0.16-0.34-0.3-0.69-0.43-1.05C11.18,11.37,11.19,11.3,11.19,11.23z"/>
<path class="st0" d="M14.37,13.98c0.36-0.76,0.62-1.55,0.86-2.36c0.03-0.09,0.07-0.18,0.08-0.28c0.08,0.02,0.09,0.09,0.11,0.15
	c0.17,0.54,0.34,1.07,0.53,1.6c0.02,0.06,0.03,0.11,0.03,0.18c-0.2,0.42-0.45,0.79-0.73,1.16c-0.1,0.14-0.19,0.3-0.34,0.4
	C14.64,14.59,14.45,14.32,14.37,13.98z"/>
<path class="st0" d="M12.34,7.62c0.14-0.35,0.33-0.69,0.52-1.02c0.14-0.24,0.3-0.46,0.49-0.66c0.03-0.01,0.06,0,0.07,0.02
	c0.14,0.25,0.33,0.49,0.4,0.78c-0.04,0.19-0.14,0.36-0.21,0.53c-0.27,0.64-0.52,1.29-0.75,1.95c-0.02,0.05-0.03,0.1-0.04,0.15
	c-0.1-0.01-0.11-0.1-0.13-0.17c-0.12-0.45-0.21-0.9-0.35-1.34C12.31,7.77,12.31,7.69,12.34,7.62z"/>
<path class="st0" d="M15.09,15.61c0.26,0.33,0.54,0.64,0.86,0.92c0.32,0.28,0.67,0.52,1.04,0.73c0.51,0.29,1.04,0.53,1.58,0.73
	c0.34,0.13,0.69,0.22,1.04,0.29c0.11,0.02,0.2,0.09,0.31,0.12c-0.02,0.09-0.07,0.05-0.12,0.03c-0.21,0-0.4-0.06-0.59-0.12
	c-0.29-0.08-0.6-0.11-0.89-0.2c-0.38-0.12-0.77-0.23-1.13-0.39c-0.26-0.12-0.54-0.2-0.79-0.35c-0.23-0.14-0.48-0.23-0.7-0.36
	c-0.34-0.21-0.67-0.43-1-0.65c-0.07-0.05-0.13-0.13-0.2-0.19C14.71,16.01,14.86,15.77,15.09,15.61z"/>
<path class="st0" d="M12.87,4.66C12.58,4.33,12.3,4,11.97,3.71c-0.26-0.23-0.53-0.45-0.82-0.65c-0.4-0.29-0.81-0.53-1.26-0.73
	C9.76,2.27,9.65,2.18,9.5,2.12c0.21-0.04,0.41,0.03,0.58,0.11c0.21,0.09,0.43,0.16,0.65,0.23c0.39,0.14,0.77,0.31,1.14,0.48
	c0.4,0.19,0.77,0.42,1.14,0.65c0.19,0.12,0.38,0.27,0.57,0.39c0,0.03,0,0.06-0.02,0.07C13.31,4.23,13.12,4.48,12.87,4.66z"/>
<path class="st0" d="M13.74,16.04c-0.24,0.16-0.45,0.34-0.68,0.5c-0.41,0.28-0.84,0.53-1.3,0.72c-0.1,0.04-0.18,0.13-0.29,0.16
	c-0.06,0.02-0.11,0.04-0.19,0.01c0.14-0.1,0.26-0.2,0.39-0.28c0.27-0.17,0.52-0.38,0.74-0.6c0.11-0.11,0.22-0.21,0.33-0.31
	c0.2-0.19,0.35-0.43,0.56-0.61C13.53,15.68,13.67,15.83,13.74,16.04z"/>
<path class="st0" d="M13.84,13.7c-0.37-0.76-0.64-1.55-0.87-2.36c-0.02-0.07-0.02-0.15-0.08-0.19c0.06-0.19,0.1-0.38,0.19-0.56
	c0.11,0.36,0.21,0.73,0.32,1.09c0.14,0.45,0.28,0.9,0.49,1.33c0.05,0.1,0.05,0.22,0.14,0.3C13.99,13.45,13.93,13.58,13.84,13.7z"/>
<path class="st0" d="M14.32,7.06c0.04,0.2,0.15,0.38,0.22,0.57c0.2,0.55,0.36,1.11,0.52,1.67c0.03,0.11,0.04,0.22,0.12,0.3
	c0.03,0.07,0.02,0.14-0.01,0.2c-0.06,0.15-0.07,0.32-0.15,0.46c-0.13-0.46-0.27-0.91-0.4-1.37c-0.12-0.41-0.22-0.83-0.39-1.22
	c-0.02-0.05-0.03-0.1-0.09-0.12C14.14,7.37,14.27,7.23,14.32,7.06z"/>
<path class="st0" d="M14.69,15.09c-0.2,0.27-0.43,0.51-0.71,0.71c-0.23-0.08-0.36-0.26-0.46-0.46c0.18-0.29,0.4-0.56,0.56-0.88
	c0.02-0.04,0.04-0.1,0.09-0.12c0.16,0.06,0.19,0.23,0.27,0.34C14.55,14.81,14.66,14.93,14.69,15.09z"/>
<path class="st0" d="M11.63,9.56c0.21,0.13,0.39,0.28,0.37,0.57c-0.02,0.26-0.19,0.44-0.45,0.46c-0.06,0-0.12-0.01-0.18-0.01
	c-0.29-0.1-0.41-0.29-0.37-0.59c0.04-0.23,0.3-0.43,0.55-0.43C11.58,9.56,11.61,9.56,11.63,9.56z"/>
<path class="st0" d="M16.93,10.47c-0.17,0.1-0.34,0.16-0.54,0.09c-0.19-0.07-0.29-0.2-0.32-0.39c-0.02-0.17,0.02-0.32,0.15-0.45
	c0.11-0.1,0.22-0.18,0.38-0.16c0.09,0.01,0.17,0.04,0.24,0.1s0.12,0.14,0.21,0.18c0.03,0.02,0.07,0.03,0.03,0.07
	c-0.05,0.06,0,0.12,0,0.18C17.06,10.23,17.02,10.36,16.93,10.47z"/>
<path class="st0" d="M13.58,5.66c0.31-0.28,0.6-0.58,0.96-0.8c0.14,0.04,0.25,0.1,0.24,0.27c-0.25,0.35-0.5,0.7-0.69,1.08
	c-0.03,0.06-0.07,0.11-0.11,0.16c-0.01,0-0.02,0-0.02,0C13.78,6.17,13.63,5.94,13.58,5.66z"/>
<path class="st0" d="M17.08,9.91c-0.01-0.02-0.02-0.05-0.03-0.07c-0.17-0.73-0.44-1.42-0.72-2.11c0.02-0.15,0.04-0.31,0.12-0.45
	c0.13,0.17,0.19,0.37,0.27,0.57c0.21,0.5,0.38,1.02,0.53,1.55C17.21,9.57,17.2,9.76,17.08,9.91z"/>
<path class="st0" d="M15.97,13.26c-0.13-0.27-0.22-0.56-0.31-0.84c-0.13-0.36-0.21-0.73-0.35-1.08c0.06-0.18,0.12-0.36,0.17-0.54
	c0.17,0.55,0.33,1.1,0.51,1.64c0.05,0.15,0.08,0.31,0.18,0.43C16.09,12.99,16.07,13.15,15.97,13.26z"/>
<path class="st0" d="M12.34,7.62c0.14,0.56,0.28,1.12,0.42,1.67c0.01,0.03,0.04,0.05,0.06,0.08c-0.09,0.2-0.13,0.42-0.19,0.63
	c-0.13-0.51-0.26-1.02-0.39-1.52c-0.03-0.13-0.06-0.26-0.09-0.38C12.2,7.93,12.25,7.76,12.34,7.62z"/>
<path class="st0" d="M12.11,13.37c0.31,0.51,0.61,1.03,1,1.49c-0.03,0.12-0.11,0.2-0.2,0.27c-0.36-0.42-0.65-0.88-0.91-1.36
	c-0.01-0.02-0.03-0.03-0.04-0.04C12.01,13.62,12.04,13.49,12.11,13.37z"/>
<path class="st0" d="M11.19,11.23c0.11,0.29,0.21,0.58,0.32,0.86c0.06,0.15,0.13,0.3,0.19,0.45c0.01,0.03,0.04,0.05,0.07,0.06
	c-0.07,0.14-0.08,0.3-0.18,0.43c-0.17-0.31-0.3-0.65-0.44-0.98c-0.04-0.09-0.05-0.19-0.12-0.26C11.06,11.59,11.11,11.4,11.19,11.23z
	"/>
<path class="st0" d="M15.38,5.34c0.25,0.36,0.48,0.74,0.71,1.11c-0.02,0.16-0.11,0.29-0.15,0.44c-0.22-0.44-0.47-0.87-0.76-1.27
	C15.24,5.52,15.31,5.43,15.38,5.34z"/>
<path class="st0" d="M14.69,15.09c-0.2-0.23-0.34-0.5-0.51-0.76c0.06-0.12,0.09-0.26,0.19-0.36c0.15,0.3,0.34,0.57,0.54,0.85
	C14.9,14.97,14.78,15.02,14.69,15.09z"/>
<path class="st0" d="M13.58,5.66c0.12,0.25,0.26,0.49,0.41,0.72c-0.04,0.12-0.07,0.25-0.17,0.35c-0.14-0.18-0.22-0.4-0.34-0.59
	C13.44,6.08,13.4,6,13.35,5.93C13.43,5.85,13.47,5.72,13.58,5.66z"/>
<path class="st0" d="M13.53,15.34c0.15,0.16,0.29,0.32,0.46,0.46c-0.09,0.07-0.13,0.19-0.24,0.24c-0.12-0.16-0.27-0.3-0.44-0.41
	C13.37,15.53,13.43,15.42,13.53,15.34z"/>
<path class="st0" d="M14.82,4.66c0.23-0.14,0.43-0.32,0.69-0.43c-0.13,0.25-0.36,0.42-0.52,0.64C14.85,4.86,14.8,4.78,14.82,4.66z"
	/>
<path class="st0" d="M14.82,4.66c0.04,0.08,0.09,0.16,0.16,0.21c-0.09,0.07-0.11,0.2-0.2,0.27c-0.05-0.12-0.15-0.19-0.24-0.27
	C14.64,4.81,14.7,4.7,14.82,4.66z"/>
<path class="st0" d="M19.8,18.44c0.04-0.01,0.09,0.01,0.12-0.03c0.07-0.01,0.12,0.03,0.18,0.06C19.99,18.47,19.89,18.5,19.8,18.44z"
	/>
<path class="st0" d="M26.01,26.16c0-0.06,0-0.11,0-0.17c0.01-0.07-0.04-0.2,0.03-0.22c0.11-0.04,0.26-0.06,0.37,0.03
	c0.02,0.02,0.05,0.02,0.07,0.03c0.21,0.1,0.3,0.23,0.24,0.43c-0.06,0.21-0.1,0.28-0.38,0.31c-0.33,0.04-0.33,0.04-0.33-0.26
	C26.01,26.25,26.01,26.21,26.01,26.16z"/>
<path class="st0" d="M26.01,25.11c0-0.04,0-0.08,0-0.12c0-0.26,0.01-0.27,0.27-0.25c0.15,0.01,0.3,0.04,0.36,0.2
	c0.07,0.17,0,0.32-0.11,0.46c-0.06,0.07-0.38,0.13-0.48,0.09C26,25.47,26,25.43,26,25.39C26.01,25.29,26.01,25.2,26.01,25.11z"/>
<path class="st0" d="M15.3,25.41c0.16,0.06,0.24,0.18,0.24,0.35c0,0.14,0.01,0.28,0,0.42c-0.04,0.38-0.36,0.48-0.59,0.32
	c-0.03-0.02-0.06-0.04-0.08-0.08c-0.12-0.23-0.15-0.48-0.08-0.73c0.04-0.13,0.12-0.23,0.26-0.28C15.14,25.36,15.22,25.36,15.3,25.41
	z"/>
<path class="st0" d="M15.3,25.41c-0.08,0-0.16,0-0.25,0C15.14,25.3,15.22,25.3,15.3,25.41z"/>
<path class="st0" d="M4.9,25.41c0.18,0.07,0.25,0.21,0.24,0.39c-0.01,0.2,0.03,0.4-0.08,0.6c-0.1,0.18-0.41,0.24-0.58,0.05
	c-0.16-0.19-0.19-0.62-0.07-0.85c0.05-0.1,0.12-0.17,0.24-0.19C4.74,25.36,4.82,25.36,4.9,25.41z"/>
<path class="st0" d="M4.9,25.41c-0.08,0-0.16,0-0.25,0C4.74,25.3,4.82,25.3,4.9,25.41z"/>
<path class="st0" d="M14.17,22.68c-0.17,0-0.29-0.1-0.34-0.28c-0.04-0.14,0.03-0.34,0.14-0.41c0.03-0.02,0.06-0.03,0.09,0
	c0.13,0.16,0.26,0.31,0.39,0.47c0.03,0.03,0,0.05-0.02,0.08C14.37,22.66,14.27,22.67,14.17,22.68z"/>
<path class="st0" d="M14.11,21.7c-0.12-0.17-0.15-0.32-0.06-0.5c0.04-0.07,0.09-0.09,0.16-0.09c0.06,0,0.1,0.03,0.13,0.09
	C14.43,21.41,14.37,21.55,14.11,21.7z"/>
<path class="st0" d="M17.21,21.83c0.01-0.22,0.07-0.48,0.34-0.65c0.1-0.06,0.25-0.07,0.35,0.01c0.44,0.34,0.47,1.03,0.06,1.4
	c-0.11,0.1-0.37,0.08-0.48-0.01C17.27,22.4,17.2,22.17,17.21,21.83z"/>
<path class="st0" d="M8.73,25.81c-0.09,0-0.17,0-0.26,0s-0.12-0.02-0.1-0.12c0.04-0.16,0.15-0.26,0.27-0.35
	c0.07-0.06,0.22-0.01,0.3,0.06c0.09,0.08,0.16,0.16,0.18,0.28c0.01,0.09,0,0.14-0.11,0.13C8.92,25.81,8.83,25.81,8.73,25.81z"/>
<path class="st0" d="M10.25,25.81c-0.07,0-0.15,0-0.22,0c-0.16,0-0.18-0.03-0.12-0.19c0.04-0.12,0.14-0.19,0.23-0.27
	c0.06-0.05,0.16-0.05,0.23-0.01c0.13,0.08,0.24,0.18,0.26,0.35c0.01,0.08-0.01,0.13-0.1,0.12C10.43,25.81,10.34,25.81,10.25,25.81z"
	/>
<path class="st0" d="M7.63,21.83c-0.16,0-0.16,0-0.17-0.16c0-0.14,0-0.28,0-0.42c0-0.07,0.03-0.1,0.11-0.11
	c0.23-0.02,0.44,0.1,0.47,0.29C8.08,21.68,7.93,21.83,7.63,21.83z"/>
<path class="st0" d="M26.19,21.49c0-0.03,0-0.07,0-0.1c0.01-0.08-0.04-0.21,0.05-0.23c0.12-0.03,0.25-0.06,0.37,0.05
	c0.15,0.14,0.2,0.24,0.15,0.39c-0.04,0.13-0.16,0.21-0.34,0.22c-0.03,0-0.05,0-0.08,0c-0.11,0.01-0.16-0.02-0.15-0.14
	C26.2,21.62,26.19,21.56,26.19,21.49z"/>
<path class="st0" d="M11.13,21.25c0.08,0.29,0.15,0.54,0.23,0.8c-0.16,0-0.3,0-0.46,0C10.96,21.78,11.04,21.54,11.13,21.25z"/>
<path class="st0" d="M20.91,21.53c0-0.05,0-0.11,0-0.16c0.01-0.07-0.04-0.18,0.05-0.21c0.09-0.03,0.2-0.04,0.29,0
	c0.2,0.09,0.28,0.28,0.22,0.49c-0.05,0.18-0.26,0.3-0.46,0.27c-0.07-0.01-0.1-0.04-0.1-0.11C20.92,21.72,20.91,21.62,20.91,21.53z"
	/>
<path class="st0" d="M13.58,10.07c0.01-0.28,0.25-0.52,0.52-0.51s0.5,0.26,0.49,0.54c0,0.3-0.23,0.5-0.53,0.49
	C13.76,10.57,13.57,10.37,13.58,10.07z"/>
</svg>
