<?xml version="1.0" encoding="utf-8"?>
<!-- Generator: Adobe Illustrator 24.2.3, SVG Export Plug-In . SVG Version: 6.00 Build 0)  -->
<svg version="1.1" id="Layer_1" xmlns="http://www.w3.org/2000/svg" xmlns:xlink="http://www.w3.org/1999/xlink" x="0px" y="0px"
	 viewBox="0 0 16 16" style="enable-background:new 0 0 16 16;" xml:space="preserve">
<style type="text/css">
	.st0{fill:#FEFEFE;}
	.st1{fill:#C7CAD5;}
</style>
<path class="st0" d="M4.09,10.25c1.14,0,2.29,0,3.43,0c0.02,0,0.04,0,0.06,0c0.06,0,0.08,0.02,0.07,0.09
	c-0.02,0.11-0.02,0.23-0.03,0.34c0,0.04,0,0.07-0.05,0.08c-0.02,0.03-0.05,0.01-0.08,0.01c-1.11,0-2.21,0-3.32,0
	c-0.07,0-0.14,0-0.2-0.05c-0.18-0.17-0.16-0.34,0.05-0.46C4.05,10.24,4.07,10.24,4.09,10.25z"/>
<g>
	<path class="st1" d="M3.45,1.36c0.02,0.03,0.02,0.05,0.02,0.08c0,0.59,0,1.18,0,1.77c0,0.1,0,0.11-0.11,0.11c-0.6,0-1.19,0-1.79,0
		c-0.02,0-0.05,0.01-0.07-0.01c0.13-0.13,0.26-0.26,0.39-0.39c0.5-0.5,1-1,1.5-1.51C3.41,1.39,3.43,1.38,3.45,1.36z"/>
	<path class="st1" d="M14.44,10.52c-0.04-0.18-0.08-0.36-0.15-0.53C14.17,9.67,14,9.37,13.8,9.09c-0.2-0.28-0.45-0.51-0.72-0.71
		c-0.21-0.16-0.44-0.28-0.69-0.39c-0.23-0.1-0.46-0.18-0.71-0.22c-0.12-0.02-0.25-0.02-0.37-0.07c-0.02,0-0.03,0-0.04,0.01
		c-0.27,0-0.53,0-0.8,0.04C9.96,7.84,9.49,8.03,9.06,8.33c-0.15,0.1-0.28,0.23-0.43,0.34c-0.1,0.05-0.15,0.15-0.23,0.22
		C8.29,9,8.19,9.14,8.1,9.28C8.05,9.38,7.98,9.41,7.87,9.41c-0.94,0-1.87,0-2.81,0c-0.48,0-0.95,0-1.43,0
		c-0.05,0-0.11-0.01-0.15,0.03c0.03,0.05,0.09,0.02,0.13,0.02c1.43,0,2.85,0,4.28,0c0.01,0,0.03,0,0.04,0
		c0.05,0,0.07,0.02,0.05,0.07C7.96,9.55,7.95,9.56,7.95,9.58C7.92,9.65,7.89,9.72,7.86,9.79c-0.11,0.25-0.18,0.51-0.24,0.78
		c-0.02,0.01-0.04,0.01-0.05,0.01c-0.4,0-0.79,0-1.19,0c-0.94,0-1.88,0-2.82,0c-0.03,0-0.07-0.02-0.07,0.03
		c0.05,0.04,0.11,0.03,0.17,0.03c1.25,0,2.5,0,3.75,0c0.04,0,0.08,0,0.11,0c0.03,0,0.05,0.02,0.05,0.05
		C7.56,10.85,7.56,11,7.52,11.16C7.5,11.2,7.55,11.2,7.57,11.23c0.02,0.11,0.01,0.22,0.02,0.34c0.06,0.56,0.25,1.07,0.56,1.54
		c0.08,0.13,0.19,0.24,0.27,0.37c0.03,0.02,0.05,0.04,0.08,0.07c0.21,0.25,0.48,0.44,0.76,0.61c0.25,0.16,0.51,0.26,0.79,0.35
		c0.3,0.09,0.6,0.13,0.91,0.14c0.36,0.01,0.7-0.04,1.04-0.14c0.3-0.09,0.58-0.21,0.84-0.38c0.16-0.1,0.31-0.22,0.46-0.34
		c0.24-0.2,0.44-0.43,0.61-0.69c0.15-0.24,0.28-0.49,0.38-0.76c0.11-0.31,0.18-0.64,0.19-0.97C14.51,11.08,14.49,10.8,14.44,10.52z
		 M12.68,11.09c-0.11,0.11-0.29,0.12-0.41,0c-0.28-0.28-0.56-0.56-0.85-0.84c-0.02-0.02-0.04-0.06-0.08-0.07
		c-0.02,0.04-0.01,0.07-0.01,0.1c0,0.87,0,1.74,0,2.61c0,0.18-0.12,0.31-0.28,0.31c-0.19,0-0.3-0.11-0.3-0.31c0-0.87,0-1.74,0-2.61
		c0-0.03,0-0.06,0-0.1c-0.05,0-0.07,0.04-0.09,0.06c-0.28,0.28-0.56,0.56-0.84,0.84c-0.11,0.1-0.27,0.12-0.38,0.04
		c-0.1-0.07-0.15-0.23-0.1-0.35c0.02-0.06,0.07-0.1,0.12-0.15c0.43-0.44,0.87-0.87,1.31-1.3c0.05-0.05,0.1-0.1,0.16-0.13
		c0.11-0.06,0.24-0.04,0.34,0.06c0.48,0.48,0.96,0.95,1.43,1.43C12.79,10.79,12.79,10.98,12.68,11.09z"/>
	<path class="st1" d="M11.18,1.37c-0.68,0-1.36,0-2.04,0c-0.03,0-0.07,0.01-0.1-0.01c-0.02,0-0.04,0-0.07,0c-1.7,0-3.4,0-5.1,0
		c-0.03,0-0.06-0.01-0.08,0.02C3.79,1.42,3.79,1.46,3.79,1.5c0,0.67,0,1.34,0,2.01c0,0.12-0.02,0.15-0.14,0.14
		c-0.13-0.01-0.25,0-0.38,0c-0.54,0-1.08,0-1.62,0c-0.04,0-0.09,0-0.13,0.01C1.49,3.7,1.51,3.74,1.51,3.78c0,3.2,0,6.39,0,9.59
		c0,0.1,0.03,0.11,0.12,0.11c2.24,0,4.47,0,6.71,0c0.03,0,0.06,0,0.09,0c0.02-0.04,0-0.06-0.03-0.08c-0.07-0.07-0.13-0.16-0.19-0.25
		c-0.38-0.55-0.59-1.15-0.61-1.82c0-0.04,0-0.09-0.04-0.12c-0.06-0.03-0.12-0.02-0.18-0.02c-1.25,0-2.49,0-3.74,0
		c-0.08,0-0.15,0-0.22-0.03c-0.02-0.02-0.05-0.04-0.07-0.07c-0.13-0.15-0.11-0.31,0.04-0.42c0.03-0.02,0.05-0.04,0.07-0.06
		c0.06-0.03,0.13-0.01,0.19-0.01c1.27,0,2.55,0,3.82,0c0.04,0,0.08,0,0.11,0c0.06-0.01,0.06-0.06,0.07-0.11
		c0.04-0.19,0.1-0.36,0.16-0.54C7.87,9.81,7.94,9.7,7.97,9.57c0.02-0.12,0.01-0.13-0.13-0.13c-1.44,0-2.88-0.01-4.31,0.01
		c-0.01,0-0.02-0.01-0.03-0.01c0,0-0.01,0-0.01,0C3.45,9.44,3.42,9.42,3.39,9.4C3.38,9.39,3.36,9.39,3.35,9.38
		C3.31,9.35,3.27,9.3,3.25,9.24c0,0,0,0,0-0.01c0,0,0,0,0,0c0,0,0-0.01,0-0.01c-0.02-0.09,0-0.17,0.05-0.24c0,0,0-0.01,0.01-0.02
		c0.01-0.01,0.01-0.02,0.01-0.02c0.05-0.06,0.12-0.07,0.2-0.08c0.01,0,0.01-0.01,0.03-0.01c0.04,0,0.08,0,0.12,0
		c1.49,0,2.97,0,4.46,0c0.19,0,0.37,0,0.5-0.17c0.05-0.01,0.09-0.05,0.13-0.08c0.41-0.37,0.88-0.62,1.41-0.76
		c0.32-0.09,0.65-0.12,0.99-0.11c0.05,0,0.11,0.02,0.14-0.04c0.01-0.03,0.01-0.07,0.01-0.1c0-2.04,0-4.07,0-6.11
		C11.3,1.37,11.3,1.37,11.18,1.37z M5.65,3.73C5.69,3.7,5.74,3.69,5.79,3.67c0.07-0.02,0.15-0.01,0.22-0.01c1.09,0,2.17,0,3.26,0
		c0.03,0,0.07-0.01,0.1,0.01c0.18,0.07,0.26,0.21,0.22,0.37c-0.03,0.12-0.13,0.2-0.26,0.21c-0.05,0-0.09,0-0.14,0
		c-1.11,0-2.22,0-3.33,0c-0.15,0-0.24-0.06-0.28-0.18C5.52,3.94,5.55,3.82,5.65,3.73z M9.36,7.7C9.32,7.71,9.28,7.72,9.24,7.72
		c-1.88,0-3.76,0-5.65,0c-0.08,0-0.16-0.01-0.23-0.05c-0.1-0.07-0.15-0.2-0.12-0.31c0.03-0.12,0.14-0.21,0.27-0.22
		c0.04,0,0.08,0,0.12,0c0.93,0,1.86,0,2.79,0c0.93,0,1.87,0,2.8,0c0.12,0,0.23,0.01,0.31,0.12C9.66,7.43,9.57,7.66,9.36,7.7z
		 M9.3,5.98c-0.11,0-0.23,0-0.34,0c-1.79,0-3.59,0-5.38,0c-0.09,0-0.18-0.01-0.24-0.08c-0.09-0.08-0.12-0.18-0.08-0.3
		C3.29,5.49,3.38,5.42,3.51,5.4c0.04,0,0.08,0,0.11,0c0.93,0,1.87,0,2.8,0c0.92,0,1.85,0,2.77,0c0.04,0,0.09,0,0.13,0
		C9.48,5.42,9.6,5.54,9.59,5.7C9.59,5.85,9.47,5.98,9.3,5.98z"/>
</g>
</svg>
