<?xml version="1.0" encoding="utf-8"?>
<!-- Generator: Adobe Illustrator 24.2.3, SVG Export Plug-In . SVG Version: 6.00 Build 0)  -->
<svg version="1.1" id="Layer_1" xmlns="http://www.w3.org/2000/svg" xmlns:xlink="http://www.w3.org/1999/xlink" x="0px" y="0px"
	 viewBox="0 0 32 32" style="enable-background:new 0 0 32 32;" xml:space="preserve">
<style type="text/css">
	.st0{fill:#CACACA;}
</style>
<path class="st0" d="M27.37,30.51c-0.13-0.2-0.25-0.4-0.37-0.59c-2.17-3.46-4.35-6.92-6.52-10.38c-0.08-0.12-0.18-0.23-0.19-0.39
	c-0.08-1.11-0.17-2.21-0.26-3.32c-0.02-0.23,0.06-0.3,0.29-0.3c1.49,0.01,2.98,0.01,4.47,0c0.26,0,0.32,0.11,0.31,0.34
	c-0.01,0.48,0,0.96,0,1.45c0,0.34,0.12,0.6,0.49,0.59c0.36-0.01,0.48-0.27,0.48-0.61c0-0.72,0-1.43,0-2.15
	c0-0.26-0.1-0.44-0.31-0.59c-0.79-0.58-1.62-1.11-2.34-1.77c-0.97-0.89-2.03-1.32-3.33-1.11c-0.34,0.05-0.46-0.1-0.49-0.42
	c-0.07-0.87-0.16-1.74-0.25-2.61c-0.03-0.24,0.05-0.3,0.28-0.3c1.71,0.01,3.42,0.01,5.13,0c0.28,0,0.35,0.1,0.34,0.36
	c-0.02,0.47,0,0.93-0.01,1.4c0,0.33,0.09,0.61,0.46,0.61c0.39,0.01,0.51-0.27,0.51-0.62c-0.01-0.67-0.02-1.34,0.01-2.01
	c0.01-0.35-0.13-0.57-0.39-0.77c-1.16-0.86-2.31-1.73-3.47-2.6c-0.2-0.15-0.39-0.22-0.64-0.22c-0.74,0.01-1.49,0-2.23,0.01
	c-0.25,0-0.35-0.06-0.38-0.33c-0.05-0.35,0.04-0.73-0.27-1.03c-0.76-0.75-1.51-1.5-2.26-2.26C16.14,0.6,15.88,0.61,15.6,0.9
	c-0.53,0.54-1.06,1.09-1.61,1.61C13.5,2.97,13,3.41,13.07,4.19c0.03,0.28-0.15,0.32-0.39,0.32c-0.74-0.01-1.49,0-2.23-0.01
	c-0.19,0-0.37,0.01-0.54,0.14C8.68,5.56,7.45,6.48,6.23,7.4c-0.18,0.14-0.3,0.3-0.29,0.55c0.01,0.73,0,1.46,0,2.19
	c0,0.34,0.15,0.59,0.51,0.58c0.34-0.01,0.47-0.25,0.46-0.57C6.9,9.71,6.93,9.27,6.9,8.83c-0.03-0.37,0.06-0.51,0.47-0.5
	c0.8,0.04,1.61,0.01,2.41,0.01c0.85,0,1.69,0,2.54,0c0.13,0,0.35-0.09,0.31,0.21c-0.1,0.93-0.18,1.86-0.26,2.79
	c-0.02,0.25-0.12,0.35-0.38,0.34c-0.51-0.02-1.02,0-1.53-0.01c-0.23,0-0.43,0.04-0.61,0.18c-1.19,0.9-2.38,1.78-3.57,2.68
	c-0.18,0.13-0.34,0.28-0.33,0.53c0.01,0.76,0,1.52,0.01,2.28c0,0.33,0.16,0.55,0.49,0.55c0.34,0,0.47-0.24,0.47-0.56
	c0-0.5,0.01-0.99-0.01-1.49c-0.01-0.25,0.09-0.32,0.33-0.32c1.47,0.01,2.95,0.01,4.42,0c0.25,0,0.33,0.07,0.31,0.33
	c-0.08,0.86-0.13,1.72-0.21,2.57c-0.04,0.43-0.05,0.84-0.31,1.25C9.21,23.19,7,26.73,4.78,30.26c-0.18,0.29-0.45,0.6-0.08,0.93
	c0.34,0.31,0.58-0.01,0.85-0.17c0.02-0.02,0.05-0.03,0.07-0.05c2.63-1.9,5.25-3.79,7.88-5.69c0.17-0.13,0.34-0.19,0.56-0.19
	c1.3,0.01,2.6,0.01,3.9,0c0.2,0,0.37,0.04,0.53,0.16c1.69,1.23,3.38,2.45,5.07,3.67c1.04,0.75,2.08,1.5,3.12,2.25
	c0.22,0.16,0.45,0.23,0.67,0.01C27.54,30.97,27.53,30.74,27.37,30.51z M21.74,23.35c-0.02,0.02-0.03,0.04-0.05,0.06
	c-1.5-0.72-3.01-1.45-4.58-2.21c0.84-0.4,1.61-0.76,2.38-1.13c0.18-0.09,0.23,0.05,0.3,0.16C20.44,21.28,21.09,22.31,21.74,23.35z
	 M16.05,16.5c-0.09,0.05-0.17-0.02-0.24-0.06c-0.45-0.27-0.9-0.54-1.35-0.81c0.01-0.03,0.01-0.05,0.02-0.08c1.01,0,2.02,0,3.18,0
	C17.05,15.91,16.55,16.21,16.05,16.5z M19.08,15.84c0.07,0.9,0.13,1.72,0.2,2.66c-0.83-0.49-1.56-0.93-2.34-1.39
	C17.67,16.68,18.34,16.28,19.08,15.84z M15.04,17.12c-0.78,0.47-1.5,0.89-2.28,1.36c0-0.9,0.1-1.71,0.19-2.62
	C13.66,16.29,14.31,16.69,15.04,17.12z M15.85,17.76c0.1-0.06,0.19-0.05,0.28,0.01c0.86,0.51,1.72,1.03,2.65,1.59
	c-0.91,0.43-1.74,0.82-2.57,1.22c-0.14,0.07-0.26,0.09-0.41,0.02c-0.85-0.41-1.7-0.81-2.61-1.24C14.11,18.8,14.98,18.28,15.85,17.76
	z M14.16,3.7c0.56-0.59,1.15-1.16,1.72-1.74C16,1.84,16.09,1.91,16.18,2c0.55,0.55,1.09,1.1,1.64,1.64c0.22,0.22,0.13,0.5,0.16,0.75
	C18,4.54,17.81,4.5,17.7,4.5c-0.57,0.01-1.14,0-1.7,0c-0.48,0-0.96,0.01-1.44-0.01c-0.18-0.01-0.46,0.11-0.5-0.09
	C14.01,4.19,13.98,3.89,14.16,3.7z M7.9,7.36c0.87-0.66,1.66-1.25,2.45-1.84c0.11-0.08,0.25-0.05,0.38-0.05c3.52,0,7.04,0,10.55,0
	c0.11,0,0.26-0.02,0.34,0.04c0.81,0.59,1.6,1.19,2.49,1.85C18.68,7.36,13.36,7.36,7.9,7.36z M15.17,9.88
	c-0.62,0.44-1.18,0.85-1.82,1.3c0.07-0.81,0.14-1.52,0.21-2.24c0.02-0.16,0.1-0.15,0.21-0.08C14.23,9.2,14.68,9.53,15.17,9.88z
	 M14.77,8.39c0.85,0,1.62,0,2.47,0c-0.39,0.28-0.73,0.52-1.06,0.77c-0.15,0.11-0.26,0.06-0.39-0.03
	C15.47,8.89,15.15,8.67,14.77,8.39z M15.93,10.53c0.05-0.04,0.11-0.04,0.16,0c0.49,0.35,0.98,0.7,1.56,1.13c-1.14,0-2.14,0-3.29,0
	C14.95,11.23,15.44,10.88,15.93,10.53z M17.03,10.02c-0.15-0.1-0.16-0.18,0-0.29c0.39-0.28,0.78-0.56,1.17-0.84
	c0.15-0.11,0.23-0.1,0.25,0.11c0.06,0.7,0.13,1.39,0.2,2.18C18.05,10.75,17.54,10.38,17.03,10.02z M7.9,14.54
	c0.69-0.52,1.32-0.96,1.91-1.45c0.41-0.34,0.83-0.45,1.35-0.45c3.28,0.02,6.57,0.02,9.85,0c0.42,0,0.75,0.1,1.08,0.36
	c0.63,0.51,1.29,0.98,2.02,1.53C18.67,14.54,13.34,14.54,7.9,14.54z M10.4,23.13c0.58-0.94,1.18-1.87,1.75-2.81
	c0.14-0.23,0.27-0.28,0.52-0.16c0.7,0.35,1.42,0.68,2.21,1.05c-1.54,0.74-3.02,1.45-4.49,2.16C10.26,23.25,10.37,23.19,10.4,23.13z
	 M6.96,28.8c-0.03-0.02-0.05-0.04-0.08-0.06c0.23-0.38,0.46-0.77,0.7-1.15c0.47-0.75,0.95-1.5,1.42-2.26
	c0.1-0.16,0.21-0.25,0.42-0.25c0.85,0.01,1.69,0,2.67,0C10.31,26.38,8.64,27.59,6.96,28.8z M11.19,24.12
	c-0.01-0.02-0.02-0.04-0.02-0.06c0.54-0.26,1.09-0.53,1.63-0.79c0.93-0.45,1.87-0.89,2.79-1.35c0.27-0.13,0.5-0.14,0.78-0.01
	c1.41,0.7,2.83,1.37,4.25,2.05c0.07,0.04,0.17,0.05,0.2,0.16C17.61,24.12,14.4,24.12,11.19,24.12z M25.11,28.86
	c-1.7-1.23-3.4-2.45-5.21-3.76c1.02,0,1.91,0,2.8,0c0.14,0,0.2,0.1,0.27,0.2c0.73,1.17,1.47,2.34,2.2,3.51
	C25.15,28.83,25.13,28.84,25.11,28.86z"/>
</svg>
