<?xml version="1.0" encoding="utf-8"?>
<!-- Generator: Adobe Illustrator 24.2.3, SVG Export Plug-In . SVG Version: 6.00 Build 0)  -->
<svg version="1.1" id="Layer_1" xmlns="http://www.w3.org/2000/svg" xmlns:xlink="http://www.w3.org/1999/xlink" x="0px" y="0px"
	 viewBox="0 0 32 32" style="enable-background:new 0 0 32 32;" xml:space="preserve">
<style type="text/css">
	.st0{fill:#F26F21;}
	.st1{fill:#FDF6F2;}
	.st2{fill:#FDF1E9;}
	.st3{fill:#F27226;}
	.st4{fill:#F3752B;}
	.st5{fill:#F27023;}
	.st6{fill:#F69D68;}
	.st7{fill:#FAD4BD;}
	.st8{fill:#F3772E;}
	.st9{fill:#F48D50;}
	.st10{fill:#F27328;}
	.st11{fill:#F7AB80;}
	.st12{fill:#F3762E;}
	.st13{fill:#FDF6F1;}
	.st14{fill:#F7AD81;}
	.st15{fill:#F8B68F;}
	.st16{fill:#F37830;}
	.st17{fill:#F37931;}
	.st18{fill:#FDEFE7;}
	.st19{fill:#F37B34;}
	.st20{fill:#F8B690;}
	.st21{fill:#FCEDE4;}
	.st22{fill:#F9C9AD;}
	.st23{fill:#F5945A;}
	.st24{fill:#F38644;}
	.st25{fill:#FCE1D1;}
	.st26{fill:#FCECE2;}
	.st27{fill:#F3813C;}
	.st28{fill:#F69861;}
	.st29{fill:#F37A33;}
	.st30{fill:#F69D67;}
	.st31{fill:#F69C67;}
	.st32{fill:#F58C4F;}
	.st33{fill:#F9BF9C;}
	.st34{fill:#FAD0B7;}
	.st35{fill:#F5955B;}
	.st36{fill:#FCE0D0;}
	.st37{fill:#F8BA94;}
	.st38{fill:#F7AE83;}
	.st39{fill:#F4813D;}
	.st40{fill:#F7AE82;}
	.st41{fill:#FAD1B8;}
	.st42{fill:#F9BE9B;}
	.st43{fill:#F5955C;}
	.st44{fill:#F59258;}
	.st45{fill:#F9C9AB;}
	.st46{fill:#F48341;}
	.st47{fill:#F8B994;}
	.st48{fill:#F7AF84;}
	.st49{fill:#F3803C;}
	.st50{fill:#FBDBC7;}
	.st51{fill:#F9C8AA;}
	.st52{fill:#F7AD82;}
	.st53{fill:#F48747;}
	.st54{fill:#F3823E;}
	.st55{fill:#F8BB97;}
	.st56{fill:#F9C19F;}
	.st57{fill:#F8BC98;}
	.st58{fill:#FBE4D6;}
	.st59{fill:#FCE8DC;}
	.st60{fill:#FCE2D3;}
	.st61{fill:#FACDB1;}
	.st62{fill:#FCE4D6;}
	.st63{fill:#F7A879;}
	.st64{fill:#F59358;}
	.st65{fill:#F37A32;}
	.st66{fill:#FEFEFE;}
	.st67{fill:#F48B4D;}
	.st68{fill:#F69860;}
	.st69{fill:#F59156;}
	.st70{fill:#F3752C;}
	.st71{fill:#F69B65;}
	.st72{fill:#F6A474;}
	.st73{fill:#FBD8C3;}
	.st74{fill:#F58A4C;}
	.st75{fill:#FBDBC8;}
	.st76{fill:#F59155;}
	.st77{fill:#F69B66;}
	.st78{fill:#FBD9C4;}
	.st79{fill:#F5965D;}
	.st80{fill:#F37D37;}
	.st81{fill:#F27022;}
	.st82{fill:#F37B35;}
	.st83{fill:#FEF9F6;}
	.st84{fill:#F69F6C;}
	.st85{fill:#F6A06D;}
	.st86{fill:#F69E6B;}
	.st87{fill:#F59861;}
	.st88{fill:#F37428;}
	.st89{fill:#FAD5BF;}
	.st90{fill:#F8B58D;}
	.st91{fill:#FDF0E9;}
	.st92{fill:#FDF2EB;}
	.st93{fill:#FCEBE1;}
	.st94{fill:#F7A676;}
	.st95{fill:#FBD9C5;}
	.st96{fill:#F48949;}
	.st97{fill:#FBD7C2;}
	.st98{fill:#FDF7F3;}
	.st99{fill:#F8B38B;}
	.st100{fill:#FBDDCC;}
	.st101{fill:#F7A474;}
	.st102{fill:#FBDAC6;}
	.st103{fill:#FEFDFC;}
	.st104{fill:#F7AB7F;}
	.st105{fill:#F47E37;}
	.st106{fill:#F9BB96;}
	.st107{fill:#F48543;}
	.st108{fill:#F9C3A2;}
	.st109{fill:#F37E39;}
	.st110{fill:#F4894A;}
	.st111{fill:#F3813D;}
	.st112{fill:#FCEDE3;}
	.st113{fill:#FBD8C2;}
	.st114{fill:#FCE5D7;}
	.st115{fill:#FCE3D4;}
	.st116{fill:#F26F22;}
	.st117{fill:#F9C8AB;}
	.st118{fill:#F48A4B;}
	.st119{fill:#FAD1B9;}
	.st120{fill:#FDF4EF;}
	.st121{fill:#F7A677;}
	.st122{fill:#FDEEE6;}
	.st123{fill:#F7A778;}
	.st124{fill:#F4823F;}
	.st125{fill:#F69C66;}
	.st126{fill:#F3772F;}
	.st127{fill:#F59359;}
	.st128{fill:#F27327;}
	.st129{fill:#F59157;}
	.st130{fill:#F27124;}
	.st131{fill:#FCE3D5;}
	.st132{fill:#F3803B;}
	.st133{fill:#FDEEE5;}
	.st134{fill:#FDECE3;}
	.st135{fill:#F58D4F;}
	.st136{fill:#F9C1A0;}
	.st137{fill:#F8B085;}
	.st138{fill:#FAC6A7;}
	.st139{fill:#F6A371;}
	.st140{fill:#F69A64;}
	.st141{fill:#FEFAF8;}
	.st142{fill:#F6A26F;}
	.st143{fill:#F69961;}
	.st144{fill:#F48646;}
	.st145{fill:#FEFBF9;}
	.st146{fill:#FCE9DE;}
	.st147{fill:#F7AB7E;}
	.st148{fill:#F58D51;}
	.st149{fill:#F8B790;}
	.st150{fill:#F9C2A1;}
	.st151{fill:#F9C4A5;}
	.st152{fill:#FAD0B6;}
	.st153{fill:#FBDCCA;}
	.st154{fill:#FEFEFD;}
	.st155{fill:#FDF5F0;}
	.st156{fill:#F5945B;}
	.st157{fill:#F48442;}
	.st158{fill:#F3752A;}
	.st159{fill:#F3762C;}
	.st160{fill:#F8BC97;}
	.st161{fill:#F9BE9C;}
	.st162{fill:#FAD4BC;}
	.st163{fill:#FAD2B9;}
	.st164{fill:#F69E6A;}
	.st165{fill:#F6A574;}
	.st166{fill:#F8B892;}
	.st167{fill:#F69A63;}
	.st168{fill:#FEFCFB;}
	.st169{fill:#FCE2D2;}
	.st170{fill:#FDF1EA;}
	.st171{fill:#FDEDE3;}
	.st172{fill:#F6A16E;}
	.st173{fill:#FEFBFA;}
	.st174{fill:#F5965E;}
	.st175{fill:#FCEEE5;}
	.st176{fill:#F58A4B;}
	.st177{fill:#FDF8F4;}
	.st178{fill:#F58F52;}
	.st179{fill:#F8BB96;}
	.st180{fill:#FBDDCB;}
	.st181{fill:#F58E52;}
	.st182{fill:#F48644;}
	.st183{fill:#F3762D;}
</style>
<path class="st0" d="M30.25,15.02c-0.55-7.99-7.56-14.23-16-13.25C6.94,2.62,0.83,9.32,1.82,17.76c0.89,7.57,7.57,12.99,14.9,12.55
	C24.22,30.07,30.83,23.44,30.25,15.02z M27.53,19.46c-0.77,2.64-2.29,4.77-4.52,6.37c-4.68,3.36-10.86,3.01-15.18-0.95
	c-4.02-3.68-5.26-9.85-2.15-15.16C5.62,9.44,5.38,9.25,5.17,8.81c0.76,0.52,1.07,0.13,1.42-0.34C7.51,7.24,8.68,6.29,10,5.51
	c0.22-0.13,0.52-0.19,0.62-0.49c0.19-0.12,0.44,0.01,0.62-0.14c3.15-1.29,6.3-1.34,9.45,0c0.15,0.1,0.38-0.05,0.51,0.13
	c0.67,0.43,1.35,0.85,2.01,1.31c0.53,0.37,1.02,0.81,1.46,1.29c0.43,0.48,0.84,0.98,1.25,1.45c0.29,0.11,0.46-0.2,0.77-0.12
	c-0.03,0.28-0.29,0.43-0.41,0.71C28.05,12.73,28.55,16.01,27.53,19.46z"/>
<path class="st1" d="M11.24,4.88c-0.15,0.31-0.37,0.32-0.62,0.14c-0.04-0.15-0.09-0.29-0.13-0.45C10.85,4.41,10.92,4.96,11.24,4.88z
	"/>
<path class="st2" d="M21.21,5.02c-0.17-0.03-0.38,0.06-0.51-0.13c0.32,0.06,0.39-0.33,0.7-0.38C21.46,4.74,21.4,4.9,21.21,5.02z"/>
<path class="st3" d="M7.01,18.53c-0.46-0.01-0.91-0.03-1.37-0.03c-0.25,0-0.5,0-0.53-0.47c1.5,0,2.98,0,4.47,0
	c0.1-0.06,0.19-0.13,0.3-0.15c0.28-0.04,0.57-0.04,0.83-0.2c0.07-0.02,0.14-0.02,0.22-0.01c0.13,0.06,0.26,0.15,0.41,0.15
	c0.52,0.04,1.03,0,1.54-0.11c0.36-0.05,0.72-0.03,1.09-0.04c0.19,0.01,0.35-0.06,0.5-0.18c0.15-0.1,0.31-0.17,0.5-0.14
	c0.22,0.13,0.45,0.14,0.69,0.06c0.32-0.06,0.63-0.05,0.95,0.02c0.28,0.1,0.58,0.09,0.86,0.16c0.49,0.16,1.01,0.05,1.51,0.11
	c0.08,0.01,0.16,0.02,0.24,0.04c0.53,0.14,1.06,0.17,1.59,0.02c0.12-0.09,0.23-0.19,0.37-0.24c0.07-0.01,0.14,0,0.21,0.03
	c0.19,0.24,0.44,0.35,0.73,0.37c0.16,0.03,0.32,0.08,0.49,0.07c0.8-0.01,1.59-0.01,2.39,0.01c0.32,0,0.65-0.02,0.89,0.25
	c-0.05,0.1-0.1,0.2-0.15,0.3c-0.39,0.36-0.87,0.2-1.32,0.22c-0.62,0.03-1.24,0-1.86,0.02c-0.09,0.01-0.18,0.01-0.27,0.01
	c-0.09-0.01-0.17-0.04-0.25-0.08c-0.27-0.16-0.58-0.1-0.87-0.11c-0.74-0.02-1.48,0.06-2.22-0.05c-0.72-0.22-1.49-0.01-2.2-0.26
	c-0.5-0.02-1-0.02-1.49-0.01c-0.45-0.01-0.86,0.16-1.28,0.26c-0.31,0.07-0.62,0.06-0.93,0.06c-0.66,0.01-1.31-0.03-1.97,0.03
	c-0.08,0.02-0.17,0.03-0.25,0.02c-0.28-0.04-0.57-0.09-0.85-0.03c-0.17,0.05-0.33,0.1-0.51,0.12c-0.55-0.02-1.13,0.17-1.64-0.19
	c-0.22-0.04-0.43-0.07-0.65-0.01C7.12,18.61,7.07,18.61,7.01,18.53z"/>
<path class="st4" d="M14.65,9.87c0.16-0.11,0.32-0.21,0.48-0.32c0.16-0.08,0.08-0.37,0.32-0.37c0.27,0.01,0.55,0.05,0.79-0.12
	c0.07-0.03,0.13-0.01,0.18,0.06c0,0.31,0.11,0.51,0.43,0.67c0.9,0.45,1.36,1.23,1.42,2.24c-0.49,0.43-1.07,0.57-1.72,0.54
	c-0.59-0.03-1.18,0-1.77-0.01c-0.29-0.01-0.6,0.03-0.78-0.29c0.01-0.09,0.06-0.16,0.15-0.21c0.84-0.28,1.72,0.07,2.56-0.2
	c-0.4-0.26-0.83-0.07-1.24-0.12c-0.32-0.04-0.65,0.03-0.93-0.21c-0.2-0.46,0.22-0.88,0.11-1.33C14.6,10.09,14.59,9.97,14.65,9.87z"
	/>
<path class="st5" d="M11.13,12.84c-0.54-0.27-1.08-0.54-1.61-0.8c-0.21,0.24-0.04,0.52-0.26,0.84C8.32,11.93,7.4,11,6.48,10.07
	c0.04-0.06,0.09-0.11,0.13-0.17c0.71,0.18,1.26,0.74,1.95,0.97C8.7,10.62,8.59,10.37,8.72,10c0.88,0.91,1.72,1.78,2.56,2.65
	C11.23,12.72,11.18,12.78,11.13,12.84z"/>
<path class="st5" d="M25.27,10.26c-0.89,0.81-1.78,1.62-2.65,2.41c-0.07-0.1,0.08-0.37-0.06-0.63c-0.74,0.2-1.34,0.72-2.12,0.88
	c0.91-0.94,1.82-1.89,2.74-2.84c0.27,0.23,0.04,0.55,0.27,0.79c0.53-0.27,1.07-0.55,1.61-0.83C25.26,9.99,25.31,10.08,25.27,10.26z"
	/>
<path class="st6" d="M9.6,17.23c-0.59,0.34-1.19,0.11-1.79,0.07c-0.33-0.02-0.71-0.31-0.94,0.2c-0.01,0.02-0.36-0.04-0.48-0.11
	c-0.21-0.13-0.44-0.05-0.64-0.13c-0.15,0.11-0.3,0.25-0.5,0.13c-0.05-0.15-0.29-0.15-0.28-0.46c2.63-0.02,5.26-0.03,7.89-0.05
	c0.12,0.03,0.21,0.09,0.26,0.2c0.04,0.17,0,0.3-0.17,0.38c-0.56,0.01-1.11,0.02-1.67,0.03c-0.18-0.01-0.34-0.07-0.5-0.15
	c-0.11-0.12-0.22-0.07-0.32,0.02c-0.18,0.06-0.36,0.07-0.55,0.04C9.79,17.37,9.69,17.31,9.6,17.23z"/>
<path class="st7" d="M23.31,24.09c-0.18,0.24-0.45,0.14-0.68,0.14c-4.49,0.01-8.99,0.01-13.48,0c-0.23,0-0.49,0.1-0.68-0.14
	c0.73-0.15,1.47-0.3,2.22-0.24c0.59,0.04,0.85-0.2,0.89-0.76c0.07-0.18,0.19-0.28,0.38-0.29c0.08,0,0.16,0.02,0.23,0.06
	c0.06,0.05,0.09,0.12,0.09,0.2c-0.02,0.07-0.05,0.13-0.09,0.19c-0.09,0.21-0.2,0.43,0.1,0.58c0.08,0.01,0.15,0.01,0.23,0.01
	c0.09,0,0.18,0,0.27,0c3.38,0.2,6.76,0.14,10.14,0.15C23.07,23.99,23.2,23.98,23.31,24.09z"/>
<path class="st8" d="M23.31,24.09c-3.29,0-6.58,0-9.87,0c-0.35,0-0.7-0.02-1.05-0.02c-0.37-0.32-0.08-0.75-0.18-1.12l0.02-0.03
	c0.06-0.34,0.22-0.21,0.39-0.08c0.14,0.22,0.09,0.49,0.15,0.73c0.02,0.05,0.05,0.08,0.11,0.09c0.06-0.02,0.09-0.06,0.1-0.12
	c0.06-0.26-0.01-0.55,0.19-0.78c0.07-0.03,0.14-0.03,0.21-0.01c0.19,0.17,0.11,0.41,0.17,0.6c-0.04-0.25-0.05-0.47,0.17-0.64
	c0.66-0.01,0.37,0.62,0.61,0.9c0.15,0.11,0.34,0.1,0.5,0.17c0.06,0.04,0.12,0.08,0.18,0.12c2.54,0,5.08,0.01,7.62,0.02
	c0.24,0,0.48-0.07,0.71,0.06c0.01,0.01,0.02,0.04,0.01,0.06C23.35,24.05,23.33,24.07,23.31,24.09z"/>
<path class="st9" d="M4.92,16.24c-0.02-0.42,0.3-0.3,0.51-0.3c1.45-0.01,2.91,0,4.36,0.01c0.38-0.16,0.77,0.07,1.16-0.01
	c0.81,0,1.62-0.01,2.43-0.01c0.02,0.05,0.04,0.09,0.06,0.14c0.01,0.19-0.11,0.27-0.27,0.32c-2.55,0.1-5.09,0-7.64,0.02
	C5.31,16.41,5.09,16.41,4.92,16.24z"/>
<path class="st10" d="M20.77,5.76c-0.22,1.04-0.65,1.85-0.92,2.7c-0.15,0.03-0.19-0.08-0.25-0.16c-0.06-0.08-0.09-0.2-0.24-0.21
	c-0.36,0.16-0.5,0.6-0.96,0.81c0.25-0.78,0.47-1.49,0.69-2.19c0.3-0.03,0.25,0.34,0.51,0.38C20.01,6.77,20.16,6.17,20.77,5.76z"/>
<path class="st10" d="M11.28,5.86c0.52,0.3,0.7,0.88,1.1,1.24c0.24-0.05,0.22-0.32,0.45-0.42c0.31,0.69,0.54,1.4,0.71,2.19
	c-0.45-0.21-0.58-0.64-0.94-0.86c-0.12,0.14-0.24,0.28-0.42,0.48C11.82,7.6,11.47,6.76,11.28,5.86z"/>
<path class="st11" d="M14.01,12.18c0.14,0.24,0.37,0.16,0.57,0.16c0.69,0.01,1.39,0.01,2.08,0c0.44,0,0.91,0.1,1.24-0.36
	c0.1-0.15,0.24,0.04,0.36,0.04c0.02,0.05,0.02,0.09-0.01,0.14c0.11,0.14,0.07,0.3,0.06,0.46c-0.04,0.07-0.09,0.13-0.16,0.16
	c-0.15,0.06-0.3,0.06-0.46,0.05c-0.07-0.01-0.14-0.03-0.21-0.06c-0.09-0.1-0.18-0.13-0.28-0.01c-0.19,0.08-0.39,0.07-0.59,0.08
	c-0.06,0-0.13,0-0.19,0c-0.06,0-0.12,0-0.18,0c-0.09,0.01-0.17,0.03-0.26,0.06c-0.06,0.02-0.12,0.03-0.18,0.03
	c-0.06,0-0.12-0.01-0.17-0.03c-0.06-0.01-0.11-0.02-0.17-0.03c-0.06,0.01-0.12,0.01-0.17,0.02c-0.06,0.01-0.12,0-0.18-0.01
	c-0.09-0.02-0.18-0.04-0.27-0.05c-0.13-0.01-0.25,0-0.38,0c-0.07,0.01-0.14,0.01-0.21,0.01c-0.18,0-0.36,0-0.54-0.01
	c-0.08-0.01-0.15-0.02-0.23-0.05c-0.07-0.03-0.13-0.08-0.18-0.15c-0.03-0.12-0.03-0.23,0.04-0.34c0-0.05,0.01-0.1,0.03-0.14
	C13.59,12.01,13.8,11.99,14.01,12.18z"/>
<path class="st12" d="M14,14.79c-0.09-0.02-0.14-0.07-0.13-0.17c0.23-0.26,0.54-0.23,0.83-0.23c1.06,0,2.11-0.03,3.17,0.02
	c0.1,0.01,0.2,0.04,0.29,0.09c0.1,0.06,0.13,0.14,0.09,0.25c-0.13,0.02-0.27,0.04-0.44,0.06c-0.04,0.33-0.18,0.66,0.11,0.97
	c0.03,0.15-0.06,0.21-0.18,0.27c-0.16,0.05-0.32,0.04-0.47,0c-0.22-0.07-0.45-0.09-0.64-0.24c-0.13-0.25,0.19-0.34,0.18-0.55
	c-0.63-0.52-1.36-0.17-2.04-0.23c-0.19,0.09-0.22,0.2-0.06,0.34c0.12,0.07,0.26,0.12,0.33,0.26c0,0.08-0.03,0.15-0.08,0.21
	c-0.33,0.19-0.67,0.33-1.05,0.16c-0.07-0.05-0.1-0.12-0.11-0.2C14,15.49,14.28,15.2,14,14.79z"/>
<path class="st13" d="M18.08,14.59c-1.4,0.01-2.81,0.02-4.21,0.03c-0.12,0.05-0.24,0.1-0.36,0.15c-0.05-0.06-0.07-0.12-0.07-0.19
	c0.01-0.07,0.04-0.13,0.09-0.18c0.06-0.04,0.12-0.07,0.19-0.08c0.1-0.02,0.2-0.04,0.3-0.06c0.1-0.03,0.18-0.07,0.23-0.17
	c0.13-0.47-0.13-1.01,0.27-1.42c0.16,0.01,0.31,0.02,0.47,0.02c0.04,0.03,0.06,0.07,0.06,0.12c0,0.05-0.01,0.07-0.02,0.07
	c-0.03,0.06-0.06,0.12-0.1,0.18c-0.1,0.35-0.08,0.7-0.03,1.05c0.02,0.05,0.05,0.1,0.1,0.13c0.05,0.02,0.1,0.04,0.15,0.05
	c0.05,0,0.11,0.01,0.16,0.01c0.06,0,0.11,0,0.17,0c0.06,0,0.11,0,0.17,0c0.06,0,0.11,0,0.17,0c0.06,0,0.11,0,0.17,0
	c0.06,0,0.11,0,0.17,0c0.05,0,0.11-0.01,0.16-0.01c0.05-0.01,0.1-0.03,0.15-0.05c0.05-0.04,0.08-0.08,0.1-0.14
	c0.04-0.34,0.04-0.68-0.03-1.02c-0.04-0.06-0.07-0.12-0.1-0.18c-0.03-0.07-0.02-0.13,0.03-0.19c0.25,0,0.51,0,0.76,0
	c0.03,0.37-0.11,0.72-0.04,1.17c0.1-0.45-0.05-0.88,0.28-1.18c0.04-0.01,0.08-0.01,0.13-0.01c0.4,0.43,0.11,0.99,0.29,1.46
	c0.06,0.09,0.15,0.16,0.22,0.25C18.13,14.46,18.13,14.53,18.08,14.59z"/>
<path class="st14" d="M4.92,16.24c2.82,0,5.65,0,8.47,0.01c0.39-0.24,0.78-0.26,1.16,0.04c0.04,0.09,0.04,0.18,0,0.27
	c-0.11,0.12-0.24,0.12-0.38,0.05c-0.06-0.02-0.11-0.03-0.17-0.05c-1.02-0.15-2.05-0.03-3.08-0.06c-0.4,0.08-0.8,0.12-1.2,0
	c-1.6-0.05-3.2,0.08-4.8-0.07C4.92,16.36,4.92,16.3,4.92,16.24z"/>
<path class="st15" d="M19.08,15.9c0.62,0,1.24,0.01,1.86,0.01c0.21,0,0.44,0.07,0.58-0.17c0.21-0.17,0.43-0.15,0.64,0.01
	c0.13,0.32,0.36,0.64-0.02,0.95c-1.07-0.31-2.16-0.27-3.26-0.14c-0.51,0.06-1.07,0.28-1.48-0.26c0.39-0.39,0.91-0.25,1.37-0.32
	c0.64,0.32,1.32,0.12,1.98,0.17c0.33,0.03,0.67-0.04,0.82,0c-0.57,0-1.32,0.01-2.06-0.01C19.34,16.16,19.05,16.28,19.08,15.9z"/>
<path class="st16" d="M14.01,12.18c-0.21,0-0.42-0.01-0.63-0.01c0.04-0.98,0.37-1.8,1.28-2.3c0.03,0.1,0.09,0.16,0.18,0.19
	c-0.07,0.61-0.74,1.06-0.45,1.76c0.04,0.18-0.09,0.27-0.2,0.36C14.12,12.18,14.07,12.18,14.01,12.18z"/>
<path class="st17" d="M11.75,22.95c0,0.35,0,0.69,0,1.14c-1.14,0-2.21,0-3.28,0c-0.11-0.14-0.01-0.18,0.1-0.19
	c0.29-0.02,0.58-0.02,0.87-0.02c0.06-0.05,0.12-0.09,0.19-0.12c0.07-0.02,0.14-0.04,0.21-0.05c0.25-0.02,0.38-0.14,0.39-0.41
	c0.01-0.24,0-0.49,0.15-0.7c0.06-0.05,0.13-0.07,0.21-0.06c0.11,0.04,0.19,0.12,0.25,0.22c0.07,0.13,0.06,0.28,0.06,0.33
	c-0.03-0.06,0.03-0.19,0.12-0.32c0.39-0.04,0.39,0.2,0.33,0.46c0.1-0.11,0.03-0.26,0.1-0.37c0.04-0.07,0.09-0.11,0.16-0.14
	C11.74,22.76,11.82,22.81,11.75,22.95z"/>
<path class="st18" d="M14.17,16.61c0.1,0,0.2,0,0.3-0.01c0.27,0.26-0.02,0.43-0.1,0.64c-0.13,0.18,0.04,0.48-0.22,0.61
	c-0.42,0-0.85,0.01-1.27,0.01c-0.14-0.16-0.14-0.32,0-0.47c0.19-0.04,0.15-0.19,0.16-0.32c0.27-0.49,0.8-0.07,1.14-0.32
	C14.17,16.7,14.17,16.65,14.17,16.61z"/>
<path class="st19" d="M17.41,16.3c0.3,0.19,0.63,0.1,0.94,0.1c1.1,0.01,2.19,0,3.29,0c0.22,0,0.52-0.1,0.51,0.3
	c-1.02,0.02-2.04-0.27-3.07-0.11c-0.28,0.23-0.64,0.12-0.94,0.26c-0.06,0.04-0.13,0.07-0.2,0.1c-0.2,0.03-0.37-0.04-0.54-0.14
	c-0.16-0.16-0.38-0.29-0.26-0.58C17.24,16.18,17.34,16.16,17.41,16.3z"/>
<path class="st20" d="M13.84,25.85c-1.06,0-2.12,0-3.18,0c0.48-0.47,1.04-0.26,1.56-0.3c0.53-0.04,1.07-0.01,1.61,0
	C13.95,25.64,13.95,25.75,13.84,25.85z"/>
<path class="st21" d="M24.77,20.33c0,0.05,0,0.1,0,0.15c-0.22,0.2-0.16,0.49-0.23,0.74c0.06,0.2,0.13,0.39,0.08,0.61
	c-0.03,0.13-0.1,0.24-0.18,0.34c-0.28,0.19-0.57,0.18-0.86,0.07c-0.3-0.19-0.15-0.48-0.15-0.74c0-0.3,0.05-0.6-0.21-0.83
	c-0.09-0.14-0.19-0.29-0.01-0.44c0.08-0.05,0.16-0.08,0.25-0.1C23.9,20.11,24.36,20.03,24.77,20.33z"/>
<path class="st22" d="M25.89,18.22c-1.18-0.01-2.36-0.02-3.54-0.04c-0.05-0.03-0.07-0.07-0.06-0.12C22.28,18.03,22.3,18,22.31,18
	c0.27-0.2,0.65-0.14,0.92-0.37c0.23-0.12,0.47-0.2,0.73-0.08c0.12,0.06,0.22,0.15,0.32,0.22c0.05,0.03,0.1,0.05,0.16,0.07
	c0.06,0.01,0.11,0.02,0.17,0.02c0.06-0.01,0.12-0.02,0.17-0.03c0.09-0.03,0.18-0.06,0.27-0.07c0.1-0.01,0.2,0,0.3,0.03
	c0.2,0.06,0.41,0.08,0.56,0.26C25.9,18.11,25.89,18.17,25.89,18.22z"/>
<path class="st23" d="M22.33,18.04c0,0.05,0,0.1,0.01,0.15c-0.12-0.06-0.25-0.11-0.37-0.17c-0.19-0.21-0.17-0.59-0.53-0.67
	c-0.15-0.06-0.31-0.06-0.47-0.06c-0.63-0.05-1.28,0.14-1.88-0.18c-0.07-0.09-0.06-0.17,0.01-0.25c1.02,0,2.05,0,2.96,0
	c0.33,0.24,0.21,0.49,0.28,0.68c-0.03,0.1,0.07,0.16,0.08,0.24C22.43,17.88,22.41,17.97,22.33,18.04z"/>
<path class="st24" d="M19.08,15.9c0.18,0.31,0.48,0.16,0.73,0.17c0.75,0.02,1.5,0.01,2.24,0.1c-1.11-0.01-2.22,0.26-3.32-0.08
	c-0.34,0.02-0.72,0.28-0.99-0.16c0.06-0.05,0.12-0.1,0.18-0.15c0.11-0.01,0.21-0.03,0.32-0.04c0.28-0.18,0.55-0.21,0.8,0.05
	C19.05,15.83,19.06,15.87,19.08,15.9z"/>
<path class="st25" d="M7.83,20.49c0-0.06,0-0.12,0-0.18c0.22-0.18,0.45-0.2,0.66,0.01c0.11,0.29,0.03,0.6,0.08,0.9
	c-0.03,0.36,0.24,0.31,0.47,0.32c0.07,0.02,0.14,0.05,0.19,0.1c0.12,0.14,0.29,0.26,0.25,0.48c-0.06,0.06-0.12,0.1-0.19,0.13
	c-0.44,0.08-0.87,0.1-1.3-0.02c-0.07-0.04-0.13-0.1-0.16-0.18c0-0.09,0-0.19,0-0.28C8,21.62,8,21.46,7.83,21.3
	c0.01-0.07,0.01-0.13,0.02-0.2C8.04,20.9,8.04,20.69,7.83,20.49z"/>
<path class="st26" d="M11.88,24.4c0.07,0,0.13,0,0.2,0c0.06,0.05,0.12,0.1,0.19,0.13c0.59,0.07,1.18-0.02,1.77,0.06
	c0.08,0.03,0.14,0.08,0.18,0.15c0.03,0.14-0.06,0.22-0.17,0.29c-0.07,0.01-0.14,0.01-0.21,0.02c-1.13-0.18-2.26-0.03-3.39-0.08
	C10.13,24.94,9.8,25,9.48,24.91c-0.01-0.06-0.02-0.13-0.03-0.19c0.71-0.37,1.48-0.06,2.21-0.19C11.74,24.5,11.82,24.46,11.88,24.4z"
	/>
<path class="st26" d="M19.52,24.41c0.07,0,0.14-0.01,0.21-0.01c0.07,0.06,0.14,0.1,0.23,0.13c0.79,0.13,1.61-0.17,2.37,0.19
	c-0.01,0.07-0.03,0.13-0.04,0.2c-1.45,0.09-2.9,0.02-4.34,0.04c-0.1-0.01-0.17-0.06-0.21-0.15c0.41-0.5,0.97-0.13,1.45-0.26
	C19.3,24.52,19.42,24.48,19.52,24.41z"/>
<path class="st27" d="M4.92,16.43c1.62,0,3.24,0,4.86,0c0.03,0.04,0.05,0.07,0.03,0.11c-0.01,0.03-0.03,0.05-0.04,0.05
	c-1.4,0-2.8,0-4.2-0.01C5.36,16.57,5.09,16.7,4.92,16.43z"/>
<path class="st28" d="M6.2,19.18c0.09,0.25-0.05,0.52,0.09,0.77c0.26,0.03,0.18-0.42,0.48-0.33c0.12,0.21,0.01,0.46,0.07,0.69
	c-0.04,0.06-0.1,0.09-0.17,0.09c-0.23-0.04-0.46-0.05-0.7-0.03c-0.03,0-0.07,0-0.1,0C5.6,20,5.73,19.59,5.75,19.2
	C5.9,19.04,6.05,19.05,6.2,19.18z"/>
<path class="st29" d="M15.96,7.96c0.13,0.29,0.56,0.38,0.49,0.79c-0.43,0.29-0.85,0.33-1.26-0.02c0.01-0.41,0.38-0.56,0.61-0.81
	C15.86,7.86,15.92,7.87,15.96,7.96z"/>
<path class="st30" d="M17.75,24.86c1.51,0.02,3.02,0.04,4.53,0.06c-0.07,0.09-0.17,0.12-0.28,0.12c-1.42-0.01-2.83-0.02-4.25-0.03
	c-0.02-0.02-0.04-0.05-0.05-0.07C17.72,24.91,17.74,24.89,17.75,24.86z"/>
<path class="st31" d="M9.48,24.91c1.34-0.01,2.69-0.02,4.03-0.03c0.13,0,0.27,0,0.33,0.16c-1.23,0-2.46,0.01-3.69,0
	C9.93,25.04,9.67,25.14,9.48,24.91z"/>
<path class="st32" d="M22.67,17.4c0.11-0.24,0.32-0.14,0.49-0.14c0.74-0.01,1.49,0,2.24,0c0.29,0,0.58,0.01,0.83-0.18
	c0.08,0.11,0.1,0.21-0.01,0.31c-0.22,0-0.35,0.09-0.31,0.34c0.06,0.04,0.08,0.07,0.05,0.1c-0.02,0.02-0.04,0.04-0.07,0.04l0.02,0.05
	c-0.19,0.05-0.31-0.09-0.45-0.18c-0.85-0.19-1.71-0.18-2.57-0.17C22.8,17.52,22.73,17.47,22.67,17.4z"/>
<path class="st33" d="M23.79,23.09c0.1,0.02,0.22,0,0.28,0.11c-0.38,0.67-0.42,0.68-0.92,0.25c-0.26-0.21-0.21-0.5-0.18-0.78
	c0.02-0.07,0.05-0.14,0.1-0.2c0.23-0.13,0.32,0.07,0.44,0.19c0.06,0.08,0.12,0.16,0.16,0.25C23.71,22.95,23.66,23.07,23.79,23.09z"
	/>
<path class="st34" d="M25.74,19.02c-0.5,0.09-1.04-0.2-1.5,0.19c-0.15,0.13-0.33,0.13-0.52,0.1c-0.47-0.15-1.03,0.07-1.45-0.32
	c-0.02-0.11,0.03-0.19,0.13-0.23c1.14-0.11,2.28-0.14,3.43,0.01c0.1,0.06,0.13,0.14,0.07,0.25l-0.01-0.01
	C25.85,19.1,25.8,19.1,25.74,19.02z"/>
<path class="st26" d="M17.76,24.72c0,0.05,0,0.09-0.01,0.14l0.02,0.05c-1.2,0.05-2.4,0.13-3.59-0.04c0-0.05,0-0.1,0-0.16
	c0.39-0.31,0.86-0.09,1.28-0.18c0.12-0.02,0.22-0.06,0.32-0.13c0.07,0,0.14-0.01,0.21-0.01c0.06,0.06,0.13,0.1,0.21,0.13
	C16.71,24.65,17.27,24.38,17.76,24.72z"/>
<path class="st35" d="M15.97,25.33c-1.27,0.08-2.54,0.03-3.81-0.09c1.27,0,2.54,0,3.81,0C15.97,25.27,15.97,25.3,15.97,25.33z"/>
<path class="st36" d="M18.58,23.58c-0.17,0.05-0.34,0.1-0.51,0.15c-0.07-0.08-0.13-0.16-0.17-0.26c-0.05-0.13-0.1-0.27-0.11-0.41
	c-0.01-0.11,0.01-0.23,0.04-0.34c0.07-0.18,0.11-0.38,0.31-0.48c0.09,0,0.15,0.04,0.19,0.12c0.02,0.28-0.03,0.56,0.05,0.98
	c0-0.04,0.11-0.18,0.01-0.14c-0.04,0.02-0.06,0-0.06-0.05c0.02-0.23-0.03-0.47,0.05-0.7c0.44-0.04,0.45,0.3,0.52,0.59
	C18.89,23.28,18.83,23.48,18.58,23.58z"/>
<path class="st37" d="M6.2,19.18c-0.15,0.01-0.3,0.01-0.45,0.02c-0.06-0.22-0.35-0.11-0.46-0.32c0.55-0.33,1.16-0.06,1.72-0.19
	c0.1,0.12,0.1,0.24-0.01,0.36C6.73,19.06,6.42,18.89,6.2,19.18z"/>
<path class="st26" d="M13.84,25.85c0-0.1-0.01-0.2-0.01-0.3c1.11-0.01,2.22-0.01,3.33-0.02c0.16,0,0.33-0.02,0.45,0.13
	c-0.78,0.25-1.58,0.05-2.36,0.12c-0.4,0.03-0.8-0.07-1.19,0.06C13.98,25.84,13.91,25.85,13.84,25.85z"/>
<path class="st14" d="M14.05,25.84c0.17-0.26,0.44-0.15,0.66-0.15c0.96-0.02,1.93-0.02,2.89-0.03c0.06,0,0.12,0,0.17,0
	c0.01,0.03,0.02,0.06,0.04,0.09c-0.02,0.03-0.04,0.05-0.06,0.08C16.53,25.83,15.29,25.83,14.05,25.84z"/>
<path class="st38" d="M15.78,24.41c0,0.09-0.06,0.13-0.13,0.16c-1.19,0.1-2.39,0.15-3.58-0.02c0-0.05,0-0.09,0.01-0.14
	C13.31,24.4,14.54,24.41,15.78,24.41z"/>
<path class="st23" d="M15.97,25.33c0-0.03,0-0.06,0-0.09c1.25-0.06,2.5-0.07,3.75,0.01l0,0.07C18.47,25.41,17.22,25.4,15.97,25.33z"
	/>
<path class="st39" d="M13.85,15.75c0,0.05,0,0.1,0,0.15c-0.16,0.17-0.33,0.15-0.5,0.02l0.01,0.01c-0.26-0.27-0.15-0.59-0.14-0.86
	c0.23-0.14,0.4-0.09,0.61-0.04c0.01,0.15,0.02,0.28,0.03,0.41C13.95,15.54,13.95,15.64,13.85,15.75z"/>
<path class="st30" d="M14.18,24.87c1.2,0.01,2.39,0.02,3.59,0.04c-0.01,0.03-0.01,0.07-0.01,0.1c-1.24,0.06-2.47,0.04-3.71,0.01
	C14.1,24.97,14.14,24.92,14.18,24.87z"/>
<path class="st40" d="M16.09,26.06c1.11,0,2.23,0,3.34,0c0,0.03,0,0.06,0,0.09c-1.12,0-2.24,0-3.36,0
	C16.08,26.12,16.09,26.09,16.09,26.06z"/>
<path class="st38" d="M15.7,26.16c-1.12,0-2.25,0-3.37,0c0-0.03,0-0.06,0-0.08c1.12,0,2.25,0,3.37,0
	C15.7,26.1,15.7,26.13,15.7,26.16z"/>
<path class="st26" d="M17.78,25.65c0.25-0.25,0.56-0.11,0.83-0.12c0.82-0.02,1.63-0.01,2.44-0.01c0.05,0.23-0.08,0.28-0.2,0.33
	c-1.03-0.22-2.07,0.04-3.1-0.14L17.78,25.65z"/>
<path class="st41" d="M22.3,18.69c0.16-0.27,0.43-0.16,0.65-0.16c0.93-0.01,1.86-0.01,2.79-0.01c0.09,0.02,0.14,0.07,0.17,0.15
	c-0.04,0.03-0.08,0.05-0.12,0.08c-1.12,0.02-2.24,0.02-3.36,0C22.38,18.74,22.34,18.72,22.3,18.69z"/>
<path class="st42" d="M8.31,19.99c0-0.28,0-0.57,0-0.79c-0.15-0.26-0.38-0.12-0.52-0.23c-0.01-0.01-0.02-0.05-0.02-0.06
	c0.01-0.02,0.03-0.04,0.05-0.06c0.52-0.3,1.07-0.12,1.61-0.13c0.08,0.03,0.15,0.08,0.2,0.15c-0.02,0.42-0.4,0.26-0.61,0.38
	c-0.06,0.03-0.12,0.06-0.18,0.1c-0.23,0.19,0.01,0.37,0.02,0.55c-0.01,0.08-0.05,0.14-0.12,0.18C8.58,20.14,8.43,20.13,8.31,19.99z"
	/>
<path class="st38" d="M15.98,24.54c0-0.05,0-0.09,0.01-0.14c1.18,0,2.36,0.01,3.54,0.01c-0.04,0.05-0.09,0.1-0.13,0.15
	C18.25,24.67,17.11,24.7,15.98,24.54z"/>
<path class="st43" d="M8.31,19.99c0.17,0,0.33,0,0.5,0c0.11-0.1,0.2-0.21,0.36-0.22c0.08,0.01,0.14,0.04,0.19,0.1
	c0.08,0.14,0.08,0.28,0.03,0.43c-0.05,0.1-0.12,0.18-0.21,0.25c-0.09,0.05-0.19,0.06-0.3,0.05c-0.14-0.06-0.31-0.01-0.44-0.12
	c-0.15-0.29-0.42-0.06-0.62-0.15c0.01-0.11,0.01-0.22,0.02-0.33c0.05-0.07,0.1-0.08,0.15,0C8.11,19.99,8.21,19.99,8.31,19.99z"/>
<path class="st44" d="M17.51,26.64c-1.09,0-2.18,0-3.26,0c0-0.03,0-0.06,0-0.08c1.08,0,2.16,0,3.25,0
	C17.5,26.58,17.51,26.61,17.51,26.64z"/>
<path class="st45" d="M15.96,7.96c-0.06-0.01-0.11-0.02-0.17-0.04c0-0.65,0.01-1.3,0.01-1.95c-0.31-0.22-0.21-0.53-0.18-0.83
	c0.05-0.1,0.12-0.18,0.3-0.23C16.01,5.94,15.96,6.95,15.96,7.96z"/>
<path class="st23" d="M6.99,19.04C7,18.92,7,18.8,7.01,18.68c0-0.05,0.01-0.1,0.01-0.15c0.05,0,0.11,0,0.16,0c0,1.1,0,2.19,0,3.29
	c-0.06,0-0.12,0-0.18,0C6.99,20.89,6.99,19.96,6.99,19.04z"/>
<path class="st46" d="M15.63,5.15c0.34,0.21-0.07,0.59,0.18,0.83c-0.3-0.06-0.51,0.09-0.74,0.28C14.88,5.68,15.23,5.4,15.63,5.15z"
	/>
<path class="st47" d="M15.19,8.73c0.42,0.01,0.84,0.01,1.26,0.02c-0.01,0.12-0.02,0.24-0.03,0.36c-0.04,0-0.09,0-0.13,0.01
	c-0.26,0.17-0.54,0.11-0.82,0.11c-0.16,0.06-0.12,0.32-0.34,0.32C15.15,9.28,15.17,9.01,15.19,8.73z"/>
<path class="st48" d="M23.31,20.31c-0.05,0-0.11-0.01-0.16-0.01c-0.2-0.71-0.17-0.73,0.66-0.63c0.15,0.01,0.31,0.02,0.43,0.14
	c0.08,0.16,0.16,0.16,0.24,0c0.1-0.08,0.2-0.07,0.29,0.02c0,0.11,0.01,0.21,0.01,0.32C24.31,20.38,23.78,20.1,23.31,20.31z"/>
<path class="st40" d="M17.75,25.72c0.93-0.01,1.85-0.02,2.78-0.04c0.14,0,0.26,0.03,0.32,0.18c-1.03-0.01-2.06-0.02-3.09-0.03
	C17.76,25.79,17.76,25.75,17.75,25.72z"/>
<path class="st49" d="M10.91,16.43c0.89-0.01,1.77-0.01,2.66-0.02c0.16,0,0.33-0.04,0.43,0.14c-1.03,0-2.05,0-3.08,0
	c-0.05-0.03-0.07-0.05-0.06-0.08C10.88,16.45,10.9,16.43,10.91,16.43z"/>
<path class="st50" d="M22.33,24.72c-0.68,0-1.35,0-2.03-0.01c-0.2,0-0.44,0.09-0.58-0.17c1.02-0.12,2.05-0.11,3.07-0.01
	C22.71,24.79,22.49,24.7,22.33,24.72z"/>
<path class="st40" d="M22.79,24.54c-1.02,0-2.05,0.01-3.07,0.01c-0.01-0.05-0.01-0.1,0.01-0.15c0.86,0,1.71-0.01,2.57,0
	C22.46,24.4,22.67,24.32,22.79,24.54z"/>
<path class="st51" d="M21.66,23.43c-0.1,0-0.19,0-0.29,0c-0.33-0.33-0.26-0.68-0.06-1.05c0.61-0.4,0.56,0.23,0.75,0.49
	c0.02,0.07,0.02,0.15,0,0.22C21.98,23.27,21.85,23.39,21.66,23.43z"/>
<path class="st52" d="M11.88,24.4c0.01,0.05,0.01,0.09,0.01,0.14c-0.97,0.15-1.94,0.15-2.91,0c0.14-0.25,0.38-0.14,0.58-0.14
	C10.33,24.39,11.11,24.4,11.88,24.4z"/>
<path class="st50" d="M8.98,24.54c0.97,0,1.94,0,2.91,0c-0.1,0.23-0.31,0.17-0.49,0.18c-0.65,0.01-1.3,0.01-1.95,0.01
	C9.28,24.7,9.07,24.78,8.98,24.54z"/>
<path class="st53" d="M18.27,15.57c0.12-0.16,0.02-0.35,0.05-0.53c0.19-0.13,0.4-0.08,0.61-0.05c0.15,0.17-0.06,0.41,0.1,0.58
	C18.78,15.74,18.53,15.74,18.27,15.57z"/>
<path class="st51" d="M22.97,23.55c-0.02,0.1-0.08,0.16-0.18,0.16c-0.07-0.08-0.13-0.15-0.19-0.24c-0.09-0.15-0.24-0.24-0.33-0.39
	c-0.02-0.07-0.02-0.14,0-0.22c0.16-0.25,0.31-0.51,0.58-0.67c0.16-0.01,0.32-0.01,0.28,0.23l0.01,0
	C22.91,22.78,23.18,23.2,22.97,23.55z"/>
<path class="st54" d="M18.25,14.75c0-0.05,0-0.1,0-0.15c-0.3-0.64-0.34-1.28-0.02-1.92c0.01-0.17,0.01-0.35,0.02-0.52
	c0.37,0.71,0.07,1.47,0.16,2.2C18.42,14.5,18.47,14.7,18.25,14.75z"/>
<path class="st55" d="M22.34,23.09c0.24-0.01,0.39,0.1,0.47,0.32c-0.28,0.37-0.63,0.27-0.99,0.16c-0.05-0.05-0.11-0.1-0.16-0.15
	c0.06-0.16,0.17-0.28,0.33-0.34c0.06-0.01,0.12-0.01,0.17-0.01C22.22,23.08,22.28,23.09,22.34,23.09z"/>
<path class="st56" d="M18.58,23.58c0.06-0.16,0.19-0.31,0.17-0.5c0.2-0.09,0.42-0.11,0.63-0.07c0.11,0.03,0.2,0.09,0.29,0.17
	c0.08,0.09,0.12,0.19,0.04,0.3c-0.25,0.32-0.65,0.08-0.95,0.24C18.67,23.71,18.61,23.66,18.58,23.58z"/>
<path class="st33" d="M17.9,23.08c0.05,0.12,0.11,0.24,0.16,0.35c-0.28,0.35-0.64,0.24-0.99,0.15c-0.09-0.02-0.12-0.08-0.13-0.17
	c-0.01-0.22,0.1-0.36,0.3-0.43C17.48,22.93,17.7,22.97,17.9,23.08z"/>
<path class="st14" d="M13.51,14.62c0.01,0.05,0.01,0.1,0,0.15c-0.1-0.01-0.26,0-0.26-0.12c0-0.78-0.21-1.58,0.11-2.34
	c0,0.12,0.01,0.24,0.01,0.36C13.8,13.29,13.5,13.97,13.51,14.62z"/>
<path class="st33" d="M8.12,23.58C8.03,23.56,8,23.5,7.98,23.41c0.01-0.11,0.07-0.19,0.14-0.27c0.08-0.08,0.17-0.13,0.28-0.16
	c0.23-0.01,0.45-0.03,0.65,0.11c0.12,0.13,0.18,0.27,0.04,0.43C8.78,23.72,8.45,23.69,8.12,23.58z"/>
<path class="st57" d="M15.46,23.58c-0.09-0.02-0.14-0.07-0.16-0.16c0-0.15,0.05-0.28,0.18-0.37c0.22-0.03,0.44-0.08,0.66-0.04
	c0.11,0.04,0.21,0.1,0.3,0.19c0.08,0.11,0.09,0.22-0.01,0.33C16.11,23.72,15.79,23.69,15.46,23.58z"/>
<path class="st58" d="M19.69,23.44c0-0.09-0.05-0.15-0.14-0.18c-0.1-0.14-0.13-0.29-0.12-0.46c0.07-0.23,0.12-0.48,0.38-0.58
	c0.13-0.01,0.22,0.04,0.28,0.16c0.04,0.28-0.08,0.57,0.06,0.85c0.04,0.06,0.07,0.12,0.1,0.19c0.01,0.07-0.01,0.14-0.07,0.19
	c-0.15,0-0.3,0-0.45,0c-0.05-0.02-0.08-0.05-0.07-0.08C19.67,23.46,19.68,23.44,19.69,23.44z"/>
<path class="st59" d="M17.3,23.09c-0.12,0.11-0.23,0.22-0.35,0.33c-0.04,0-0.09,0.01-0.13,0.01c-0.03-0.02-0.06-0.04-0.1-0.06
	c-0.17-0.26-0.11-0.58-0.2-0.86c-0.01-0.08-0.02-0.15-0.01-0.23c0.02-0.07,0.06-0.14,0.11-0.19c0.1-0.06,0.21-0.07,0.32-0.02
	c0.05,0.05,0.1,0.11,0.12,0.17c0.06,0.19,0.05,0.4,0.18,0.57C17.3,22.89,17.34,22.98,17.3,23.09z"/>
<path class="st15" d="M23.46,22.11c0.32-0.01,0.64-0.02,0.97-0.03c0.09-0.05,0.17-0.03,0.25,0.04c-0.08,0.11-0.15,0.21-0.23,0.32
	c-0.27,0.21-0.57,0.23-0.88,0.13c-0.17-0.08-0.27-0.22-0.3-0.4C23.3,22.08,23.37,22.06,23.46,22.11z"/>
<path class="st60" d="M9.11,23.43C9.06,23.31,9,23.2,8.95,23.08c-0.14-0.16-0.07-0.34-0.06-0.52c0.01-0.15-0.01-0.32,0.2-0.36
	c0.13,0,0.24,0.03,0.32,0.15c0.16,0.38,0.13,0.77,0.06,1.16c-0.03,0.09-0.08,0.16-0.15,0.22c-0.07,0-0.13,0-0.2,0
	C9.04,23.63,9.04,23.53,9.11,23.43z"/>
<path class="st5" d="M10.91,16.43c0,0.04,0,0.09,0,0.13c-0.38,0.22-0.76,0.25-1.14,0.02c0-0.05,0-0.1,0.01-0.16
	C10.16,16.43,10.54,16.43,10.91,16.43z"/>
<path class="st5" d="M22.16,15.76c-0.21,0-0.42-0.01-0.64-0.01c0-0.13,0-0.26,0-0.39c0.21-0.14,0.42-0.04,0.61-0.08
	C22.24,15.46,22.15,15.61,22.16,15.76z"/>
<path class="st61" d="M16.61,22.26c0,0.06,0.01,0.12,0.01,0.18c0.19,0.3-0.02,0.66,0.14,0.96l0.06,0.02
	c-0.1,0.14-0.2,0.27-0.38,0.29c-0.07-0.1-0.07-0.19,0.01-0.29c-0.01-0.09-0.07-0.15-0.15-0.17c-0.08-0.11-0.12-0.24-0.12-0.37
	c0.01-0.1,0.05-0.19,0.08-0.28c0.02-0.06,0.04-0.12,0.06-0.19c0.03-0.06,0.06-0.12,0.11-0.16C16.49,22.21,16.55,22.22,16.61,22.26z"
	/>
<path class="st47" d="M20.19,23.59c0.01-0.06,0.01-0.11,0.02-0.17c-0.04-0.04-0.06-0.09-0.05-0.13c0.01-0.05,0.02-0.07,0.03-0.07
	c0.19-0.15,0.4-0.21,0.64-0.18c0.1,0.16,0.25,0.22,0.42,0.27c0.01,0.11,0.01,0.23-0.08,0.31c-0.26,0.09-0.54-0.05-0.79,0.1
	C20.28,23.72,20.22,23.67,20.19,23.59z"/>
<path class="st62" d="M8.16,23.27c-0.02,0.09-0.08,0.13-0.17,0.15c-0.06-0.01-0.12-0.01-0.18-0.02c-0.1-0.29-0.13-0.6-0.18-0.9
	c-0.05-0.13,0.01-0.22,0.12-0.28c0.16-0.03,0.29,0.03,0.4,0.13c0.04,0.06,0.07,0.12,0.07,0.19c-0.05,0.12-0.04,0.24,0.04,0.36
	C8.27,23.03,8.23,23.15,8.16,23.27z"/>
<path class="st63" d="M7.83,22.26c-0.08,0.03-0.15,0.08-0.16,0.17c0.11,0.23,0.14,0.47-0.02,0.69c-0.31-0.25,0.01-0.99-0.76-0.9
	c0.34-0.12,0.63-0.2,0.95-0.17l0,0.06c0.06,0.03,0.08,0.06,0.06,0.09C7.87,22.25,7.85,22.26,7.83,22.26z"/>
<path class="st64" d="M19.72,25.32l0-0.07c0.63-0.08,1.26-0.08,1.89,0.03C20.97,25.4,20.35,25.41,19.72,25.32z"/>
<path class="st65" d="M24.23,19.81c-0.14,0-0.29,0.01-0.43,0.01c-0.2-0.21-0.2-0.42-0.01-0.63c0.15,0.01,0.3,0.01,0.45,0.02
	C24.24,19.41,24.24,19.61,24.23,19.81z"/>
<path class="st0" d="M6.83,20.52c-0.04,0.28,0.12,0.71-0.44,0.6c-0.21-0.2-0.22-0.42-0.07-0.65C6.51,20.36,6.68,20.33,6.83,20.52z"
	/>
<path class="st42" d="M9.31,23.73c0-0.06,0-0.11,0-0.17c0.15-0.4,0.03-0.81,0.07-1.21c-0.01-0.09,0.02-0.16,0.08-0.22l-0.01-0.01
	c0.1-0.05,0.19-0.02,0.25,0.07c0.18,0.58,0.26,1.15-0.08,1.7c-0.06,0-0.13,0-0.19,0C9.44,23.79,9.38,23.76,9.31,23.73z"/>
<path class="st33" d="M26.22,17.37c0-0.1,0.01-0.2,0.01-0.31c0.08-0.16,0.24-0.19,0.38-0.24c0.18,0.11,0.17,0.29,0.24,0.43
	C26.63,17.45,26.42,17.37,26.22,17.37z"/>
<path class="st66" d="M7.83,18.54c0.6-0.08,1.2-0.06,1.8-0.02c0.02,0.1-0.02,0.18-0.12,0.23c-0.56,0-1.12,0.09-1.68-0.05
	C7.83,18.65,7.83,18.59,7.83,18.54z"/>
<path class="st64" d="M11.8,25.34c-0.53,0-1.06,0-1.59,0c0-0.03,0-0.06,0-0.08c0.53,0,1.05,0,1.58,0
	C11.79,25.29,11.8,25.31,11.8,25.34z"/>
<path class="st41" d="M7.83,18.7c0.6,0,1.2-0.01,1.8-0.01c0,0,0.04,0.06,0.04,0.06c0,0,0,0.07,0,0.07c0,0-0.04,0.06-0.04,0.06
	c-0.6-0.01-1.2-0.01-1.81-0.02C7.83,18.8,7.83,18.75,7.83,18.7z"/>
<path class="st67" d="M9.93,15.76c0.09-0.51,0.15-0.54,0.66-0.32c-0.12,0.12-0.1,0.23,0.04,0.32c0.09,0.02,0.12,0.09,0.13,0.17
	C10.46,15.98,10.13,16.19,9.93,15.76z"/>
<path class="st41" d="M15.5,23.08c-0.01,0.15-0.02,0.29-0.19,0.34l-0.07,0l-0.07,0c-0.26-0.32-0.25-0.66-0.13-1.03
	c0.04-0.08,0.1-0.14,0.19-0.16c0.32,0.09,0.27,0.39,0.34,0.62C15.57,22.93,15.55,23.01,15.5,23.08z"/>
<path class="st68" d="M21.18,23.58c0-0.11,0-0.21-0.01-0.32c-0.21-0.18-0.26-0.41-0.19-0.67c0.02-0.07,0.04-0.14,0.07-0.2
	c0.08-0.13,0.19-0.21,0.35-0.18c0.03,0.02,0.06,0.04,0.09,0.06c-0.22,0.37-0.17,0.77-0.13,1.16c-0.01,0.05-0.03,0.1-0.06,0.14
	C21.27,23.64,21.23,23.64,21.18,23.58z"/>
<path class="st31" d="M25.74,19.02c0.05,0,0.11,0,0.16,0c0,0.51,0,1.01,0,1.52C25.67,20.04,25.77,19.52,25.74,19.02z"/>
<path class="st66" d="M25.74,17.56c0.01,0.13,0,0.28,0.17,0.34c0,0.05-0.01,0.1-0.01,0.15c-0.22-0.06-0.49,0.1-0.65-0.17
	c-0.09-0.12-0.09-0.24-0.01-0.36C25.41,17.47,25.58,17.43,25.74,17.56z"/>
<path class="st69" d="M9.6,17.23c0.11,0,0.22,0,0.34-0.01c0.21,0.26,0.24,0.53,0.02,0.8c-0.12,0-0.25-0.01-0.37-0.01
	C9.59,17.76,9.6,17.49,9.6,17.23z"/>
<path class="st70" d="M14.18,16.74c-0.08,0.24-0.28,0.19-0.46,0.19c-0.23,0.01-0.47-0.02-0.68,0.13c-0.1-0.03-0.16-0.1-0.19-0.2
	C13.27,16.61,13.73,16.79,14.18,16.74z"/>
<path class="st71" d="M15.01,23.89c-0.07,0-0.14,0-0.21,0c-0.3-0.52-0.26-1.04-0.05-1.57c0.08-0.08,0.17-0.09,0.26-0.03
	c0.07,0.39,0.08,0.77-0.01,1.16C15.02,23.59,15.02,23.74,15.01,23.89z"/>
<path class="st72" d="M23.62,22.93c-0.09-0.02-0.14-0.08-0.16-0.16c-0.07-0.09-0.06-0.16,0.04-0.22c0.31,0,0.63-0.1,0.94,0.06
	c-0.15,0.24-0.39,0.29-0.64,0.34C23.74,22.92,23.68,22.91,23.62,22.93z"/>
<path class="st73" d="M24.67,22.12c-0.08-0.01-0.17-0.02-0.25-0.04c0.01-0.11,0.02-0.23,0.04-0.34c0.14-0.12,0.14-0.33,0.3-0.45
	C25.03,21.61,25.09,21.89,24.67,22.12z"/>
<path class="st74" d="M23.31,20.31c0.46-0.35,0.98-0.07,1.47-0.16c0,0.06-0.01,0.12-0.01,0.19C24.28,20.33,23.8,20.32,23.31,20.31z"
	/>
<path class="st0" d="M7.83,20.49c0.19-0.03,0.31,0.03,0.3,0.25c-0.01,0.19,0,0.39-0.29,0.36C7.84,20.9,7.84,20.7,7.83,20.49z"/>
<path class="st75" d="M9.93,15.76c0.22,0.32,0.55,0.11,0.83,0.17c0.06,0.01,0.12,0.01,0.18,0.02c-0.38,0.22-0.77,0.22-1.16,0.01
	C9.79,15.86,9.84,15.79,9.93,15.76z"/>
<path class="st76" d="M13.85,15.75c0-0.11,0-0.22,0-0.32c0.31-0.15,0.12-0.42,0.14-0.64C14.3,15.33,14.27,15.51,13.85,15.75z"/>
<path class="st0" d="M19.1,16.86c-0.01,0.07-0.02,0.13-0.03,0.2c-0.07,0.05-0.14,0.08-0.23,0.08c-0.31-0.05-0.67,0.03-0.91-0.28
	c0-0.05,0-0.09,0-0.14c0.38-0.09,0.76-0.13,1.13,0.02C19.07,16.78,19.09,16.82,19.1,16.86z"/>
<path class="st47" d="M5.24,17.38c0.16-0.06,0.31-0.19,0.5-0.13c0.17,0.3-0.06,0.35-0.26,0.4C5.25,17.71,5.24,17.55,5.24,17.38z"/>
<path class="st0" d="M24.51,21.13c0-0.25-0.24-0.59,0.25-0.65c0.01,0.24,0.18,0.52-0.2,0.65L24.51,21.13z"/>
<path class="st0" d="M24.51,21.13l0.06-0.01c0.03,0.09,0.09,0.15,0.19,0.17c-0.04,0.19,0.17,0.54-0.3,0.45
	C24.48,21.54,24.5,21.34,24.51,21.13z"/>
<path class="st77" d="M9.11,23.43c0,0.1,0,0.19,0,0.29c-0.33-0.03-0.7,0.16-0.99-0.14C8.46,23.56,8.8,23.63,9.11,23.43z"/>
<path class="st72" d="M16.45,23.43c0,0.1-0.01,0.19-0.01,0.29c-0.33-0.01-0.69,0.17-0.98-0.13C15.8,23.57,16.14,23.62,16.45,23.43z"
	/>
<path class="st78" d="M19.06,16.74c-0.38-0.01-0.75-0.01-1.13-0.02c0.36-0.29,0.76-0.11,1.15-0.12
	C19.07,16.65,19.07,16.7,19.06,16.74z"/>
<path class="st72" d="M17.08,23.58c0.34-0.02,0.68,0.04,0.99-0.15c0,0.1,0,0.19,0,0.29C17.73,23.7,17.37,23.88,17.08,23.58z"/>
<path class="st77" d="M19.69,23.44c0.01,0.05,0.03,0.1,0.04,0.15c-0.29,0.29-0.65,0.12-0.98,0.13
	C19.01,23.42,19.43,23.69,19.69,23.44z"/>
<path class="st77" d="M21.82,23.58c0.34-0.01,0.68,0.04,0.99-0.16c-0.01,0.1-0.01,0.2-0.02,0.3C22.46,23.7,22.11,23.89,21.82,23.58z
	"/>
<path class="st33" d="M15.02,23.44c-0.01-0.39-0.02-0.78-0.03-1.17c0.05-0.04,0.1-0.04,0.16-0.02c0,0.39,0.01,0.77,0.01,1.16
	C15.11,23.42,15.06,23.43,15.02,23.44z"/>
<path class="st79" d="M22.97,23.55c0.07-0.37-0.16-0.78,0.16-1.12c0.01,0.33,0.01,0.67,0.02,1C23.12,23.51,23.06,23.56,22.97,23.55z
	"/>
<path class="st33" d="M25.91,19.03c0-0.06,0-0.12,0-0.18c-0.06-0.03-0.08-0.06-0.06-0.1c0.02-0.03,0.04-0.05,0.06-0.05l0-0.03
	c0.18,0.04,0.37-0.03,0.56,0.09C26.38,19.07,26.11,18.98,25.91,19.03z"/>
<path class="st80" d="M25.27,10.26c-0.03-0.1-0.1-0.17-0.21-0.21c0.16-0.16,0.34-0.31,0.66-0.28C25.62,10,25.45,10.14,25.27,10.26z"
	/>
<path class="st81" d="M6.72,21.31c0.13,0.16,0.16,0.31-0.01,0.46C6.5,21.52,6.5,21.52,6.72,21.31z"/>
<path class="st0" d="M7.83,21.3c0.19-0.04,0.3,0.02,0.3,0.24c0,0.22-0.11,0.27-0.3,0.24C7.83,21.62,7.83,21.46,7.83,21.3z"/>
<path class="st82" d="M8,19.99c-0.05,0-0.1,0-0.15,0c-0.05-0.25-0.03-0.47,0.21-0.62C8.29,19.6,8.06,19.79,8,19.99z"/>
<path class="st3" d="M10.62,15.75c-0.16,0-0.33,0.05-0.46-0.11c0.03-0.29,0.27-0.17,0.43-0.21C10.6,15.54,10.61,15.65,10.62,15.75z"
	/>
<path class="st83" d="M6.83,20.52c-0.15-0.01-0.3-0.02-0.45-0.03c-0.06,0.05-0.13,0.08-0.2,0.11c-0.12,0.01-0.22-0.03-0.31-0.12
	c0-0.04,0-0.08,0.01-0.12L5.87,20.3c0.27-0.08,0.54-0.09,0.8,0.01c0.06,0,0.11,0,0.17,0C6.84,20.38,6.84,20.45,6.83,20.52z"/>
<path class="st43" d="M7.64,23.12c0.01-0.23,0.02-0.46,0.02-0.69c0.31,0.28,0.12,0.64,0.14,0.97C7.66,23.36,7.66,23.24,7.64,23.12z"
	/>
<path class="st33" d="M24.43,22.6c-0.32,0-0.65,0-0.97,0c-0.04-0.04-0.05-0.07-0.04-0.11c0.01-0.03,0.03-0.05,0.04-0.05
	c0.33,0,0.65,0,0.98,0C24.44,22.49,24.44,22.55,24.43,22.6z"/>
<path class="st84" d="M21.18,23.58c0.04,0,0.09,0,0.13,0c-0.27,0.32-0.62,0.12-0.94,0.15C20.61,23.45,20.92,23.63,21.18,23.58z"/>
<path class="st85" d="M17.81,26.6c0.29-0.15,0.55-0.11,0.93-0.02C18.36,26.71,18.11,26.72,17.81,26.6z"/>
<path class="st86" d="M5.87,20.48c0.11,0,0.22,0,0.33,0c0.05,0.2,0.23,0.45-0.17,0.5C5.98,20.81,5.93,20.65,5.87,20.48z"/>
<path class="st58" d="M6.03,20.98c0.27-0.1,0.16-0.32,0.17-0.5c0.06,0,0.12,0.01,0.18,0.01c0,0.21,0,0.42,0.01,0.63
	C6.25,21.13,6.1,21.15,6.03,20.98z"/>
<path class="st31" d="M25.89,17.84c0.01-0.05,0.01-0.09,0.02-0.14c0.24,0.04,0.48-0.05,0.76,0.09
	C26.39,17.93,26.14,17.87,25.89,17.84z"/>
<path class="st0" d="M22.67,17.4c0.04,0,0.08,0.01,0.12,0.01c0.07,0.05,0.1,0.12,0.08,0.21c-0.12,0.23-0.3,0.26-0.51,0.13
	c-0.12-0.05-0.19-0.11-0.03-0.21C22.47,17.55,22.59,17.52,22.67,17.4z"/>
<path class="st87" d="M13.06,26.6c0.3-0.12,0.51-0.12,0.76-0.02C13.58,26.73,13.37,26.68,13.06,26.6z"/>
<path class="st88" d="M24.76,19.83c-0.1-0.01-0.19-0.02-0.29-0.02c-0.01-0.14-0.08-0.3,0.06-0.42
	C24.75,19.47,24.79,19.63,24.76,19.83z"/>
<path class="st89" d="M18.27,15.57c0.25,0.06,0.51,0.06,0.76,0c0,0.07,0,0.15,0,0.22c-0.27-0.02-0.53-0.04-0.8-0.05
	C18.25,15.68,18.26,15.63,18.27,15.57z"/>
<path class="st90" d="M23.62,22.93c0.07-0.15,0.12-0.12,0.17,0.01c0,0.05,0,0.1,0,0.15C23.52,23.26,23.68,22.98,23.62,22.93z"/>
<path class="st91" d="M12.88,17.38c0,0.16,0,0.32,0,0.47c-0.57,0.34-1.18,0.14-1.78,0.15c-0.17-0.26-0.03-0.45,0.14-0.64
	C11.78,17.3,12.33,17.13,12.88,17.38z"/>
<path class="st92" d="M19.19,17.89c-0.05,0.01-0.09-0.01-0.13-0.03c-0.12-0.12-0.16-0.26-0.13-0.42c0.15-0.5,0.45,0.01,0.66-0.09
	c0.26,0.16,0.53,0.21,0.81,0.06c0.28-0.03,0.5-0.41,0.84-0.16c0.05,0.11,0.05,0.21-0.01,0.31c-0.07,0.11-0.14,0.21-0.21,0.32
	C20.41,18.01,19.8,17.99,19.19,17.89z"/>
<path class="st93" d="M9.96,18.03c-0.01-0.27-0.02-0.54-0.02-0.8c0.21,0.01,0.43,0.02,0.64,0.02c0.18,0.11,0.2,0.28,0.17,0.47
	C10.67,18.3,10.23,17.94,9.96,18.03z"/>
<path class="st31" d="M22.34,18.86c0,0.06,0,0.11,0,0.17c0.4,0.98,0.32,1.95-0.09,2.91c-0.49-0.98-0.3-2.01-0.25-3.04
	c0.04-0.1,0.1-0.18,0.19-0.24c0.04,0.01,0.07,0.02,0.11,0.03l0.05-0.01c0.04,0.04,0.06,0.08,0.04,0.12
	C22.37,18.84,22.35,18.86,22.34,18.86z"/>
<path class="st94" d="M18.92,18.37c0.81,0.01,1.62,0.01,2.43,0.02c0.05,0.04,0.08,0.1,0.09,0.16c0,0.06-0.01,0.13-0.04,0.19
	c-0.05,0.12-0.11,0.24-0.22,0.32c-0.07,0.01-0.13,0-0.19-0.03c-0.05-0.04-0.1-0.08-0.15-0.13c-0.05-0.05-0.1-0.09-0.16-0.12
	c-0.51-0.1-1.03,0.02-1.54-0.08c-0.08-0.02-0.15-0.06-0.21-0.11c-0.02-0.03-0.04-0.07-0.06-0.1C18.89,18.44,18.91,18.4,18.92,18.37z
	"/>
<path class="st78" d="M21.5,17.22c0.54,0.04,0.54,0.04,0.47,0.8c-0.35,0.03-0.74,0.12-0.63-0.47C21.35,17.42,21.38,17.3,21.5,17.22z
	"/>
<path class="st95" d="M16.77,18.07c0.7,0.24,1.45,0.04,2.15,0.3c-0.03,0-0.06,0-0.08,0.01c-0.35,0.32-0.81,0.14-1.2,0.27
	c-0.38,0.01-0.75-0.01-1.04-0.31C16.55,18.18,16.66,18.12,16.77,18.07z"/>
<path class="st96" d="M10.91,18.48c0.7-0.26,1.42-0.06,2.13-0.11c0.05,0.04,0.09,0.1,0.11,0.15c0.02,0.06,0.03,0.13,0.03,0.19
	c0,0.1-0.03,0.2-0.08,0.28c-0.05,0.05-0.11,0.08-0.17,0.08c-0.06-0.02-0.12-0.06-0.16-0.11c-0.06-0.07-0.12-0.15-0.21-0.2
	c-0.5-0.11-1.01,0.05-1.5-0.12C10.98,18.61,10.93,18.56,10.91,18.48z"/>
<path class="st26" d="M19.06,17.39c0,0.16,0,0.31,0,0.47c-0.54-0.04-1.1,0.18-1.61-0.15c0.02-0.12,0.08-0.2,0.19-0.25
	c0.41-0.05,0.84,0.16,1.22-0.12C18.95,17.32,19.01,17.34,19.06,17.39z"/>
<path class="st26" d="M19.19,17.89c0.61,0,1.22-0.01,1.83-0.01C20.42,18.14,19.8,18.1,19.19,17.89z"/>
<path class="st97" d="M13.98,18.34c0.38-0.17,0.76-0.28,1.18-0.28c0.05,0.06,0.07,0.14,0.06,0.22c-0.2,0.32-0.54,0.31-0.86,0.33
	C14.2,18.57,14.06,18.5,13.98,18.34z"/>
<path class="st71" d="M9.63,18.68c-0.01-0.05-0.01-0.11-0.01-0.16c0.11-0.05,0.22-0.1,0.33-0.15c0.25,0.18,0.57-0.03,0.81,0.15
	c0.05,0,0.1-0.01,0.14-0.05l0.03,0.06c0.05,0.05,0.08,0.11,0.08,0.17c-0.01,0.07-0.04,0.12-0.09,0.17c-0.16,0.05-0.32,0-0.48,0.01
	c-0.13,0.02-0.26,0.04-0.39,0.02C9.88,18.89,9.73,18.83,9.63,18.68L9.63,18.68z"/>
<path class="st87" d="M15.48,17.56c-0.28,0.28-0.44,0.2-0.49-0.17c-0.1-0.1-0.1-0.21-0.04-0.33c0.1-0.09,0.21-0.11,0.34-0.08
	c0.16,0.07,0.25,0.19,0.29,0.36C15.57,17.42,15.54,17.5,15.48,17.56z"/>
<path class="st98" d="M15.16,18.23c0-0.05,0-0.11,0.01-0.16c0.54-0.06,1.07-0.07,1.61,0c-0.06,0.05-0.11,0.1-0.17,0.15
	C16.12,18.53,15.64,18.53,15.16,18.23z"/>
<path class="st99" d="M15.48,17.56c0-0.06,0.01-0.11,0.01-0.17c0.24-0.45,0.59-0.27,0.93-0.18c0.07,0.03,0.14,0.07,0.2,0.13
	c0.02,0.04,0.03,0.07,0.05,0.11c-0.01,0.04-0.03,0.07-0.04,0.11C16.24,17.55,15.86,17.55,15.48,17.56z"/>
<path class="st100" d="M15.03,17.05c-0.01,0.11-0.03,0.23-0.04,0.34c-0.16,0.06-0.29,0.22-0.49,0.14c-0.09-0.09-0.1-0.2-0.07-0.32
	c0.2-0.21,0.25-0.61,0.68-0.52C15.29,16.85,15.15,16.94,15.03,17.05z"/>
<path class="st101" d="M14.52,17.24c0,0.09-0.01,0.19-0.01,0.28c-0.01,0.22-0.08,0.39-0.36,0.32c0.19-0.2-0.17-0.43,0.04-0.62
	C14.3,17.14,14.41,17.13,14.52,17.24z"/>
<path class="st102" d="M11.23,17.36c0.08,0.24-0.18,0.41-0.14,0.64c-0.19-0.01-0.15-0.18-0.2-0.29c-0.11-0.14-0.35-0.25-0.1-0.47
	C10.96,17.18,11.09,17.33,11.23,17.36z"/>
<path class="st103" d="M13.98,18.34c0.12,0.05,0.27,0.02,0.35,0.15c-0.05,0.08-0.12,0.15-0.21,0.18c-0.38,0.09-0.75,0.14-1.07-0.17
	c0-0.05-0.01-0.09-0.01-0.14C13.35,18.36,13.67,18.35,13.98,18.34z"/>
<path class="st104" d="M17.65,17.54c-0.04,0.09-0.09,0.15-0.2,0.17c-0.28-0.04-0.6,0.13-0.83-0.17l-0.01,0.01
	c0.23-0.21,0.51-0.24,0.8-0.17C17.51,17.42,17.59,17.47,17.65,17.54z"/>
<path class="st77" d="M21.35,18.67c0-0.05-0.01-0.1-0.01-0.14c0.27-0.12,0.54-0.12,0.81,0c0,0.05,0.02,0.09,0.03,0.13l-0.05,0.05
	c-0.07,0.07-0.15,0.12-0.25,0.15c-0.13,0.04-0.25,0.07-0.39,0.05c-0.06-0.03-0.11-0.08-0.14-0.13
	C21.36,18.74,21.36,18.71,21.35,18.67z"/>
<path class="st105" d="M21.5,17.22c-0.04,0.12,0.01,0.28-0.16,0.33c-0.03,0-0.07,0.01-0.11,0.01c-0.02-0.11-0.04-0.22-0.06-0.33
	c-0.05-0.04-0.07-0.07-0.06-0.11c0.02-0.04,0.03-0.06,0.05-0.06C21.31,17.07,21.44,17.06,21.5,17.22z"/>
<path class="st72" d="M10.77,18.53c-0.27-0.05-0.59,0.14-0.81-0.15C10.23,18.41,10.54,18.24,10.77,18.53z"/>
<path class="st70" d="M10.79,17.25c-0.07,0.18,0.1,0.3,0.1,0.47l-0.07,0l-0.07,0c-0.2-0.1-0.13-0.31-0.17-0.47
	C10.65,17.09,10.72,17.11,10.79,17.25z"/>
<path class="st106" d="M22.16,18.53c-0.27,0-0.54,0-0.81,0c0-0.05,0-0.1,0.01-0.14C21.62,18.41,21.93,18.23,22.16,18.53z"/>
<path class="st59" d="M14.3,11.88c-0.11-0.08-0.22-0.15-0.33-0.23c0.27-0.53,0.33-1.18,0.86-1.59c0.17,0.05,0.18,0.16,0.12,0.31
	c-0.13,0.35-0.33,0.67-0.29,1.1c0.75,0.12,1.55,0,2.33,0.07c0.09,0.14-0.06,0.2-0.08,0.3c-0.01,0.07-0.05,0.09-0.12,0.07
	c-0.08-0.02-0.16-0.03-0.24-0.02c-0.09,0.02-0.17,0.04-0.26,0.04c-0.07,0-0.13-0.01-0.19-0.02c-0.28-0.06-0.55,0-0.83,0.04
	C14.96,11.9,14.61,12.12,14.3,11.88z"/>
<path class="st33" d="M16.3,11.85c0.05,0.01,0.1,0.01,0.15,0c0.06,0,0.11,0.01,0.17,0.01c0.06,0,0.11,0,0.17-0.01
	c0.04,0,0.09,0,0.13-0.01c0.03,0.07,0.07,0.14,0.14,0.29c-0.98,0.1-1.93,0.03-2.88,0.05c0.04-0.1,0.08-0.2,0.12-0.3
	c0.34,0.04,0.67-0.31,1.01-0.03C15.64,11.84,15.97,11.84,16.3,11.85z"/>
<path class="st0" d="M15.47,9.23c0.24-0.26,0.54-0.13,0.82-0.11C16.07,9.61,15.78,9.45,15.47,9.23z"/>
<path class="st107" d="M11.75,22.95c-0.05-0.06-0.1-0.12-0.15-0.18c0.31-0.68,0.79-0.36,1.24-0.23c0.07,0.07,0.1,0.15,0.11,0.24
	c-0.01,0.1-0.06,0.16-0.14,0.21c-0.09,0.02-0.17,0.01-0.25-0.04c-0.09-0.17-0.19-0.25-0.33-0.04
	C12.07,22.92,11.91,22.94,11.75,22.95z"/>
<path class="st51" d="M12.21,22.94c0.35,0.33,0.08,0.75,0.18,1.12c-0.06,0-0.12,0-0.18,0c-0.2-0.32-0.21-0.64,0.01-0.96
	C12.22,23.05,12.22,23,12.21,22.94z"/>
<path class="st77" d="M12.06,24.06c-0.25-0.32-0.26-0.63,0-0.95C12.18,23.43,12.19,23.74,12.06,24.06z"/>
<path class="st44" d="M12.06,24.06c0-0.32,0-0.63,0-0.95c0.05-0.01,0.1-0.02,0.16-0.01c0,0.32-0.01,0.64-0.01,0.96l-0.07,0.01
	L12.06,24.06z"/>
<path class="st108" d="M12.88,22.75c-0.43-0.19-0.86-0.24-1.28,0.02l-0.04-0.01c-0.18,0.35,0.05,0.75-0.14,1.1
	c-0.26-0.12-0.11-0.36-0.15-0.55c-0.04-0.19,0.1-0.43-0.17-0.54c-0.11,0.01-0.23,0.01-0.34-0.01c-0.06-0.05-0.12-0.11-0.17-0.16
	c-0.09-0.13-0.08-0.26,0-0.39c0.41-0.35,0.88-0.15,1.33-0.17c0.57-0.02,1.14,0.02,1.71-0.03c0.23-0.01,0.36-0.46,0.66-0.16
	c0.2,0.59,0.13,1.18,0.06,1.78c-0.04,0.09-0.09,0.17-0.15,0.24c-0.33-0.2-0.13-0.52-0.16-0.78c-0.03-0.21-0.07-0.36-0.32-0.32
	c-0.09-0.05-0.14,0.05-0.22,0.06c-0.06,0-0.1-0.02-0.12-0.08l-0.08-0.01l-0.08,0.02c-0.09-0.04-0.14,0.05-0.21,0.06
	C12.93,22.84,12.89,22.82,12.88,22.75z"/>
<path class="st66" d="M14.19,23.88c-0.01-0.04-0.01-0.08-0.01-0.13c0.04-0.05,0.09-0.1,0.14-0.15c0.05-0.05,0.08-0.11,0.1-0.18
	c0.11-0.51-0.06-1.04,0.13-1.55c0.11-0.18,0.25-0.15,0.39-0.05c0.06,0.05,0.09,0.12,0.11,0.2c0,0.14-0.13,0.18-0.2,0.25
	c-0.01,0.54-0.03,1.08-0.04,1.62C14.6,23.89,14.4,23.88,14.19,23.88z"/>
<path class="st66" d="M13.52,22.77c0.07-0.15,0.13-0.16,0.19,0c-0.11,0.36,0.15,0.78-0.16,1.12C13.37,23.53,13.43,23.15,13.52,22.77
	z"/>
<path class="st66" d="M13.03,22.77c0.06-0.14,0.12-0.15,0.18,0c-0.1,0.37,0.16,0.78-0.15,1.12C12.72,23.53,12.83,23.15,13.03,22.77z
	"/>
<path class="st109" d="M13.52,22.77c0.01,0.37,0.02,0.75,0.03,1.12c-0.37-0.33-0.11-0.76-0.19-1.14
	C13.42,22.75,13.47,22.76,13.52,22.77z"/>
<path class="st110" d="M13.03,22.77c0.01,0.37,0.02,0.75,0.03,1.12c-0.07,0-0.13,0-0.2,0c-0.2-0.32-0.2-0.64,0.01-0.96
	c0-0.06,0-0.12,0.01-0.18C12.93,22.75,12.98,22.76,13.03,22.77z"/>
<path class="st14" d="M12.87,22.93c0,0.32-0.01,0.64-0.01,0.96c-0.06,0-0.11-0.01-0.17-0.01c-0.1-0.31-0.1-0.63,0-0.94
	C12.76,22.94,12.82,22.93,12.87,22.93z"/>
<path class="st26" d="M12.7,22.94c0,0.31,0,0.63,0,0.94c-0.28-0.28-0.09-0.62-0.13-0.93C12.61,22.93,12.65,22.93,12.7,22.94z"/>
<path class="st59" d="M13.36,15.92c0.17-0.01,0.33-0.01,0.5-0.02c0.4,0.15,0.74-0.17,1.12-0.17c0.13-0.04,0.19,0.03,0.22,0.14
	c-0.02,0.07-0.05,0.13-0.1,0.18c-0.16,0.12-0.27,0.31-0.45,0.41c-0.08,0-0.12-0.04-0.14-0.11c-0.36-0.2-0.75-0.04-1.12-0.1
	C13.38,16.14,13.37,16.03,13.36,15.92z"/>
<path class="st111" d="M17.46,12.69c0,0.58,0,1.16,0,1.8c-0.58-0.28-0.64-1.17-0.24-1.79C17.3,12.57,17.38,12.5,17.46,12.69z"/>
<path class="st112" d="M14.36,14.45c-0.11,0.01-0.22,0.01-0.34,0.02c-0.42-0.44-0.07-1.06-0.36-1.54c-0.03-0.08-0.02-0.16,0.03-0.24
	c0.21-0.01,0.42-0.01,0.62-0.02C14.51,13.26,14.43,13.85,14.36,14.45z"/>
<path class="st113" d="M17.76,14.46c-0.39-0.56-0.07-1.19-0.17-1.77c0.17,0,0.34,0,0.51,0.01c0.04,0.08,0.04,0.16,0,0.23
	C17.84,13.4,18.16,14.01,17.76,14.46z"/>
<path class="st33" d="M13.51,14.62c-0.31-0.63-0.07-1.3-0.14-1.95c0.06,0,0.12,0,0.17,0.01c0.28,0.6,0.34,1.19,0,1.79
	C13.53,14.52,13.52,14.57,13.51,14.62z"/>
<path class="st114" d="M18.08,12.84c0-0.05,0.01-0.1,0.01-0.15c0.05-0.01,0.09-0.01,0.14,0c0.01,0.64,0.01,1.28,0.02,1.92
	c-0.05,0-0.11-0.01-0.16-0.01c0-0.05,0-0.1,0-0.14C17.84,13.91,17.84,13.37,18.08,12.84z"/>
<path class="st115" d="M13.54,14.46c0-0.6,0-1.19,0-1.79c0.05-0.01,0.1,0,0.16,0.01c0,0.05,0,0.09,0,0.14
	c0.25,0.54,0.24,1.08,0.01,1.62C13.65,14.46,13.59,14.46,13.54,14.46z"/>
<path class="st26" d="M16.46,12.7c0,0.04,0,0.09,0,0.13c0.25,0.53,0.23,1.07,0.02,1.61c-0.07,0-0.14,0-0.21,0
	c-0.3-0.6-0.31-1.19,0.03-1.78C16.36,12.68,16.41,12.69,16.46,12.7z"/>
<path class="st116" d="M16.31,12.67c-0.01,0.59-0.02,1.19-0.03,1.78l-0.06,0l-0.06-0.02c-0.4-0.58-0.3-1.17-0.02-1.77
	C16.19,12.67,16.25,12.67,16.31,12.67z"/>
<path class="st40" d="M16.13,12.67c0.01,0.59,0.01,1.18,0.02,1.77c-0.06,0-0.11,0.01-0.17,0.01c-0.35-0.53-0.33-1.07-0.02-1.6
	C15.99,12.75,16.05,12.69,16.13,12.67z"/>
<path class="st117" d="M15.67,14.44c-0.07,0-0.13,0-0.2,0c-0.34-0.59-0.29-1.18,0.02-1.77c0.05,0.06,0.11,0.11,0.16,0.17
	C15.89,13.37,15.88,13.9,15.67,14.44z"/>
<path class="st40" d="M15.49,12.67c-0.01,0.59-0.01,1.18-0.02,1.77c-0.06,0-0.11,0-0.17-0.01c-0.3-0.53-0.3-1.07,0.02-1.6
	C15.34,12.75,15.4,12.69,15.49,12.67z"/>
<path class="st26" d="M14.99,12.84c0-0.05,0-0.1,0-0.15c0.1,0,0.15,0.06,0.19,0.15c0.1,0.53,0.09,1.07,0.01,1.6
	c-0.07,0-0.14,0-0.21,0C14.76,13.91,14.74,13.37,14.99,12.84z"/>
<path class="st118" d="M14.36,14.45c-0.01-0.59-0.03-1.18-0.04-1.78c0.07,0,0.13,0,0.2,0C14.41,13.26,14.68,13.88,14.36,14.45z"/>
<path class="st116" d="M15.18,14.45c0-0.53,0-1.07-0.01-1.6c0.05-0.01,0.09-0.01,0.14-0.01c-0.01,0.53-0.01,1.06-0.02,1.6
	l-0.06,0.02L15.18,14.45z"/>
<path class="st119" d="M15.97,12.84c0.01,0.53,0.01,1.07,0.02,1.6c-0.07,0-0.13,0-0.2,0c-0.07-0.54-0.12-1.08,0.03-1.61
	C15.86,12.83,15.92,12.83,15.97,12.84z"/>
<path class="st116" d="M15.81,12.83c-0.01,0.54-0.02,1.07-0.03,1.61l-0.06,0.01l-0.06-0.01c0-0.53-0.01-1.06-0.01-1.6
	C15.71,12.83,15.76,12.83,15.81,12.83z"/>
<path class="st98" d="M14.98,15.62c-0.15-0.01-0.3-0.02-0.45-0.03c-0.18-0.26-0.14-0.53-0.02-0.8c0.82,0,1.64,0,2.42,0
	c0.24,0.19,0.12,0.42,0.15,0.62c-0.18,0.2-0.46,0.09-0.67,0.2c-0.33-0.02-0.67-0.07-0.99,0.04C15.27,15.66,15.13,15.67,14.98,15.62z
	"/>
<path class="st120" d="M17.74,15.94c0.3,0.25,0.67,0.04,0.99,0.16c-0.4,0.35-0.9,0.03-1.32,0.21c-0.1-0.01-0.2-0.03-0.3-0.04
	c-0.02-0.03-0.04-0.05-0.06-0.08c-0.02-0.07-0.02-0.13,0-0.2c0.06-0.08,0.12-0.16,0.23-0.07C17.43,15.93,17.58,15.93,17.74,15.94z"
	/>
<path class="st121" d="M16.28,15.46c0.27-0.02,0.54-0.04,0.81-0.06c0,0.32-0.41,0.1-0.46,0.35c0,0.16-0.05,0.3-0.2,0.38
	c-0.27,0-0.44-0.16-0.47-0.41C15.93,15.51,16.16,15.54,16.28,15.46z"/>
<path class="st122" d="M16.48,16.07c-0.02-0.14,0.01-0.25,0.15-0.32c0.22,0.03,0.47-0.04,0.65,0.17c-0.09,0.03-0.15,0.09-0.17,0.19
	c-0.1,0.09-0.2,0.18-0.34,0.2C16.61,16.29,16.5,16.23,16.48,16.07z"/>
<path class="st123" d="M14.98,15.62c0.12-0.06,0.24-0.11,0.35-0.17c0.16,0.1,0.47,0.1,0.33,0.4c-0.11,0.24-0.33,0.21-0.52,0.06
	c-0.01-0.1-0.08-0.15-0.17-0.18C14.99,15.7,14.99,15.66,14.98,15.62z"/>
<path class="st76" d="M14.51,14.79c-0.05,0.27-0.06,0.54,0.02,0.8C14.21,15.33,14.25,15.06,14.51,14.79z"/>
<path class="st53" d="M13.7,14.45c0-0.54-0.01-1.08-0.01-1.62c0.28-0.04,0.38,0.1,0.37,0.37c-0.02,0.42-0.02,0.84-0.03,1.27
	C13.92,14.46,13.81,14.46,13.7,14.45z"/>
<path class="st124" d="M18.08,12.84c0,0.54,0,1.08,0,1.61c-0.11,0-0.22,0.01-0.32,0.01c-0.01-0.42-0.02-0.84-0.04-1.25
	C17.72,12.95,17.8,12.8,18.08,12.84z"/>
<path class="st125" d="M14.99,12.84c-0.01,0.54-0.01,1.07-0.02,1.61l-0.08,0l-0.08-0.02c-0.1-0.53-0.11-1.05,0-1.58
	C14.88,12.85,14.93,12.84,14.99,12.84z"/>
<path class="st116" d="M14.82,12.85c0,0.53,0,1.05,0,1.58C14.58,13.9,14.57,13.37,14.82,12.85z"/>
<path class="st126" d="M16.62,12.84c0.25,0.53,0.24,1.06,0,1.58C16.49,13.9,16.49,13.37,16.62,12.84z"/>
<path class="st127" d="M16.62,12.84c0,0.53,0,1.06,0,1.58l-0.07,0.02l-0.08,0c-0.01-0.54-0.01-1.08-0.02-1.61
	C16.51,12.84,16.57,12.84,16.62,12.84z"/>
<path class="st128" d="M14.51,16.35c0.05,0.03,0.1,0.04,0.15,0.03c0.21-0.04,0.44-0.18,0.58,0.12c0.02,0.12,0,0.22-0.12,0.29
	c-0.36-0.06-0.33,0.4-0.6,0.45c-0.11-0.01-0.22-0.01-0.33-0.02c0.03-0.24,0.33-0.35,0.28-0.63C14.48,16.52,14.5,16.43,14.51,16.35z"
	/>
<path class="st41" d="M10.76,22.77c0.12-0.2,0.23-0.19,0.34,0.01c-0.02,0.36-0.04,0.72-0.05,1.08
	C10.66,23.53,10.83,23.13,10.76,22.77z"/>
<path class="st98" d="M10.45,22.61c0,0.4,0,0.8,0,1.15c-0.25,0.22-0.46,0.13-0.66,0.12c-0.04-0.04-0.06-0.09-0.05-0.13
	c0.01-0.05,0.02-0.07,0.03-0.07c0.05-0.06,0.1-0.12,0.16-0.18c0.33-0.48-0.13-1.16,0.4-1.58C10.67,22.09,10.5,22.36,10.45,22.61z"/>
<path class="st102" d="M9.78,23.72c0,0.05,0,0.1,0.01,0.16l-0.08,0.01c0,0-0.08-0.01-0.08-0.01c0-0.59-0.01-1.18-0.01-1.77
	c0.03-0.22,0.12-0.24,0.26-0.08C10.04,22.61,10.14,23.18,9.78,23.72z"/>
<path class="st129" d="M10.45,22.61c-0.09-0.21,0.14-0.51-0.18-0.65c-0.05-0.05-0.07-0.12-0.08-0.19c0-0.18-0.03-0.37,0.06-0.54
	c0.08-0.1,0.18-0.16,0.31-0.14c0.08,0.04,0.13,0.11,0.17,0.19c0.1,0.35,0.12,0.7-0.13,1c-0.01,0.11-0.01,0.22-0.02,0.33l-0.06-0.01
	L10.45,22.61z"/>
<path class="st41" d="M11.42,23.87c0.06-0.37-0.15-0.77,0.14-1.1C11.5,23.13,11.74,23.53,11.42,23.87z"/>
<path class="st130" d="M15.12,16.79c0.01-0.12,0.02-0.25,0.04-0.37c-0.13-0.13-0.24-0.26-0.13-0.45c0.04-0.02,0.08-0.04,0.12-0.05
	c0.15-0.01,0.33,0.07,0.44-0.11c0.08-0.23-0.24-0.18-0.25-0.35c0.31-0.07,0.63-0.12,0.94,0c-0.07,0.08-0.14,0.15-0.22,0.25
	c0.07,0.17,0.2,0.32,0.43,0.36c0.1,0.06,0.2,0.12,0.3,0.18c0.11-0.09,0.21-0.1,0.32,0.01l0.01,0.01c0.11,0.15,0.21,0.31,0.32,0.46
	c0.17,0.21,0.41,0.4,0.14,0.7c-0.22-0.01-0.44,0.02-0.66,0c-0.18-0.17-0.39-0.2-0.62-0.21c-0.3-0.15-0.65,0.04-0.95-0.13
	c-0.1-0.01-0.2-0.02-0.3-0.03C14.99,16.94,15.07,16.87,15.12,16.79z"/>
<path class="st92" d="M17.45,17.42c0.4-0.24-0.11-0.46-0.02-0.7c0.17,0.05,0.33,0.1,0.5,0.15c0.31,0.13,0.7-0.11,0.98,0.19
	c0.09,0.12,0.1,0.24-0.01,0.36c-0.01,0.19-0.09,0.29-0.3,0.31c-0.34,0.03-0.64-0.06-0.95-0.18c-0.06,0-0.13,0.01-0.19,0.01
	c-0.06-0.02-0.08-0.05-0.07-0.08C17.41,17.43,17.43,17.42,17.45,17.42z"/>
<path class="st83" d="M21.84,18.69c0.1,0.01,0.2,0.01,0.3,0.02c0,1.04,0,2.08,0,3.12c0.07,0,0.13,0,0.2,0c0-0.93,0-1.87,0-2.8
	c0.49,0.04,1-0.18,1.46,0.16c0,0.21,0,0.42,0.01,0.63c-0.26,0.41-0.33-0.17-0.53-0.11c-0.2,0.17-0.08,0.39-0.13,0.59
	c0.05,0.11,0.1,0.23,0.15,0.34c0.15,0.44,0.08,0.87-0.08,1.3c-0.11,0.16-0.3,0.18-0.46,0.26c-0.35,0.16-0.69,0.17-1.03-0.02
	c-0.23-0.22,0.04-0.41,0.03-0.62C21.83,20.61,21.65,19.64,21.84,18.69z"/>
<path class="st131" d="M23.13,21.92c0.03-0.43-0.09-0.88,0.17-1.28c0.07-0.02,0.15-0.05,0.3-0.1c0.03,0.55,0.14,1.07-0.13,1.57
	l-0.08,0l-0.08-0.01C23.2,22.09,23.14,22.03,23.13,21.92z"/>
<path class="st132" d="M23.81,21.29c0-0.25-0.1-0.51,0.04-0.76c0.42,0.08,0.42,0.08,0.26,0.61C24.04,21.25,23.98,21.36,23.81,21.29z
	"/>
<path class="st110" d="M23.81,21.29c0.1-0.05,0.2-0.1,0.3-0.16c0.17,0.32,0.25,0.62-0.19,0.82C23.7,21.74,23.79,21.51,23.81,21.29z"
	/>
<path class="st96" d="M22.83,17.58c-0.01-0.06-0.02-0.12-0.04-0.18c0.79,0,1.59-0.01,2.38-0.01c0.2,0,0.43-0.08,0.57,0.17
	c-0.16,0.01-0.32,0.02-0.48,0.02c-0.26,0.16-0.54,0.18-0.83,0.17c-0.15,0-0.29-0.12-0.45-0.03c-0.22-0.2-0.45,0.04-0.67-0.01
	C23.13,17.72,22.96,17.73,22.83,17.58z"/>
<path class="st133" d="M22.83,17.58c0.18-0.03,0.37-0.09,0.48,0.13c-0.2,0.49-0.62,0.31-0.98,0.33c0.01-0.1,0.02-0.19,0.03-0.29
	C22.53,17.72,22.73,17.8,22.83,17.58z"/>
<path class="st134" d="M24.27,17.58c0.33-0.04,0.66-0.05,0.99,0c0,0.1-0.01,0.2-0.01,0.3c-0.11,0-0.21,0-0.32-0.01
	c-0.06,0-0.12,0-0.18,0c-0.06,0-0.12,0-0.18-0.01c-0.06,0-0.12-0.01-0.18-0.03c-0.06-0.02-0.11-0.05-0.16-0.1
	C24.21,17.68,24.22,17.62,24.27,17.58z"/>
<path class="st1" d="M24.27,17.58c0,0.05,0.01,0.1,0.01,0.15c0.09,0.1,0.09,0.2,0,0.31c-0.19-0.02-0.15-0.27-0.31-0.32
	C24.01,17.54,24.14,17.55,24.27,17.58z"/>
<path class="st135" d="M24.28,18.04c0-0.1,0-0.21,0-0.31c0.05-0.02,0.09-0.02,0.14-0.01c0.11,0.1,0.11,0.21,0,0.32l-0.07,0
	L24.28,18.04z"/>
<path class="st136" d="M24.76,17.72c0.09,0.02,0.14,0.07,0.17,0.15c-0.02,0.09-0.08,0.14-0.17,0.16
	C24.67,17.93,24.67,17.83,24.76,17.72z"/>
<path class="st62" d="M24.43,18.04c0-0.11,0-0.21,0-0.32c0.06,0,0.12,0,0.18,0c0.09,0.11,0.09,0.22-0.01,0.32
	C24.54,18.04,24.49,18.04,24.43,18.04z"/>
<path class="st137" d="M24.6,18.04c0-0.11,0-0.22,0.01-0.32c0.05,0,0.1,0,0.15,0c0,0.11,0,0.21,0,0.32
	C24.71,18.04,24.65,18.04,24.6,18.04z"/>
<path class="st48" d="M18.89,17.41c0-0.12,0.01-0.24,0.01-0.36c0.05,0.01,0.1,0.01,0.16,0.01c0.7,0,1.41,0,2.11,0
	c0,0.06,0,0.11,0,0.17c-0.28-0.03-0.41,0.27-0.65,0.31c-0.35,0.24-0.65-0.06-0.98-0.11c-0.12-0.03-0.27,0.16-0.35-0.09
	c-0.03-0.1-0.11-0.02-0.13,0.05C19.01,17.4,18.95,17.41,18.89,17.41z"/>
<path class="st132" d="M8.45,20.47c0.13,0.02,0.28-0.21,0.38,0.05c0.16,0.18,0.16,0.38,0.07,0.59c-0.1,0.15-0.22,0.26-0.42,0.19
	C8.39,21.02,8.16,20.76,8.45,20.47z"/>
<path class="st132" d="M8.48,21.3c0.1-0.05,0.2-0.11,0.29-0.16c0.21,0.01,0.33,0.14,0.41,0.31c0.01,0.07-0.01,0.14-0.06,0.2
	c-0.23,0.09-0.47,0.31-0.71,0.06C8.31,21.59,8.32,21.41,8.48,21.3z"/>
<path class="st72" d="M9.46,22.12c0,0.05,0,0.11,0,0.16c-0.06,0.08-0.12,0.08-0.18,0c-0.1,0-0.19,0-0.29,0.01
	c-0.24,0.23-0.53,0.21-0.83,0.15c-0.11-0.06-0.22-0.11-0.33-0.17c0-0.05,0-0.1,0-0.14C8.37,22.12,8.91,22.12,9.46,22.12z"/>
<path class="st138" d="M9.78,21.96c-0.09,0.02-0.14,0.07-0.16,0.16c-0.06,0-0.11,0-0.17,0c-0.02-0.19-0.3-0.15-0.3-0.35
	c0.1-0.09,0.04-0.25,0.14-0.35c0.09-0.06,0.19-0.07,0.29-0.04c0.07,0.02,0.12,0.06,0.18,0.11c0.07,0.08,0.11,0.18,0.12,0.29
	C9.86,21.84,9.83,21.91,9.78,21.96z"/>
<path class="st0" d="M9.32,21.48c-0.04,0.1-0.01,0.25-0.17,0.28c-0.01-0.04-0.02-0.08-0.03-0.12c0-0.07,0-0.14,0-0.21
	c-0.04-0.07-0.03-0.13,0.05-0.17C9.29,21.29,9.37,21.34,9.32,21.48z"/>
<path class="st102" d="M12.07,24.54c1.19,0.01,2.38,0.02,3.58,0.02c-0.46,0.33-0.98,0.07-1.47,0.15c-0.54,0-1.08,0-1.62,0
	C12.38,24.71,12.17,24.77,12.07,24.54z"/>
<path class="st102" d="M15.98,24.54c1.14,0.01,2.28,0.01,3.41,0.02c-0.52,0.33-1.09,0.08-1.63,0.16c-0.46,0-0.92,0-1.38,0
	C16.22,24.72,16.06,24.73,15.98,24.54z"/>
<path class="st8" d="M6.68,20.3c-0.27,0-0.53,0-0.8-0.01C6.14,20.1,6.41,20.09,6.68,20.3z"/>
<path class="st139" d="M23.13,21.92c0.06,0.06,0.12,0.13,0.17,0.19c0.06,0.11,0.11,0.22,0.17,0.33c0,0.05-0.01,0.11,0,0.16
	c0,0.06,0,0.11,0,0.17c-0.11-0.11-0.22-0.22-0.33-0.33c-0.06-0.15-0.19-0.15-0.32-0.16c-0.04-0.04-0.05-0.07-0.04-0.11
	c0.01-0.04,0.03-0.05,0.04-0.05C22.87,21.97,23,21.95,23.13,21.92z"/>
<path class="st33" d="M22.34,18.86c0-0.06,0.01-0.12,0.01-0.18c1.19,0.01,2.37,0.02,3.56,0.02c0,0.05,0,0.1,0,0.15
	C24.72,18.86,23.53,18.86,22.34,18.86z"/>
<path class="st140" d="M16.97,22.28c-0.01-0.05-0.01-0.11,0-0.16c0.19-0.28,0.56-0.16,0.81-0.4c0.26-0.9-0.14-1.9,0.24-2.83
	c0.07-0.07,0.16-0.09,0.25-0.05c0.32,0.44,0.17,0.94,0.21,1.42c0.04,0.45-0.11,0.92,0.13,1.35c0.29,0.46,0.84,0.18,1.21,0.43
	c0.08,0.06,0.09,0.13,0.04,0.21c-0.26,0.09-0.08,0.44-0.32,0.54c-0.12,0.06-0.03,0.26-0.19,0.29c-0.2,0-0.4,0.21-0.61,0
	c-0.04-0.24-0.12-0.47-0.33-0.62c-0.1-0.03-0.13-0.13-0.21-0.17l-0.05,0l-0.05-0.01C17.73,22.54,17.35,22.57,16.97,22.28z"/>
<path class="st71" d="M17.3,23.09c-0.07-0.06-0.13-0.13-0.2-0.19c-0.08-0.13-0.07-0.25,0.03-0.36c0.26-0.13,0.52-0.12,0.78,0
	c0.08,0.07,0.09,0.15,0.02,0.23c-0.01,0.1-0.01,0.21-0.02,0.31C17.71,23.3,17.5,23.06,17.3,23.09z"/>
<path class="st8" d="M17.11,22.6c-0.01,0.1-0.01,0.2-0.02,0.3c-0.27-0.16-0.09-0.41-0.13-0.61c0.38,0,0.76,0,1.14-0.01
	c-0.06,0.16,0.04,0.38-0.18,0.49c0-0.05,0-0.11,0-0.16C17.65,22.47,17.38,22.47,17.11,22.6z"/>
<path class="st44" d="M18.21,22.28c0.11,0.01,0.18,0.07,0.21,0.17c0,0.28,0,0.57,0,0.85c-0.04,0-0.09,0-0.13,0
	C18.27,22.97,18.24,22.63,18.21,22.28z"/>
<path class="st141" d="M9.29,20.32C9.29,20.16,9.3,20,9.31,19.84c-0.03-0.14-0.11-0.25-0.19-0.37c-0.09-0.11-0.21-0.18-0.27-0.31
	c0.21-0.29,0.5-0.09,0.76-0.13c0.35,0.45,0.28,0.93,0.08,1.42C9.5,20.58,9.34,20.62,9.29,20.32z"/>
<path class="st73" d="M8.85,19.16c0.16,0.04,0.36-0.03,0.43,0.2c-0.07,0.15,0.02,0.35-0.15,0.47C9.07,19.98,8.95,20,8.81,19.99
	c0-0.06-0.01-0.11-0.01-0.17c-0.17-0.21-0.16-0.43,0-0.64L8.85,19.16z"/>
<path class="st142" d="M9.65,20.49C9.64,20,9.62,19.52,9.61,19.03c0.01-0.05,0.01-0.11,0.02-0.16l-0.01-0.02
	c0.64,0.28,0.29,0.83,0.35,1.28c-0.02,0.09-0.05,0.17-0.09,0.25C9.82,20.46,9.75,20.49,9.65,20.49z"/>
<path class="st132" d="M8.8,19.18c0,0.21,0,0.43,0,0.64c-0.24,0.03-0.34-0.08-0.34-0.32C8.46,19.27,8.55,19.15,8.8,19.18z"/>
<path class="st143" d="M9.65,20.49c0.05-0.01,0.09-0.01,0.14-0.02c0.02,0.03,0.04,0.07,0.05,0.1c0,0.31,0.02,0.62-0.21,0.88
	c-0.1,0.01-0.21,0.02-0.31,0.03c-0.06-0.06-0.11-0.11-0.17-0.17c-0.23-0.24-0.22-0.5-0.05-0.77c0.03-0.1,0.09-0.18,0.19-0.22
	C9.36,20.49,9.49,20.51,9.65,20.49z"/>
<path class="st102" d="M9.1,20.54c0.02,0.26,0.04,0.51,0.05,0.77c-0.01,0.04-0.03,0.08-0.04,0.12c-0.17-0.04-0.25-0.17-0.34-0.3
	c0.02-0.21,0.04-0.41,0.05-0.62C8.92,20.52,9.01,20.53,9.1,20.54z"/>
<path class="st144" d="M9.13,19.83c0-0.17-0.11-0.38,0.15-0.47c0.02,0.16,0.3,0.3,0.03,0.48C9.25,19.84,9.19,19.83,9.13,19.83z"/>
<path class="st72" d="M22.81,22.12c0,0.05,0,0.11,0,0.16c-0.01,0.32-0.21,0.5-0.47,0.64c-0.06,0.01-0.12,0.01-0.17,0.02
	c-0.06,0-0.12,0-0.18-0.01c-0.13-0.08-0.29-0.13-0.23-0.34c0.05-0.21-0.11-0.26-0.25-0.32l0,0.01c-0.04-0.04-0.06-0.08-0.05-0.12
	c0.01-0.05,0.02-0.07,0.03-0.07c0.07-0.04,0.14-0.04,0.21,0C22.06,22.16,22.44,22.12,22.81,22.12z"/>
<path class="st69" d="M21.99,22.94c0.03-0.09,0.09-0.15,0.19-0.17c0.07,0.17,0.12,0.34-0.04,0.48c-0.05-0.06-0.09-0.11-0.14-0.17
	C22,23.04,21.99,22.99,21.99,22.94z"/>
<path class="st145" d="M22.13,23.25c0.01-0.16,0.03-0.32,0.04-0.48c0.05,0.05,0.11,0.1,0.16,0.15c0,0.06,0,0.12,0,0.18
	C22.3,23.19,22.24,23.25,22.13,23.25z"/>
<path class="st145" d="M19.36,23.07c0.04-0.11,0.01-0.27,0.19-0.29c0,0.16,0.01,0.31,0.01,0.47C19.45,23.24,19.39,23.17,19.36,23.07
	z"/>
<path class="st140" d="M8.16,22.78c-0.11-0.06-0.18-0.11-0.01-0.18c0.32-0.22,0.64-0.2,0.96,0.02C9.05,22.77,9,22.92,8.95,23.08
	c-0.2,0.2-0.4-0.01-0.6,0C8.18,23.04,8.28,22.85,8.16,22.78z"/>
<path class="st145" d="M8.16,22.78c0.18,0.02,0.14,0.18,0.19,0.29c-0.03,0.09-0.1,0.16-0.19,0.19C8.16,23.11,8.16,22.94,8.16,22.78z
	"/>
<path class="st71" d="M15.5,23.08c-0.01-0.05-0.02-0.1-0.02-0.15c-0.1-0.14-0.09-0.27,0.02-0.39c0.33-0.19,0.65-0.18,0.94,0.08
	c-0.05,0.06-0.11,0.11-0.16,0.17c-0.11,0.07-0.02,0.26-0.18,0.29C15.9,23.07,15.7,23.29,15.5,23.08z"/>
<path class="st146" d="M16.1,23.07c0.04-0.11,0.02-0.26,0.18-0.29c0,0.16,0.01,0.31,0.01,0.47C16.2,23.23,16.14,23.17,16.1,23.07z"
	/>
<path class="st147" d="M19.87,22.24c0-0.03,0-0.06,0-0.09c0.06-0.13,0.16-0.14,0.28-0.13c0.16,0.05,0.25,0.16,0.3,0.31
	c0.01,0.07,0.01,0.14,0,0.21c-0.1,0.09-0.12,0.19,0,0.29c0.05,0.22-0.11,0.31-0.25,0.42c0,0.05,0,0.11,0,0.16
	c-0.06,0-0.11-0.01-0.17-0.01c-0.12-0.33-0.12-0.66,0-0.98C19.98,22.36,19.93,22.3,19.87,22.24z"/>
<path class="st77" d="M20.04,22.42c0,0.33,0,0.66,0,0.98C19.77,23.08,19.8,22.75,20.04,22.42z"/>
<path class="st92" d="M18.12,18.86c0,1.05,0,2.1,0,3.16c-0.41,0.21-0.79,0.1-1.16,0.11c-0.12,0-0.24,0.01-0.37,0.01
	c-0.03-0.02-0.07-0.03-0.1-0.05c-0.05-0.05-0.08-0.12-0.09-0.2c0.02-0.12,0.09-0.21,0.17-0.29c0.05-0.06,0.09-0.13,0.12-0.21
	c0.06-0.62,0.01-1.23,0.03-1.84c0.01-0.32-0.04-0.65,0.22-0.91c0.28-0.1,0.56-0.04,0.84,0.03c0.13,0.92,0.03,1.84,0.06,2.69
	c0.01-0.8-0.02-1.69,0.01-2.58C18.01,18.57,18.07,18.7,18.12,18.86z"/>
<path class="st148" d="M14.85,22.27c-0.01-0.1,0.05-0.15,0.14-0.16c0.55-0.34,1.09-0.3,1.62,0.02l-0.01,0
	c0.01,0.04,0.01,0.08,0.01,0.12c-0.06,0-0.12,0.01-0.18,0.01c-0.36,0.23-0.71,0.24-1.07,0c-0.07,0-0.15-0.01-0.22-0.01
	c-0.05,0-0.11,0-0.16,0.02l-0.07,0L14.85,22.27z"/>
<path class="st110" d="M16.76,23.4c-0.27-0.29-0.08-0.64-0.14-0.96C16.93,22.72,16.74,23.08,16.76,23.4z"/>
<path class="st149" d="M9.11,22.62c-0.32-0.01-0.64-0.01-0.96-0.02c0-0.06,0-0.11,0-0.17c0.23-0.29,0.55-0.11,0.83-0.15
	C9.03,22.4,9.07,22.51,9.11,22.62z"/>
<path class="st127" d="M9.28,22.28c0.06,0,0.12,0,0.18,0c-0.07,0.42,0.16,0.88-0.15,1.28C9.3,23.13,9.29,22.71,9.28,22.28z"/>
<path class="st128" d="M15.36,22.27c0.36,0,0.71,0,1.07,0c0.03,0.05,0.03,0.1,0.02,0.15c-0.29,0.23-0.68-0.04-0.97,0.18
	c0,0.11,0,0.21,0,0.32C15.2,22.75,15.36,22.5,15.36,22.27z"/>
<path class="st150" d="M15.48,22.6c0.28-0.33,0.65-0.09,0.97-0.18c0,0.06,0,0.13,0,0.19C16.13,22.61,15.8,22.61,15.48,22.6z"/>
<path class="st139" d="M20.38,22.77c-0.13-0.05-0.16-0.11-0.01-0.17c0.27-0.22,0.54-0.22,0.81,0c-0.19,0.22,0.02,0.44,0,0.66
	c-0.18,0.08-0.35,0.14-0.32-0.17C20.68,23.01,20.5,22.94,20.38,22.77z"/>
<path class="st151" d="M20.38,22.77c0.24-0.01,0.4,0.1,0.48,0.32c-0.2,0.11-0.41,0.19-0.65,0.16
	C20.26,23.09,20.39,22.96,20.38,22.77z"/>
<path class="st26" d="M9.78,20.31c-0.1-0.48,0.19-1.01-0.16-1.46c0-0.06,0-0.11,0.01-0.17c0.16,0.05,0.38-0.07,0.47,0.17
	C10.12,19.37,10.43,19.94,9.78,20.31z"/>
<path class="st15" d="M20.37,22.44c-0.06-0.1-0.11-0.2-0.17-0.3c0.26-0.31,0.6-0.23,0.94-0.22c0.15,0.02,0.28,0.08,0.37,0.2
	c0,0.06,0,0.11,0,0.17c-0.14-0.01-0.27,0-0.33,0.16C20.91,22.56,20.64,22.56,20.37,22.44z"/>
<path class="st33" d="M20.37,22.44c0.27,0,0.54,0,0.81,0c0,0.05,0,0.11,0,0.16c-0.27,0-0.54,0-0.81,0
	C20.37,22.55,20.37,22.49,20.37,22.44z"/>
<path class="st26" d="M19.55,17.43c0.13-0.05,0.24-0.25,0.4-0.05c0.16,0.19,0.36,0.18,0.57,0.16C20.01,17.81,19.85,17.8,19.55,17.43
	z"/>
<path class="st71" d="M18.88,18.51c0.06,0,0.11,0.01,0.17,0.01c0.06,0.06,0.12,0.14,0.16,0.22c0.03,0.09,0.05,0.18,0.06,0.27
	c0.01,0.09,0.02,0.19,0.02,0.28c-0.07,0.83,0.16,1.69-0.29,2.49c-0.53-0.92-0.26-1.91-0.3-2.87c0.01-0.1,0.04-0.19,0.09-0.28
	C18.82,18.59,18.85,18.55,18.88,18.51z"/>
<path class="st152" d="M19.08,19.03c0-0.05,0-0.11,0-0.16c0.64-0.26,1.29-0.26,1.93,0c0.01,0.05,0.02,0.1,0.03,0.15
	c-0.02,0.03-0.04,0.06-0.06,0.09c-0.47,0.13-0.37,0.62-0.59,0.91c-0.12,0.05-0.21-0.01-0.28-0.1c-0.12-0.2-0.09-0.49-0.35-0.6
	C19.54,19.19,19.26,19.22,19.08,19.03z"/>
<path class="st41" d="M21.18,19.01c0.01-0.14,0.02-0.28,0.17-0.34l-0.01,0.03c0.39,1,0.3,2.02,0.07,3.04
	c-0.09,0.08-0.18,0.09-0.28,0.02C20.87,20.84,20.81,19.92,21.18,19.01z"/>
<path class="st33" d="M21.18,19.01c0,0.92,0,1.85,0,2.77c-0.04,0.01-0.07,0.03-0.11,0.04c-0.07-0.03-0.13-0.08-0.17-0.15
	c-0.14-0.4-0.03-0.82-0.13-1.22c-0.01-0.04-0.01-0.07-0.02-0.11c-0.01-0.07,0-0.15,0.01-0.22c0.02-0.15,0.05-0.3,0.05-0.45
	c0.01-0.23,0.02-0.47,0.18-0.66l0.04-0.02C21.09,19.01,21.13,19.02,21.18,19.01z"/>
<path class="st33" d="M21.01,18.86c-0.64,0-1.29,0-1.93,0c0-0.06-0.01-0.11-0.01-0.17c0.65-0.12,1.31-0.14,1.96,0.01
	C21.02,18.75,21.01,18.81,21.01,18.86z"/>
<path class="st153" d="M21.02,18.7c-0.65,0-1.3-0.01-1.96-0.01c0-0.05-0.01-0.11-0.01-0.16c0.53-0.01,1.06-0.01,1.59-0.02
	C20.79,18.51,20.96,18.5,21.02,18.7z"/>
<path class="st154" d="M17.61,18.5c0.39-0.25,0.82-0.06,1.23-0.13c0.04,0.04,0.06,0.08,0.05,0.14l0.01,0
	c-0.24,0.27-0.53,0.2-0.83,0.12c-0.08-0.01-0.17-0.02-0.25-0.02C17.73,18.62,17.66,18.58,17.61,18.5z"/>
<path class="st128" d="M17.61,18.5c0.05,0.02,0.1,0.04,0.15,0.06c0.05,0.03,0.07,0.05,0.05,0.08c-0.01,0.03-0.03,0.05-0.04,0.05
	c-0.27,0.01-0.53,0.01-0.8,0.02c-0.07,0.05-0.14,0.09-0.21,0.13c-0.08,0.03-0.16,0.05-0.24,0.05c-0.37,0.02-0.75,0.01-1.12,0.02
	c-0.08,0-0.17,0-0.25,0c-0.29-0.01-0.59,0.02-0.86-0.14c-0.07-0.06-0.1-0.13-0.08-0.22c0.05-0.02,0.1-0.04,0.14-0.06
	c0.27-0.1,0.59-0.06,0.83-0.26c0.48,0,0.96-0.01,1.44-0.01C16.92,18.36,17.25,18.5,17.61,18.5z"/>
<path class="st155" d="M10.6,22.27c-0.02-0.38-0.05-0.76-0.07-1.14c0.41-0.09,0.26,0.24,0.32,0.43c0-0.17-0.03-0.33,0.07-0.47
	c0.23-0.17,0.28-0.36,0.04-0.57c-0.1-0.21,0.04-0.28,0.2-0.34c0.23-0.03,0.42,0.03,0.54,0.24c0.08,0.19,0.1,0.39,0.07,0.6
	c0,0.12-0.05,0.25,0.06,0.36c-0.01-0.09-0.02-0.16-0.01-0.25c0.06-0.28-0.04-0.57,0.06-0.84c0.12-0.13,0.3-0.13,0.44-0.18
	c-0.11-0.18-0.44-0.13-0.42-0.43c-0.04-0.22-0.02-0.42,0.09-0.62c0.28-0.29,0.57-0.29,0.88-0.04l0.03-0.02
	c0.16,0.93,0.01,1.86,0.06,2.58c0.08-0.72-0.07-1.65,0.06-2.58c0.01-0.1,0.02-0.21,0.04-0.31c0.19-0.05,0.25,0.08,0.31,0.21
	c0.18,0.85,0.02,1.72,0.11,2.58c0.03,0.31,0.64,0.32,0.39,0.78C12.77,22.27,11.68,22.27,10.6,22.27z"/>
<path class="st51" d="M12.86,19.03c-0.28,0.03-0.6-0.15-0.81,0.17c-0.11,0.1-0.24,0.13-0.39,0.11c-0.2-0.05-0.39-0.11-0.59-0.15
	c-0.07-0.02-0.12-0.06-0.17-0.11c-0.03-0.07-0.02-0.13,0.03-0.18c0.01-0.06,0.01-0.13,0.02-0.19c0.64-0.1,1.27-0.1,1.91,0
	C12.86,18.79,12.86,18.91,12.86,19.03z"/>
<path class="st156" d="M13.01,19.01c0,0.94,0,1.88,0,2.81c-0.04,0-0.08,0-0.12,0c0-0.94,0-1.88,0-2.82
	C12.93,19.01,12.97,19.02,13.01,19.01z"/>
<path class="st66" d="M12.86,18.68c-0.64,0-1.27,0-1.91,0c-0.01-0.04-0.02-0.09-0.01-0.13C11.57,18.57,12.23,18.33,12.86,18.68z"/>
<path class="st140" d="M13.24,18.86c-0.04-0.08-0.09-0.16-0.2-0.16c0-0.07,0-0.13,0-0.2c0.38,0.01,0.76,0.03,1.14,0.04
	c-0.01,0.05-0.01,0.09-0.01,0.14c-0.02,0.02-0.04,0.05-0.05,0.07c-0.05,0.03-0.11,0.05-0.17,0.07c-0.06,0.02-0.12,0.03-0.18,0.04
	c-0.06,0.02-0.12,0.03-0.18,0.05C13.48,18.94,13.35,18.97,13.24,18.86z"/>
<path class="st157" d="M9.78,20.31c0.31-0.14,0.14-0.41,0.18-0.63c0.05-0.28-0.11-0.59,0.13-0.83c0.12-0.05,0.24-0.1,0.36-0.15
	c0.62,0.58,0.31,1.29,0.28,1.96c-0.03,0.09-0.09,0.15-0.17,0.2c-0.33,0.02-0.57-0.16-0.78-0.38l0-0.01
	C9.78,20.42,9.78,20.37,9.78,20.31z"/>
<path class="st103" d="M10.56,20.82c-0.01-0.71,0.13-1.42-0.11-2.12c0.19-0.05,0.31,0.12,0.47,0.16c0,0.06,0,0.11,0,0.17
	c0.16,0.54,0,1.07-0.06,1.6C10.84,20.78,10.73,20.86,10.56,20.82z"/>
<path class="st42" d="M15.34,17.08c0.37,0,0.75,0,1.12,0c0.1,0.1,0.1,0.2,0,0.31c-0.32-0.02-0.64-0.3-0.96,0
	C15.44,17.28,15.39,17.18,15.34,17.08z"/>
<path class="st158" d="M17.45,17.42c0,0.04,0.01,0.09,0.01,0.13c-0.28,0-0.56,0-0.85,0c0.01-0.05,0.01-0.11,0.02-0.16
	c0.11-0.09,0.21-0.1,0.32,0C17.12,17.35,17.3,17.08,17.45,17.42z"/>
<path class="st38" d="M16.95,17.39c-0.11,0-0.21,0-0.32,0c-0.06,0-0.12,0-0.18,0c0-0.1,0-0.2,0-0.31
	C16.69,17.07,16.95,17.02,16.95,17.39z"/>
<path class="st159" d="M21.84,18.69c0.24,0.5,0.11,1.04,0.13,1.56c0.02,0.5,0.01,1.01,0.01,1.51c-0.18,0.15-0.36,0.17-0.54-0.02
	c0.02-0.96-0.13-1.92,0.08-2.88C21.63,18.81,21.74,18.75,21.84,18.69z"/>
<path class="st102" d="M21.52,18.86c-0.01,0.97-0.01,1.95-0.02,2.92c-0.06,0.04-0.11,0.04-0.16,0c0-1.03,0-2.05,0-3.08
	C21.44,18.71,21.49,18.78,21.52,18.86z"/>
<path class="st160" d="M16.3,11.85c-0.33,0.22-0.66,0.22-0.98,0C15.64,11.57,15.97,11.58,16.3,11.85z"/>
<path class="st161" d="M16.79,11.85c-0.03,0.09-0.09,0.15-0.19,0.16c-0.06-0.1-0.06-0.2,0.01-0.3
	C16.7,11.71,16.76,11.76,16.79,11.85z"/>
<path class="st0" d="M16.6,11.71c0,0.1,0,0.2-0.01,0.3c-0.05-0.05-0.1-0.1-0.15-0.16C16.47,11.77,16.5,11.7,16.6,11.71z"/>
<path class="st162" d="M13.72,18.7c0.05,0,0.09,0.01,0.14,0.02c0.39,0.48,0.12,1.08,0.26,1.6c0.03,0.08,0.04,0.15,0.06,0.23
	c0.01,0.38,0.09,0.75,0.22,1.1c0,0.04-0.01,0.08-0.01,0.11c-0.06,0.07-0.12,0.07-0.19,0.02c-0.25,0.07-0.09,0.42-0.33,0.49
	c0.01-0.24-0.11-0.33-0.34-0.32c-0.14,0-0.26-0.03-0.29-0.2c0.41-0.46,0.16-1.02,0.22-1.53C13.51,19.71,13.33,19.15,13.72,18.7z"/>
<path class="st163" d="M14.19,21.79c0.06,0,0.12,0.01,0.18,0.01c0.23,0.64,0.21,1.28,0.01,1.92c-0.06,0.01-0.12,0.02-0.18,0.03
	C14.19,23.1,14.19,22.44,14.19,21.79z"/>
<path class="st21" d="M15.33,18.7c0.43-0.03,0.86-0.05,1.29,0.01c0.18,0.2,0.19,0.41,0.02,0.62c-0.09,0.07-0.19,0.06-0.29,0.01
	c-0.08-0.04-0.16-0.08-0.25-0.1c-0.06,0.01-0.11,0.03-0.15,0.07c-0.08,0.12-0.06,0.22,0.07,0.29c0.06,0.02,0.13,0.03,0.19,0.04
	c0.07,0.01,0.14,0.02,0.2,0.03c0.11,0.03,0.2,0.08,0.25,0.18c0.01,0.08-0.02,0.14-0.07,0.2c-0.25,0.18-0.58,0.06-0.82,0.23
	c-0.09,0.16-0.01,0.31,0.02,0.46c0.14,0.36-0.14,0.9,0.47,1.05c0.07,0.04,0.12,0.08,0.17,0.14c0.1,0.03,0.16,0.09,0.18,0.19
	c-0.54,0.01-1.08,0.06-1.62-0.02c0-0.06,0-0.12-0.01-0.19c-0.13-0.23-0.2-0.45,0.07-0.63c0.18,0.06,0.21,0.15,0.13,0.23
	C15.18,20.62,14.84,19.63,15.33,18.7z"/>
<path class="st164" d="M15.33,18.7c0,0.98,0,1.97,0,2.95c-0.25,0.04-0.12-0.2-0.23-0.25c-0.23,0.13-0.07,0.35-0.12,0.52
	c-0.1-0.04-0.2-0.08-0.31-0.11c-0.13-0.03-0.21-0.12-0.26-0.24c-0.04-0.36,0.24-0.59,0.36-0.89c0.22-0.36,0.12-0.76,0.15-1.15
	c0.02-0.29-0.01-0.58,0.2-0.82C15.2,18.71,15.27,18.71,15.33,18.7z"/>
<path class="st127" d="M14.54,21.63c0.05,0.06,0.09,0.12,0.14,0.18c0,0.51,0,1.01-0.01,1.52c0,0.15,0.05,0.33-0.17,0.38
	c-0.14-0.61-0.03-1.22-0.07-1.83C14.42,21.77,14.45,21.69,14.54,21.63z"/>
<path class="st5" d="M14.5,21.78c0,0.64-0.01,1.28-0.01,1.93l-0.06,0.02l-0.06-0.01c0-0.64,0-1.28-0.01-1.92l-0.02-0.01
	C14.39,21.71,14.44,21.71,14.5,21.78z"/>
<path class="st6" d="M15.03,15.97c0.06,0.15,0.17,0.28,0.13,0.45c-0.16-0.09-0.35,0.25-0.5-0.04C14.61,16.09,14.8,16.01,15.03,15.97
	z"/>
<path class="st0" d="M17.1,16.25c-0.11,0-0.21,0-0.32-0.01c0.06-0.15,0.18-0.17,0.32-0.14C17.11,16.16,17.11,16.21,17.1,16.25z"/>
<path class="st165" d="M10.27,21.79c0.01,0.05,0.01,0.11,0,0.16c0,0.48,0,0.95,0,1.43c0,0.22-0.06,0.36-0.32,0.34
	c-0.05-0.07-0.06-0.15-0.03-0.24c0.09-0.55-0.09-1.11,0.12-1.65C10.1,21.75,10.18,21.74,10.27,21.79z"/>
<path class="st166" d="M9.95,23.56c0,0.05,0,0.1,0,0.15c-0.06,0-0.11,0-0.17,0.01c0-0.59-0.01-1.18-0.01-1.77
	c0-0.06,0.01-0.12,0.01-0.18c0.11-0.04,0.18,0,0.22,0.1C10,22.44,10.1,23,9.95,23.56z"/>
<path class="st167" d="M10.56,20.82c0.35-0.19,0.13-0.51,0.19-0.77c0.08-0.33-0.18-0.72,0.16-1.02l-0.01-0.01
	c0.23,0.2,0.2,0.49,0.28,0.75c0.03,0.12,0.04,0.23,0.01,0.35c-0.03,0.07-0.07,0.14-0.12,0.2c-0.17,0.07-0.12,0.13,0.01,0.19
	c0.16,0.2,0.17,0.41,0,0.61c-0.31,0.16-0.03,0.52-0.24,0.72c-0.25-0.17,0.1-0.62-0.33-0.7l-0.02,0.01c-0.18-0.1-0.16-0.21-0.02-0.34
	C10.51,20.8,10.54,20.8,10.56,20.82z"/>
<path class="st168" d="M10.48,20.8c0.01,0.11,0.02,0.22,0.02,0.34c-0.08,0.06-0.16,0.13-0.24,0.19c-0.17,0.28-0.39,0.31-0.65,0.12
	l0.02,0c-0.02-0.33-0.09-0.68,0.15-0.97C10.07,20.47,10.33,20.52,10.48,20.8z"/>
<path class="st19" d="M9.62,21.45c0.23,0.03,0.44-0.03,0.65-0.12c0.05,0.16,0.29,0.31,0,0.46c-0.05,0-0.1,0-0.15,0
	c-0.06,0.09-0.13,0.09-0.19,0c-0.05,0-0.09-0.01-0.14-0.02C9.73,21.66,9.67,21.56,9.62,21.45z"/>
<path class="st169" d="M21.34,21.78c0.05,0,0.11,0,0.16,0c0.16,0.05,0.32,0.03,0.48-0.03c0,0.2-0.24,0.17-0.29,0.32
	c-0.06,0.01-0.12,0.02-0.18,0.03c-0.11,0-0.22-0.01-0.33-0.01c-0.1-0.08-0.25-0.14-0.15-0.32c0.05,0,0.1,0,0.16,0
	C21.23,21.78,21.29,21.78,21.34,21.78z"/>
<path class="st170" d="M21.02,21.78c0.05,0.11,0.1,0.21,0.15,0.32c-0.33,0.01-0.65,0.02-0.98,0.03c-0.11,0.01-0.22,0.01-0.33,0.02
	c-0.34-0.01-0.67-0.02-1.01-0.02c-0.23,0-0.32-0.12-0.29-0.35c-0.13-1.02-0.07-2.04-0.04-3.06c0.12-0.13,0.24-0.13,0.37-0.02
	c0,0.99,0,1.98,0,2.96c0.06,0,0.12,0,0.18,0c0-0.88,0-1.76,0-2.64c0.27,0.03,0.57-0.14,0.79,0.14c-0.01,0.03-0.02,0.07-0.03,0.1
	c-0.07,0.12-0.16,0.23-0.25,0.34c-0.11,0.14-0.18,0.28-0.02,0.44c0.41,0.17,0.9-0.03,1.29,0.27l-0.01,0.05
	c0.04,0.04,0.05,0.07,0.05,0.11c-0.01,0.04-0.01,0.06-0.02,0.06c-0.11,0.17-0.16,0.36-0.15,0.56c0,0.07,0.01,0.13,0.01,0.2
	c0.02,0.13,0.05,0.25,0.15,0.35C20.92,21.69,20.97,21.74,21.02,21.78L21.02,21.78z"/>
<path class="st107" d="M18.59,18.69c0.18,1.03,0.24,2.06-0.02,3.09c-0.37-0.01-0.33-0.28-0.33-0.52c0-0.8,0-1.61,0-2.41
	C18.32,18.7,18.41,18.6,18.59,18.69z"/>
<path class="st77" d="M18.59,18.69c-0.11,0.05-0.23,0.11-0.34,0.16c-0.04,0-0.08,0-0.12,0c-0.04-0.08-0.09-0.15-0.2-0.15
	c-0.05-0.03-0.07-0.06-0.05-0.1c0.01-0.03,0.03-0.05,0.05-0.05c0.32-0.01,0.65-0.03,0.97-0.04c0,0.06,0,0.13,0,0.19
	C18.8,18.7,18.69,18.7,18.59,18.69z"/>
<path class="st51" d="M17.11,22.6c0.27-0.24,0.54-0.24,0.81,0C17.65,22.6,17.38,22.6,17.11,22.6z"/>
<path class="st171" d="M16.6,20.04c0-0.08,0.01-0.16,0.01-0.23c-0.11-0.13-0.28-0.25-0.12-0.46c0.23-0.17,0.1-0.42,0.14-0.63
	c0.05-0.02,0.1-0.02,0.14,0c0.17,1.02,0.15,2.05,0.01,3.07c-0.06-0.01-0.13-0.01-0.19-0.02c-0.13-0.13-0.17-0.31-0.22-0.48
	c-0.02-0.11-0.02-0.21-0.01-0.32c0.07-0.24,0.04-0.48,0.03-0.72C16.4,20.13,16.49,20.07,16.6,20.04z"/>
<path class="st44" d="M17.92,18.56c0,0.05,0,0.1,0.01,0.15c0,0.99,0,1.99,0,2.98c-0.06,0-0.11,0-0.17,0c0-1,0-2,0-3
	c-0.01-0.04-0.01-0.09-0.01-0.13C17.81,18.56,17.87,18.56,17.92,18.56z"/>
<path class="st48" d="M16.77,21.79c0-1.02-0.01-2.05-0.01-3.07c0.06,0,0.13-0.01,0.19-0.01c-0.01,0.84-0.01,1.67-0.02,2.51
	C16.93,21.41,17.03,21.66,16.77,21.79z"/>
<path class="st172" d="M17.23,19.29c0.33,0.34,0.21,0.67,0.34,0.98C17.07,20.19,17.06,20.17,17.23,19.29z"/>
<path class="st0" d="M17.3,20.41c0.34,0.3,0.29,0.5-0.01,0.74C17.1,20.91,17.09,20.71,17.3,20.41z"/>
<path class="st0" d="M17.36,21.9c-0.26-0.27-0.26-0.43-0.07-0.64C17.64,21.41,17.58,21.59,17.36,21.9z"/>
<path class="st49" d="M16.46,21.28c0.19,0.13,0.14,0.31,0.12,0.49c-0.05,0.06-0.1,0.11-0.15,0.17c-0.04,0-0.08,0-0.11-0.01
	c-0.07-0.05-0.12-0.12-0.14-0.2C16.16,21.51,16.14,21.28,16.46,21.28z"/>
<path class="st48" d="M19.27,20.18c0.02-0.24-0.23-0.6,0.27-0.64c0.13,0.07,0.25,0.18,0.42,0.18c0.1,0.01,0.18,0.05,0.25,0.13
	c0.02,0.09,0.07,0.14,0.17,0.14c0.06-0.07,0.09-0.17,0.18-0.23c0.09-0.04,0.19-0.05,0.29-0.04c0.06,0.02,0.12,0.06,0.17,0.1
	c0,0.14,0,0.27-0.15,0.34C20.34,20.29,19.8,20.26,19.27,20.18z"/>
<path class="st173" d="M21.02,19.82c-0.05,0.01-0.1,0.01-0.15,0.01c-0.1-0.11-0.21-0.21-0.32-0.01c-0.03,0.08-0.07,0.15-0.17,0.16
	c0-0.28,0-0.56,0-0.81c0.2-0.22,0.42-0.13,0.62-0.15C21,19.29,21.01,19.55,21.02,19.82z"/>
<path class="st174" d="M20.21,19.84c-0.11,0-0.23,0-0.34,0c-0.19-0.22-0.15-0.44-0.01-0.67l0.01-0.01
	C20.41,19.17,20.19,19.57,20.21,19.84z"/>
<path class="st175" d="M21.02,21.79c-0.06,0-0.12-0.01-0.19-0.01c-0.12-0.14-0.15-0.34-0.3-0.46c0-0.06,0-0.13,0-0.19
	c0.22-0.16,0.1-0.48,0.32-0.64c0-0.04,0-0.08-0.01-0.12C21.22,20.8,20.92,21.32,21.02,21.79z"/>
<path class="st176" d="M19.27,20.18c0.53-0.01,1.06-0.01,1.59-0.02c0,0.05,0,0.1-0.01,0.15C20.33,20.27,19.78,20.49,19.27,20.18z"/>
<path class="st83" d="M15.13,18.71c0.01,0.55,0.01,1.1,0.02,1.66c0.01,0.24-0.06,0.41-0.32,0.45c-0.14-0.06-0.24-0.17-0.36-0.25
	c-0.18-0.1-0.37-0.18-0.43-0.4c0.02-0.49-0.17-0.99,0.16-1.44c0,0-0.02-0.03-0.02-0.03C14.5,18.69,14.81,18.7,15.13,18.71z"/>
<path class="st107" d="M13.72,18.7c0,1.02,0,2.04,0,3c-0.23,0.12-0.36,0.09-0.49,0.05c0.01-0.96,0.01-1.93,0.02-2.89
	C13.4,18.81,13.56,18.75,13.72,18.7z"/>
<path class="st48" d="M11.09,20.14c0-0.11,0-0.22,0-0.32c0.11-0.49,0.4,0.01,0.58-0.11c0.14-0.02,0.28,0,0.38,0.11
	c0.26,0.32,0.33-0.32,0.6-0.06c0.03,0.16,0.19,0.39-0.1,0.56C12.08,20.09,11.54,20.44,11.09,20.14z"/>
<path class="st115" d="M12.69,20.94c0,0.14-0.01,0.27-0.01,0.41c-0.13,0.13-0.13,0.26,0,0.39c-0.13,0.32-0.41,0.24-0.42,0.03
	c-0.03-0.42-0.23-0.89,0.13-1.28C12.54,20.6,12.52,20.83,12.69,20.94z"/>
<path class="st132" d="M11.93,20.33c0.09,0.27,0.3,0.55-0.01,0.81c-0.1,0.09-0.19,0.08-0.29-0.01c-0.01-0.22-0.02-0.43-0.03-0.65
	C11.67,20.35,11.74,20.21,11.93,20.33z"/>
<path class="st110" d="M11.63,21.13c0.1,0,0.19,0.01,0.29,0.01c0.11,0.23,0.27,0.46,0.03,0.75C11.42,21.81,11.61,21.43,11.63,21.13z
	"/>
<path class="st65" d="M12.04,19.82c-0.14,0-0.28,0-0.43-0.01c-0.23-0.2-0.23-0.4-0.01-0.61c0.15,0,0.29-0.01,0.44-0.01
	C12.05,19.4,12.05,19.61,12.04,19.82z"/>
<path class="st74" d="M11.93,20.33c-0.11,0.05-0.22,0.1-0.33,0.15c-0.12-0.23-0.35-0.11-0.52-0.17c0-0.06,0-0.11,0-0.17
	c0.48,0.11,1.01-0.19,1.46,0.17C12.34,20.32,12.14,20.32,11.93,20.33z"/>
<path class="st0" d="M11.1,21.11c0-0.2,0-0.41,0-0.61c0.21-0.04,0.3,0.05,0.29,0.26C11.38,20.95,11.39,21.16,11.1,21.11z"/>
<path class="st0" d="M12.69,20.94c-0.15,0.13-0.3,0.24-0.33-0.08c-0.01-0.12,0.02-0.25,0.03-0.37
	C12.74,20.47,12.66,20.74,12.69,20.94z"/>
<path class="st0" d="M12.69,21.74c-0.18,0.06-0.32,0.04-0.32-0.19c0-0.24,0.14-0.25,0.32-0.2C12.68,21.48,12.68,21.61,12.69,21.74z"
	/>
<path class="st0" d="M11.26,21.83c-0.29-0.2-0.14-0.36-0.11-0.56C11.48,21.42,11.4,21.59,11.26,21.83z"/>
<path class="st145" d="M11.61,19.21c0,0.2,0.01,0.4,0.01,0.61c-0.06,0.09-0.13,0.17-0.21,0.03c-0.1-0.18-0.2-0.23-0.32-0.03
	c-0.32-0.21-0.08-0.54-0.17-0.8C11.15,19.05,11.44,18.91,11.61,19.21z"/>
<path class="st102" d="M13.99,20.48c-0.31-0.57-0.06-1.18-0.14-1.77c0.05-0.02,0.1-0.02,0.15-0.01c0.2,0.5,0.04,1.02,0.09,1.53
	C14.1,20.33,14.07,20.42,13.99,20.48z"/>
<path class="st33" d="M14.03,20.34c-0.01-0.54-0.02-1.09-0.03-1.63c0.06,0,0.13,0.01,0.19,0.01c0,0.53-0.01,1.06-0.01,1.59
	C14.15,20.37,14.09,20.37,14.03,20.34z"/>
<path class="st177" d="M14.65,20.48c0.17,0.05,0.18,0.19,0.18,0.34c0.2,0.38-0.37,0.48-0.29,0.81c-0.02,0.05-0.04,0.1-0.04,0.15
	c-0.05,0.01-0.11,0.01-0.16,0.01c-0.27-0.33-0.39-0.7-0.33-1.13C14.17,20.4,14.38,20.33,14.65,20.48z"/>
<path class="st178" d="M14.65,20.48c-0.24-0.03-0.44,0.06-0.64,0.18c-0.01-0.06-0.01-0.12-0.02-0.18c0.02-0.04,0.03-0.09,0.04-0.14
	c0.05-0.01,0.1-0.02,0.15-0.03C14.34,20.37,14.57,20.21,14.65,20.48z"/>
<path class="st51" d="M16.26,21.76c0.02,0.06,0.04,0.12,0.06,0.17c-0.18,0-0.37,0-0.57,0c-0.19-0.43-0.05-0.87-0.11-1.28
	c0.28-0.5,0.43-0.13,0.61,0.09C16.39,21.08,16.11,21.42,16.26,21.76z"/>
<path class="st179" d="M16.14,20.83c-0.13-0.16-0.18-0.53-0.49-0.17c-0.24-0.12-0.13-0.33-0.13-0.52c0.32-0.07,0.64-0.12,0.96,0.03
	c0.11,0.28,0.35,0.56-0.01,0.84C16.28,21.07,16.23,20.92,16.14,20.83z"/>
<path class="st30" d="M15.98,19.8c-0.18,0.03-0.32,0-0.33-0.22c-0.01-0.25,0.02-0.48,0.33-0.54C16.18,19.3,16.19,19.55,15.98,19.8z"
	/>
<path class="st8" d="M16.47,20.17c-0.32-0.01-0.64-0.02-0.96-0.03c0.34-0.29,0.72-0.11,1.09-0.1
	C16.55,20.08,16.51,20.13,16.47,20.17z"/>
<path class="st156" d="M16.49,19.34c0.04,0.15,0.08,0.31,0.12,0.46c-0.1,0.01-0.2,0.01-0.31,0.02c-0.17-0.21-0.2-0.42,0-0.63
	C16.4,19.2,16.44,19.27,16.49,19.34z"/>
<path class="st5" d="M15.98,19.8c0-0.25,0-0.5,0-0.76c0.04-0.02,0.08-0.02,0.12-0.02c0.17,0.26,0.16,0.53,0.01,0.79l-0.06,0
	L15.98,19.8z"/>
<path class="st180" d="M16.11,19.82c0-0.26,0-0.53-0.01-0.79c0.1,0.01,0.17,0.07,0.2,0.17c0,0.21,0,0.42,0,0.63
	C16.24,19.83,16.18,19.82,16.11,19.82z"/>
<path class="st0" d="M9.93,21.79c0.06,0,0.13,0,0.19,0c-0.11,0.59,0.18,1.21-0.17,1.77C9.94,22.97,9.93,22.38,9.93,21.79z"/>
<path class="st79" d="M19.88,20.48c0.54,0.05,0.55,0.07,0.32,0.66c-0.09,0.14-0.18,0.28-0.38,0.14c-0.05-0.07-0.08-0.14-0.1-0.22
	C19.68,20.84,19.72,20.64,19.88,20.48z"/>
<path class="st0" d="M19.53,21.93c-0.51-0.15-0.2-0.51-0.21-0.8c0.07-0.05,0.14-0.07,0.22-0.05c0.07,0.05,0.12,0.11,0.15,0.19
	C19.74,21.52,19.76,21.76,19.53,21.93z"/>
<path class="st102" d="M19.53,21.93c0.01-0.27,0.03-0.54,0.04-0.81c0.09-0.07,0.19-0.09,0.28,0.01c0.01,0.05,0.02,0.11,0.03,0.16
	c0.19,0.21,0.18,0.43,0.01,0.65C19.77,21.94,19.65,21.94,19.53,21.93z"/>
<path class="st102" d="M19.86,19.17c0,0.22,0.01,0.45,0.01,0.67c-0.29,0.19-0.29,0.18-0.32-0.3C19.54,19.33,19.62,19.18,19.86,19.17
	z"/>
<path class="st181" d="M19.89,21.94c0-0.22-0.01-0.43-0.01-0.65c0.11-0.05,0.21-0.11,0.32-0.16C20.12,21.42,20.49,21.86,19.89,21.94
	z"/>
<path class="st182" d="M20.86,20.48c-0.05,0.24,0.21,0.64-0.32,0.64C20.58,20.88,20.32,20.48,20.86,20.48z"/>
<path class="st75" d="M19.84,21.13c-0.09,0-0.18,0-0.28-0.01l-0.06,0.02c-0.13-0.22-0.14-0.44,0.02-0.65c0.11,0,0.23-0.01,0.34-0.01
	C19.86,20.7,19.85,20.92,19.84,21.13z"/>
<path class="st0" d="M19.53,20.49c-0.01,0.22-0.01,0.44-0.02,0.65c-0.07,0-0.13-0.01-0.2-0.01C19.31,20.9,19.06,20.57,19.53,20.49z"
	/>
<path class="st0" d="M20.53,21.31c0.46-0.07,0.29,0.25,0.3,0.46C20.43,21.81,20.55,21.52,20.53,21.31z"/>
<path class="st93" d="M16.14,20.83c0.11,0.06,0.22,0.12,0.32,0.18c0,0.09,0,0.18,0,0.27c-0.24,0.09-0.14,0.32-0.2,0.48
	C16.06,21.47,16.16,21.14,16.14,20.83z"/>
<path class="st183" d="M20.55,19.82c-0.01-0.15-0.07-0.3,0.06-0.43c0.21,0.08,0.24,0.25,0.26,0.44
	C20.76,19.83,20.65,19.82,20.55,19.82z"/>
<path class="st80" d="M14.76,19.2c0.09,0.3,0.1,0.47-0.02,0.62c-0.24-0.02-0.24-0.15-0.18-0.29C14.59,19.44,14.66,19.36,14.76,19.2z
	"/>
</svg>
