<?xml version="1.0" encoding="utf-8"?>
<!-- Generator: Adobe Illustrator 24.2.3, SVG Export Plug-In . SVG Version: 6.00 Build 0)  -->
<svg version="1.1" id="Layer_1" xmlns="http://www.w3.org/2000/svg" xmlns:xlink="http://www.w3.org/1999/xlink" x="0px" y="0px"
	 viewBox="0 0 16 16" style="enable-background:new 0 0 16 16;" xml:space="preserve">
<style type="text/css">
	.st0{fill:#CACACA;}
</style>
<path class="st0" d="M8.01,12.99c2.16,0,4.32,0,6.49,0c0.43,0,0.43,0,0.42,0.43c0,0.81,0,0.81-0.82,0.81c-4.2,0-8.4,0-12.6,0
	c-0.42,0-0.42,0-0.42-0.43c0-0.81,0-0.81,0.82-0.81C3.94,12.99,5.97,12.99,8.01,12.99z"/>
<path class="st0" d="M9.07,3.86c0.01,0.76-0.77,1.25-1.46,0.9c-0.16-0.08-0.26-0.08-0.42,0C6.76,5,6.32,4.98,5.91,4.7
	C5.76,4.6,5.67,4.58,5.52,4.72c-0.65,0.6-1.59,0.56-2.18-0.08c-0.55-0.6-0.52-1.55,0.07-2.12c0.61-0.59,1.54-0.59,2.16,0.03
	c0.13,0.13,0.2,0.14,0.35,0.04C6.45,2.25,7.05,2.32,7.5,2.77C7.63,2.9,7.73,2.92,7.9,2.89C8.52,2.78,9.06,3.25,9.07,3.86z"/>
<path class="st0" d="M11.29,1.76c0.01,0,0.05-0.01,0.09,0.01c0.58,0.21,1.2,0.31,1.68,0.76c0.49,0.46,0.45,1.24-0.11,1.63
	c-0.13,0.09-0.23,0.19-0.33,0.31c-0.43,0.58-1.27,0.56-1.68-0.04c-0.11-0.16-0.21-0.2-0.39-0.19c-0.56,0.04-1-0.32-1.09-0.87
	c-0.08-0.52,0.23-1.01,0.75-1.15c0.15-0.04,0.26-0.1,0.37-0.2C10.77,1.84,11,1.76,11.29,1.76z"/>
<path class="st0" d="M8.47,6.34c-0.32,0-0.64-0.01-0.95,0C7.34,6.35,7.26,6.3,7.26,6.1C7.27,5.32,7.2,5.42,7.93,5.42
	c0.48,0,0.96,0.01,1.45,0c0.25-0.01,0.35,0.08,0.35,0.34c0,0.59,0.01,0.59-0.58,0.59C8.92,6.34,8.69,6.34,8.47,6.34z"/>
<path class="st0" d="M8.25,8.59c-0.34,0-0.68,0-1.02,0c-0.16,0-0.21-0.04-0.19-0.22c0.09-0.69,0.08-0.69,0.78-0.69
	c0.54,0,1.09,0.01,1.63,0c0.2,0,0.24,0.05,0.2,0.25C9.5,8.59,9.5,8.59,8.83,8.59C8.64,8.59,8.44,8.59,8.25,8.59z"/>
<path class="st0" d="M5.16,8.59c-0.24,0-0.47,0-0.71,0c-0.16,0-0.22-0.05-0.2-0.22c0.03-0.25,0.05-0.51,0.06-0.77
	C4.31,7.45,4.38,7.39,4.54,7.4c0.4,0.01,0.8,0.01,1.2,0c0.15,0,0.23,0.04,0.24,0.2C5.98,7.85,6,8.11,6.03,8.36
	C6.05,8.55,5.97,8.6,5.8,8.59C5.59,8.58,5.37,8.59,5.16,8.59z"/>
<path class="st0" d="M8.49,7.36c-0.34,0-0.68-0.01-1.02,0c-0.18,0-0.28-0.03-0.23-0.24c0.02-0.08,0.02-0.16,0.01-0.25
	C7.25,6.73,7.3,6.65,7.47,6.65c0.68,0.01,1.36,0,2.03,0c0.15,0,0.24,0.04,0.22,0.21C9.71,6.95,9.71,7.03,9.73,7.11
	C9.77,7.3,9.7,7.37,9.51,7.36C9.17,7.35,8.83,7.36,8.49,7.36z"/>
<path class="st0" d="M5.14,6.34c-0.1,0-0.21,0-0.31,0c-0.45,0-0.47-0.03-0.39-0.46c0.03-0.17,0.11-0.23,0.27-0.22
	c0.29,0,0.57,0,0.86,0c0.38,0,0.25,0.3,0.29,0.5C5.9,6.4,5.7,6.33,5.57,6.34C5.43,6.34,5.29,6.34,5.14,6.34z"/>
<path class="st0" d="M5.11,7.08c-0.19,0-0.37-0.01-0.56,0C4.41,7.09,4.35,7.05,4.36,6.89c0.01-0.14,0.03-0.24,0.2-0.24
	c0.38,0.01,0.76,0.01,1.14,0c0.2,0,0.2,0.12,0.21,0.26C5.93,7.1,5.81,7.08,5.7,7.08C5.5,7.08,5.31,7.08,5.11,7.08
	C5.11,7.08,5.11,7.08,5.11,7.08z"/>
<path class="st0" d="M2.94,5.45c-0.15,0-0.31,0-0.46,0c-0.09,0-0.15-0.06-0.16-0.16C2.32,5.2,2.39,5.14,2.47,5.13
	c0.31-0.01,0.62-0.01,0.92,0c0.09,0,0.16,0.05,0.16,0.15c0,0.11-0.08,0.16-0.18,0.17C3.23,5.46,3.09,5.46,2.94,5.45
	C2.94,5.46,2.94,5.46,2.94,5.45z"/>
<path class="st0" d="M2.2,6.45c-0.15,0-0.31,0-0.46,0c-0.1,0-0.16-0.06-0.16-0.15c0-0.1,0.06-0.15,0.15-0.16
	c0.31-0.01,0.61,0,0.92,0c0.09,0,0.16,0.05,0.16,0.15c0,0.1-0.07,0.15-0.16,0.16C2.51,6.45,2.35,6.44,2.2,6.45
	C2.2,6.45,2.2,6.45,2.2,6.45z"/>
<path class="st0" d="M2.95,7.45c-0.15,0-0.31,0-0.46,0c-0.11,0-0.17-0.06-0.17-0.18c0.01-0.1,0.08-0.14,0.17-0.14
	c0.3,0,0.59,0,0.89,0c0.09,0,0.16,0.04,0.17,0.14c0.01,0.11-0.06,0.17-0.17,0.17C3.24,7.45,3.1,7.45,2.95,7.45z"/>
<path class="st0" d="M13.72,9.86c-0.27-1.16-0.74-2.28-0.61-3.5C13.13,6.14,13,6.08,12.8,6.08c-0.79,0.01-1.59,0.01-2.38,0
	c-0.27,0-0.33,0.11-0.33,0.35c0,0.48,0.05,0.96-0.09,1.44C9.89,8.25,9.74,8.62,9.73,9.01c-0.01,1.13,0,2.26-0.01,3.4
	c0,0.21,0.07,0.26,0.27,0.26c0.69-0.01,1.38,0,2.07,0c0.69,0,1.38-0.01,2.07,0.01c0.25,0,0.3-0.06,0.24-0.3
	C14.14,11.54,13.92,10.7,13.72,9.86z M12.94,10.33c-0.32,0.57-0.65,1.14-0.98,1.72c-0.05,0.09-0.1,0.2-0.23,0.16
	c-0.12-0.03-0.13-0.14-0.13-0.25c0-0.28-0.01-0.56,0-0.83c0.01-0.18-0.04-0.25-0.24-0.26c-0.73-0.02-0.73-0.03-0.35-0.66
	c0.28-0.46,0.55-0.92,0.82-1.38c0.06-0.09,0.1-0.23,0.25-0.19c0.17,0.04,0.12,0.19,0.13,0.31c0.01,0.13,0,0.27,0,0.4
	c0,0.02,0,0.04,0,0.06c0,0.54,0,0.54,0.53,0.57C13.03,10,13.08,10.08,12.94,10.33z"/>
<path class="st0" d="M9.02,8.91C7.83,8.92,6.63,8.91,5.44,8.91c-1.2,0-2.41,0.01-3.62-0.01c-0.28,0-0.38,0.09-0.37,0.37
	c0.01,0.88,0.01,1.75,0.01,2.63c0,0.78,0,0.77,0.78,0.77c0.24,0,0.3-0.09,0.29-0.31c-0.02-0.29,0-0.58,0-0.86
	c0-0.19,0.07-0.29,0.27-0.28c0.36,0.01,0.72,0.01,1.08,0c0.18,0,0.26,0.08,0.26,0.26c0,0.3,0.01,0.6-0.01,0.9
	c-0.01,0.23,0.06,0.3,0.29,0.3c1.57-0.01,3.13-0.01,4.7,0c0.26,0,0.31-0.09,0.3-0.32c-0.01-1.02-0.01-2.04,0-3.06
	C9.42,8.99,9.32,8.9,9.02,8.91z M4.95,9.74c0.33,0,0.66,0,0.99,0C6.12,9.74,6.2,9.82,6.2,10c0,0.24,0,0.47,0,0.71
	c0,0.18-0.07,0.27-0.26,0.26c-0.2-0.01-0.39,0-0.59,0c-0.82,0-0.82,0-0.82-0.81C4.54,9.74,4.54,9.74,4.95,9.74z M5.8,12.36
	c-0.3-0.02-0.6-0.02-0.89,0C4.64,12.37,4.53,12.29,4.53,12c0.01-0.86,0-0.86,0.86-0.86C6.33,11.15,6.17,11,6.2,11.96
	C6.21,12.27,6.11,12.38,5.8,12.36z M6.7,9.9c0-0.11,0.09-0.15,0.2-0.15c0.41,0,0.82,0,1.23,0c0.14,0,0.21,0.07,0.22,0.21
	c0,0.27,0,0.53,0,0.8c0,0.15-0.08,0.22-0.23,0.22c-0.2,0-0.39,0-0.59,0c-0.02,0-0.04,0-0.06,0c-0.25-0.04-0.59,0.14-0.72-0.1
	C6.58,10.59,6.69,10.22,6.7,9.9z M7.73,12.36c-0.25,0-0.49-0.01-0.74,0c-0.22,0.01-0.33-0.07-0.31-0.3c0-0.03,0-0.06,0-0.09
	c-0.01-0.83-0.01-0.83,0.82-0.83c0.08,0,0.16,0,0.25,0c0.64,0,0.59-0.06,0.59,0.6C8.35,12.42,8.38,12.35,7.73,12.36z"/>
</svg>
