<?xml version="1.0" encoding="utf-8"?>
<!-- Generator: Adobe Illustrator 24.2.3, SVG Export Plug-In . SVG Version: 6.00 Build 0)  -->
<svg version="1.1" id="Layer_1" xmlns="http://www.w3.org/2000/svg" xmlns:xlink="http://www.w3.org/1999/xlink" x="0px" y="0px"
	 viewBox="0 0 32 32" style="enable-background:new 0 0 32 32;" xml:space="preserve">
<style type="text/css">
	.st0{fill:#CACACA;}
</style>
<path class="st0" d="M18.3,3.15c0.01,0.47-0.09,0.65-0.34,0.62c-0.4-0.05-0.29-0.38-0.3-0.62c-0.01-0.13,0-0.26,0.01-0.4
	c0.02-0.18,0.14-0.28,0.32-0.27c0.17,0,0.29,0.1,0.31,0.28C18.31,2.89,18.3,3.02,18.3,3.15z"/>
<path class="st0" d="M18.29,10.59c0,0.12,0.01,0.24,0,0.36c-0.03,0.17-0.14,0.28-0.32,0.27c-0.17,0-0.3-0.1-0.31-0.28
	c-0.01-0.23-0.01-0.46-0.01-0.69c0.01-0.19,0.11-0.32,0.31-0.32c0.21,0,0.32,0.12,0.33,0.33C18.31,10.37,18.3,10.48,18.29,10.59
	C18.3,10.59,18.3,10.59,18.29,10.59z"/>
<path class="st0" d="M20.85,3.65c0.2,0,0.39,0.24,0.29,0.42c-0.15,0.28-0.39,0.51-0.66,0.67c-0.18,0.1-0.41-0.07-0.42-0.28
	C20.05,4.26,20.65,3.65,20.85,3.65z"/>
<path class="st0" d="M15.12,10.04C15,10.05,14.91,9.99,14.84,9.9c-0.07-0.11-0.09-0.24,0-0.34c0.17-0.2,0.35-0.4,0.56-0.56
	c0.21-0.16,0.5,0,0.5,0.25C15.9,9.45,15.32,10.03,15.12,10.04z"/>
<path class="st0" d="M14.23,7.17c-0.11,0-0.22,0.01-0.33,0c-0.19-0.02-0.3-0.13-0.3-0.33c0-0.18,0.11-0.29,0.29-0.3
	c0.23-0.02,0.46-0.01,0.69-0.01c0.19,0.01,0.31,0.12,0.32,0.31c0.01,0.2-0.11,0.31-0.3,0.32C14.47,7.18,14.35,7.17,14.23,7.17z"/>
<path class="st0" d="M15.58,4.77c-0.09,0-0.17-0.04-0.24-0.1c-0.17-0.16-0.34-0.32-0.49-0.49c-0.11-0.13-0.1-0.29,0.02-0.42
	c0.13-0.13,0.29-0.14,0.42-0.03c0.19,0.16,0.38,0.34,0.53,0.54C15.99,4.48,15.83,4.77,15.58,4.77z"/>
<path class="st0" d="M21.69,7.17c-0.47,0-0.66-0.09-0.63-0.33c0.06-0.38,0.37-0.3,0.62-0.31c0.12,0,0.24,0,0.36,0
	c0.19,0.01,0.32,0.12,0.31,0.31c0,0.19-0.11,0.31-0.31,0.32C21.93,7.18,21.81,7.17,21.69,7.17z"/>
<path class="st0" d="M20.41,8.94c0.18,0,0.75,0.57,0.75,0.79c0,0.12-0.05,0.22-0.16,0.27c-0.13,0.07-0.26,0.07-0.37-0.04
	c-0.17-0.16-0.34-0.32-0.49-0.49c-0.1-0.11-0.1-0.24-0.04-0.37C20.16,8.99,20.26,8.94,20.41,8.94z"/>
<path class="st0" d="M17.97,4.02c-1.57,0-2.82,1.26-2.82,2.83c0,1.55,1.25,2.82,2.8,2.83c1.58,0.01,2.86-1.26,2.86-2.84
	C20.81,5.29,19.55,4.03,17.97,4.02z M17.97,9.03c-1.19,0-2.18-0.98-2.19-2.18c-0.01-1.18,0.98-2.18,2.18-2.19
	c1.21-0.01,2.21,0.99,2.2,2.2C20.16,8.06,19.17,9.03,17.97,9.03z"/>
<path class="st0" d="M30.84,22.91c-1.07-3.2-2.13-6.41-3.2-9.61c-0.34-1.01-0.9-1.41-1.98-1.42c-2.56,0-5.12,0-7.68,0
	c-2.61,0-5.21,0-7.82,0c-0.91,0-1.51,0.44-1.79,1.3c-0.76,2.26-1.51,4.52-2.26,6.78c-0.09,0.28-0.19,0.39-0.52,0.39
	c-1.95,0-3.66,1.26-4.29,3.14c-0.61,1.8,0.01,3.89,1.54,5.04c1.5,1.12,3.14,1.32,4.82,0.5c1.68-0.82,2.52-2.24,2.58-4.11
	c0.01-0.23,0.03-0.32,0.3-0.32c0.83,0.02,1.66,0.01,2.49,0c0.19,0,0.29,0.03,0.34,0.24c0.18,0.7,0.73,1.12,1.45,1.14
	c0.28,0.01,0.56,0.02,0.83,0c0.23-0.02,0.28,0.07,0.27,0.28c-0.02,0.33-0.02,0.67,0,1c0.02,0.24-0.05,0.33-0.31,0.32
	c-0.65-0.02-1.31-0.01-1.96,0c-0.59,0.01-0.94,0.38-0.94,0.97c0,0.56,0.36,0.95,0.93,0.95c2.89,0.01,5.79,0,8.68,0
	c0.31,0,0.57-0.11,0.75-0.36c0.23-0.32,0.24-0.69,0.1-1.04c-0.14-0.35-0.44-0.52-0.81-0.53c-0.69-0.01-1.37-0.01-2.06,0
	c-0.18,0-0.26-0.04-0.25-0.24c0.01-0.38,0.01-0.75,0-1.13c-0.01-0.18,0.06-0.23,0.23-0.22c0.3,0.01,0.6,0.01,0.9,0
	c0.69-0.02,1.28-0.47,1.43-1.13c0.06-0.24,0.16-0.26,0.35-0.26c2.22,0.01,4.44,0,6.65,0C30.65,24.6,31.17,23.9,30.84,22.91z
	 M27.89,16.09c0.3,0.92,0.61,1.84,0.93,2.8c-0.56,0-1.08,0-1.6,0c-1.04,0-2.08-0.01-3.12,0c-0.2,0-0.29-0.05-0.32-0.26
	c-0.14-0.82-0.28-1.64-0.44-2.45c-0.04-0.2,0.02-0.24,0.21-0.24c1.35,0.01,2.7,0,4.05,0.01C27.72,15.95,27.84,15.92,27.89,16.09z
	 M22.94,12.52c0.96,0.01,1.93,0,2.89,0.01c0.58,0.01,0.95,0.28,1.14,0.84c0.19,0.57,0.37,1.14,0.57,1.7
	c0.07,0.19,0.04,0.25-0.17,0.24c-0.67-0.01-1.33,0-2,0c-0.65,0-1.31,0-1.96,0c-0.14,0-0.24,0.01-0.27-0.19
	c-0.13-0.79-0.27-1.57-0.42-2.35C22.68,12.54,22.76,12.52,22.94,12.52z M23.14,18.66c0.04,0.22-0.05,0.23-0.22,0.23
	c-0.74-0.01-1.49,0-2.23,0c-0.71,0-1.42-0.01-2.13,0c-0.2,0-0.27-0.05-0.26-0.26c0.01-0.82,0.01-1.64,0-2.46
	c0-0.17,0.04-0.23,0.22-0.23c1.31,0.01,2.62,0.01,3.93,0c0.15,0,0.21,0.05,0.24,0.2C22.83,16.99,22.98,17.83,23.14,18.66z
	 M18.3,12.79c0-0.19,0.04-0.27,0.25-0.27c1.09,0.01,2.17,0.01,3.26,0c0.16,0,0.24,0.05,0.26,0.21c0.13,0.77,0.27,1.55,0.42,2.32
	c0.04,0.22-0.04,0.26-0.24,0.25c-0.61-0.01-1.22,0-1.83,0c-0.62,0-1.24-0.01-1.86,0c-0.2,0-0.27-0.04-0.27-0.26
	C18.31,14.3,18.31,13.54,18.3,12.79z M13.89,12.75c0.03-0.18,0.1-0.23,0.28-0.23c1.07,0.01,2.15,0.01,3.22,0
	c0.21,0,0.28,0.06,0.28,0.28c-0.01,0.74-0.01,1.48,0,2.22c0.01,0.25-0.09,0.29-0.3,0.28c-0.61-0.01-1.22,0-1.83,0
	c-0.62,0-1.24-0.01-1.86,0c-0.18,0-0.25-0.03-0.21-0.24C13.62,14.3,13.76,13.52,13.89,12.75z M13.59,15.94
	c1.26,0.01,2.53,0.01,3.79,0c0.21,0,0.28,0.06,0.28,0.28c-0.01,0.81-0.01,1.62,0,2.43c0,0.21-0.07,0.26-0.26,0.25
	c-0.72-0.01-1.44,0-2.16,0c0,0,0,0,0,0c-0.73,0-1.46-0.01-2.19,0c-0.2,0-0.27-0.02-0.22-0.25c0.16-0.8,0.3-1.61,0.43-2.42
	C13.29,16.02,13.36,15.94,13.59,15.94z M8.41,15.06c0.2-0.58,0.38-1.18,0.59-1.76c0.17-0.47,0.52-0.75,1.02-0.76
	c1.02-0.02,2.04,0,3.06-0.01c0.17,0,0.18,0.07,0.16,0.2c-0.15,0.81-0.3,1.61-0.44,2.42c-0.03,0.18-0.14,0.16-0.27,0.16
	c-0.65,0-1.31,0-1.96,0c-0.66,0-1.33-0.01-1.99,0C8.37,15.31,8.34,15.25,8.41,15.06z M7.22,18.63C7.5,17.82,7.77,17,8.03,16.18
	c0.06-0.18,0.14-0.23,0.33-0.23c1.35,0.01,2.7,0.01,4.05,0c0.2,0,0.24,0.04,0.2,0.24c-0.16,0.83-0.31,1.65-0.45,2.48
	c-0.03,0.18-0.1,0.23-0.28,0.23c-0.75-0.01-1.51,0-2.26,0c-0.74,0-1.48-0.01-2.22,0C7.17,18.9,7.15,18.84,7.22,18.63z M5.6,28.85
	c-2.15-0.02-3.9-1.81-3.89-3.95c0.02-2.19,1.79-3.95,3.97-3.93c2.16,0.02,3.92,1.8,3.9,3.96C9.57,27.12,7.79,28.87,5.6,28.85z
	 M10.82,23.96c-0.05-0.01-0.11,0-0.22,0c-0.33,0.09-0.48-0.07-0.6-0.45c-0.5-1.53-1.54-2.52-3.08-2.99
	c-0.23-0.07-0.3-0.12-0.21-0.37c0.22-0.6,0.2-0.61,0.85-0.61c1.38,0,2.77,0.01,4.15-0.01c0.25,0,0.29,0.06,0.25,0.3
	c-0.24,1.25-0.47,2.5-0.67,3.76C11.23,23.9,11.12,24.01,10.82,23.96z M12.18,23.96c-0.23,0-0.31-0.03-0.27-0.29
	c0.25-1.31,0.48-2.61,0.71-3.92c0.03-0.17,0.08-0.22,0.25-0.22c1.52,0.01,3.04,0.01,4.55,0c0.2,0,0.23,0.07,0.23,0.25
	c-0.01,1.31-0.01,2.61,0,3.92c0,0.22-0.08,0.25-0.27,0.25c-0.87-0.01-1.75,0-2.63,0c0,0,0,0,0,0C13.9,23.96,13.04,23.95,12.18,23.96
	z M22.13,28.21c0.15,0,0.32-0.03,0.42,0.13c0.07,0.11,0.07,0.23,0.02,0.35c-0.07,0.17-0.21,0.17-0.36,0.17c-1.41,0-2.81,0-4.22,0
	c-1.41,0-2.81,0-4.22,0c-0.24,0-0.42-0.03-0.42-0.33c0-0.28,0.18-0.32,0.4-0.32c0.88,0,1.75,0,2.63,0
	C18.3,28.21,20.22,28.21,22.13,28.21z M16.56,26.16c0-0.15,0.06-0.18,0.19-0.18c0.41,0.01,0.82,0,1.23,0c0.4,0,0.8,0.01,1.19,0
	c0.17-0.01,0.23,0.04,0.23,0.22c-0.01,0.39-0.01,0.77,0,1.16c0,0.16-0.06,0.21-0.21,0.21c-0.81,0-1.62,0-2.42,0
	c-0.16,0-0.21-0.06-0.21-0.21C16.56,26.96,16.57,26.56,16.56,26.16z M21.88,24.92c-0.18,0.26-0.42,0.42-0.75,0.42
	c-2.1,0-4.21,0-6.31,0c-0.35,0-0.61-0.17-0.78-0.48c-0.11-0.19-0.07-0.26,0.17-0.26c1.26,0.01,2.52,0,3.79,0c0,0,0,0,0,0
	c1.24,0,2.48,0,3.72,0c0.08,0,0.19-0.05,0.24,0.04C22.01,24.74,21.93,24.84,21.88,24.92z M23.85,23.96c-0.89-0.01-1.77,0-2.66,0
	c0,0,0,0,0,0c-0.88,0-1.75-0.01-2.63,0c-0.2,0-0.27-0.04-0.27-0.25c0.01-1.31,0.01-2.61,0-3.92c0-0.22,0.08-0.25,0.27-0.25
	c1.5,0.01,2.99,0.01,4.49,0c0.21,0,0.26,0.09,0.29,0.26c0.23,1.31,0.46,2.61,0.71,3.92C24.09,23.91,24.05,23.96,23.85,23.96z
	 M29.71,23.95c-0.79,0.01-1.57,0-2.36,0c-0.79,0-1.57-0.01-2.36,0c-0.18,0-0.25-0.05-0.28-0.23c-0.23-1.33-0.47-2.66-0.72-3.99
	c-0.03-0.19,0.03-0.2,0.18-0.2c1.56,0,3.13,0,4.69,0c0.15,0,0.21,0.06,0.25,0.2c0.38,1.16,0.78,2.31,1.15,3.47
	C30.4,23.65,30.18,23.95,29.71,23.95z"/>
<path class="st0" d="M6.88,23.88c-0.27,0-0.53-0.02-0.8,0C5.85,23.9,5.81,23.8,5.8,23.6c-0.01-0.63-0.03-1.26-0.05-1.89
	c-0.01-0.18-0.07-0.33-0.27-0.37c-0.17-0.03-0.29,0.06-0.37,0.22c-0.61,1.31-1.22,2.61-1.82,3.92c-0.12,0.26,0.02,0.46,0.31,0.47
	c0.27,0.01,0.53,0.02,0.8,0c0.2-0.01,0.27,0.04,0.27,0.25c0,0.61,0.03,1.22,0.05,1.83c0,0.21,0.02,0.42,0.27,0.47
	c0.25,0.05,0.34-0.14,0.43-0.33c0.57-1.23,1.14-2.45,1.7-3.68c0.04-0.09,0.07-0.18,0.1-0.25C7.2,24,7.09,23.88,6.88,23.88z
	 M5.4,26.68c-0.03,0-0.06-0.01-0.08-0.01c0-0.3,0.01-0.6,0-0.91c-0.01-0.37-0.1-0.46-0.48-0.46c-0.22,0-0.44,0-0.66-0.01
	c-0.01,0-0.01-0.01-0.05-0.04c0.32-0.7,0.65-1.4,0.97-2.11c0.03,0,0.06,0.01,0.09,0.01c0,0.32,0,0.63,0,0.95
	c0,0.29,0.14,0.42,0.43,0.41c0.24-0.01,0.49,0,0.79,0C6.05,25.27,5.72,25.98,5.4,26.68z"/>
</svg>
