<?xml version="1.0" encoding="utf-8"?>
<!-- Generator: Adobe Illustrator 24.2.3, SVG Export Plug-In . SVG Version: 6.00 Build 0)  -->
<svg version="1.1" id="Layer_1" xmlns="http://www.w3.org/2000/svg" xmlns:xlink="http://www.w3.org/1999/xlink" x="0px" y="0px"
	 viewBox="0 0 16 16" style="enable-background:new 0 0 16 16;" xml:space="preserve">
<style type="text/css">
	.st0{fill:#7FB101;}
	.st1{fill:#80B101;}
	.st2{fill:#D4E3B3;}
</style>
<path d="M2.09,8.09C2.01,7.87,2.1,7.64,2.03,7.38c-0.17,0-0.33-0.01-0.5,0C1.37,7.38,1.3,7.31,1.31,7.15c0.01-0.17,0-0.34,0-0.52
	c0.72,0,1.42,0,2.13,0c0,0.7,0,1.4,0,2.12c-0.21,0-0.43,0-0.66,0c-0.05-0.2,0-0.42-0.04-0.65C2.53,8.05,2.3,8.07,2.08,8.08
	L2.09,8.09z"/>
<path class="st0" d="M15.34,7.73c-0.44-0.25-0.64-0.27-0.79-0.09c-0.12,0.14-0.12,0.55-0.01,0.68c0.17,0.2,0.37,0.19,0.76-0.03
	c0.12,0.38,0.09,0.47-0.25,0.53c-0.62,0.1-1.14-0.12-1.14-0.85c0-0.48,0.32-0.78,0.79-0.8c0.06,0,0.12,0,0.17,0
	C15.34,7.17,15.39,7.23,15.34,7.73z"/>
<path d="M6.71,7.63c-0.56,0.05-0.56,0.05-0.56,0.6c0,0.17,0,0.34,0,0.52c-0.19,0-0.36,0-0.55,0c0-0.47,0-0.94,0-1.41
	c0-0.11,0.05-0.18,0.17-0.17C5.93,7.18,6.13,7.1,6.18,7.36c0.15-0.11,0.3-0.19,0.5-0.19C6.74,7.32,6.69,7.48,6.71,7.63z"/>
<path class="st0" d="M13.82,8.74c-0.15,0.04-0.29,0.02-0.45,0.02c0-0.52,0-1.04,0-1.57c0.14,0,0.28,0,0.45,0
	C13.82,7.7,13.82,8.21,13.82,8.74z"/>
<path d="M2.08,8.08c0,0.22,0,0.43,0,0.67c-0.28,0.02-0.53,0.04-0.79,0L1.3,8.75c0-0.22,0-0.43,0-0.67c0.28-0.03,0.53-0.05,0.79,0
	L2.08,8.08z"/>
<path d="M1.29,8.74c0.08,0.22,0.01,0.45,0.04,0.69c-0.24,0.06-0.46,0.02-0.7,0.03c0-0.23,0-0.45,0-0.67c0.21-0.07,0.44,0,0.67-0.04
	L1.29,8.74z"/>
<path class="st1" d="M13.83,6.95c-0.19,0-0.35,0-0.52,0c0-0.11,0.06-0.22-0.03-0.31c0.17-0.16,0.35-0.05,0.5-0.1
	C13.87,6.67,13.83,6.8,13.83,6.95z"/>
<path class="st2" d="M12.52,8.69c0.02-0.04,0.06-0.07,0.1-0.05c0.05,0.02,0.01,0.05-0.02,0.06C12.57,8.69,12.54,8.69,12.52,8.69z"/>
<path class="st0" d="M13.15,7.19c-0.3-0.05-0.58,0.02-0.86-0.02c-0.39-0.05-0.54,0.09-0.7,0.53c-0.17-0.44-0.49-0.59-0.93-0.55
	c-0.43,0.04-0.69,0.28-0.7,0.72c0,0.15,0,0.29,0,0.47C9.65,8.34,9.37,8.37,9.06,8.32c0-0.6,0-1.18,0-1.77
	c-0.2,0.01-0.37-0.03-0.52,0.02c0,0.74,0,1.46,0,2.19c0.46,0,0.9,0,1.34,0c0.05,0,0.09-0.01,0.14-0.01c-0.01-0.11-0.06-0.2,0-0.32
	c0.22,0.27,0.47,0.43,0.83,0.4c0.38-0.02,0.62-0.19,0.75-0.54c0.25,0.48,0.44,0.57,0.93,0.4c0.03-0.01,0.06-0.05,0.08,0.01
	c0.01,0.21-0.09,0.29-0.29,0.28c-0.18-0.01-0.35,0.01-0.54-0.09c-0.01,0.17-0.02,0.29,0.01,0.42c0.28,0.12,0.56,0.1,0.84,0.04
	c0.32-0.07,0.5-0.31,0.52-0.6C13.17,8.23,13.15,7.71,13.15,7.19z M11.07,7.95c0,0.35-0.13,0.55-0.33,0.53
	c-0.17-0.02-0.32-0.31-0.29-0.56c0.04-0.31,0.22-0.48,0.43-0.38C11.07,7.62,11.08,7.79,11.07,7.95z M12.65,7.97
	c-0.02,0.12,0.06,0.3-0.14,0.37c-0.24,0.09-0.4-0.03-0.41-0.29c0-0.08-0.01-0.16,0-0.24c0.02-0.18,0.14-0.29,0.32-0.29
	c0.21,0,0.24,0.14,0.23,0.3C12.65,7.86,12.65,7.91,12.65,7.97z"/>
<path d="M4.86,6.7C4.49,6.66,4.11,6.69,3.74,6.69c0,0.7,0,1.37,0,2.06c0.19,0,0.36,0,0.56,0c0-0.23,0-0.44,0-0.68
	c0.18,0,0.33,0.01,0.47,0c0.32-0.03,0.61-0.36,0.63-0.7C5.41,7.04,5.2,6.73,4.86,6.7z M4.3,7.7c0-0.21,0-0.39,0-0.57
	c0.36-0.05,0.52,0.01,0.54,0.22C4.86,7.56,4.68,7.69,4.3,7.7z"/>
<path d="M7.59,7.15C7.04,7.17,6.78,7.41,6.78,7.96c-0.06,0.53,0.35,0.89,0.8,0.88C8.1,8.82,8.46,8.51,8.43,8
	C8.4,7.52,8.19,7.13,7.59,7.15z M7.58,8.48c-0.17,0-0.31-0.25-0.31-0.51c0-0.08,0.05-0.15,0.05-0.23C7.35,7.57,7.43,7.51,7.6,7.51
	c0.19,0.01,0.26,0.12,0.29,0.28c0.01,0.07,0,0.14,0,0.21C7.88,8.3,7.77,8.48,7.58,8.48z"/>
</svg>
