<?xml version="1.0" encoding="utf-8"?>
<!-- Generator: Adobe Illustrator 24.2.3, SVG Export Plug-In . SVG Version: 6.00 Build 0)  -->
<svg version="1.1" id="Layer_1" xmlns="http://www.w3.org/2000/svg" xmlns:xlink="http://www.w3.org/1999/xlink" x="0px" y="0px"
	 viewBox="0 0 16 16" style="enable-background:new 0 0 16 16;" xml:space="preserve">
<style type="text/css">
	.st0{fill:#CACACA;}
</style>
<path class="st0" d="M14.14,6.4c-0.21-0.03-0.42-0.06-0.62-0.08c-0.13-0.01-0.23-0.04-0.3-0.18c-0.19-0.4-0.31-0.77,0.1-1.14
	c0.23-0.21,0.46-0.46,0.48-0.7c0.01-0.34-0.11-0.51-0.26-0.66c-0.39-0.39-0.77-0.77-1.16-1.16C12,2.12,11.74,2.11,11.31,2.43
	c-0.15,0.11-0.31,0.2-0.43,0.34c-0.24,0.27-0.48,0.26-0.8,0.12C9.81,2.76,9.66,2.63,9.67,2.31c0.01-0.23-0.04-0.47-0.08-0.71
	C9.52,1.25,9.32,1.03,8.93,1.02c-0.38,0-0.76,0.01-1.13,0c-1.43-0.05-1.33,0.1-1.47,1.35C6.3,2.63,6.2,2.74,5.97,2.86
	C5.61,3.03,5.34,3.04,5.06,2.73C4.94,2.59,4.78,2.5,4.64,2.39C4.26,2.12,4,2.13,3.67,2.45c-0.37,0.36-0.74,0.73-1.1,1.1
	c-0.48,0.48-0.49,0.7-0.09,1.22c0.09,0.12,0.18,0.25,0.29,0.36C3,5.36,3.02,5.57,2.89,5.89C2.76,6.21,2.59,6.35,2.25,6.34
	C2.03,6.33,1.81,6.37,1.59,6.42C1.24,6.49,1.02,6.69,1.02,7.08c0,0.62,0,1.23,0,1.85c0,0.39,0.22,0.59,0.57,0.66
	c0.23,0.05,0.47,0.09,0.71,0.08c0.31-0.01,0.45,0.12,0.58,0.4c0.16,0.34,0.13,0.58-0.13,0.84c-0.14,0.13-0.25,0.3-0.36,0.46
	c-0.27,0.37-0.25,0.63,0.07,0.97c0.23,0.24,0.47,0.48,0.71,0.71c0.97,0.97,0.97,0.97,2.03,0.12c0.21-0.17,0.36-0.18,0.62-0.09
	c0.38,0.13,0.55,0.31,0.52,0.71c-0.01,0.19,0.04,0.39,0.07,0.58c0.07,0.37,0.27,0.6,0.68,0.6c0.62,0,1.23,0,1.85,0
	c0.39,0,0.59-0.23,0.65-0.58c0.05-0.25,0.09-0.5,0.08-0.75c-0.01-0.29,0.13-0.4,0.37-0.51c0.34-0.16,0.6-0.16,0.87,0.12
	c0.14,0.15,0.33,0.26,0.5,0.39c0.3,0.23,0.61,0.2,0.87-0.05c0.44-0.43,0.88-0.86,1.31-1.31c0.27-0.28,0.28-0.59,0.04-0.9
	c-0.18-0.23-0.36-0.46-0.54-0.7c-0.06-0.08-0.17-0.14-0.1-0.29c0.19-0.36,0.24-0.86,0.86-0.75c0.16,0.03,0.33-0.04,0.5-0.06
	c0.41-0.05,0.62-0.28,0.63-0.69c0.01-0.52,0-1.04,0-1.55C14.98,6.61,14.87,6.48,14.14,6.4z M13.2,8.89
	c-0.47,0.03-0.67,0.2-0.74,0.63c-0.03,0.15-0.08,0.31-0.17,0.42c-0.42,0.51-0.21,0.89,0.17,1.31c0.47,0.52,0.45,0.55-0.06,1.05
	c-0.6,0.6-0.61,0.62-1.27,0.07c-0.36-0.3-0.68-0.49-1.1-0.12c-0.07,0.06-0.17,0.11-0.27,0.11c-0.83,0.07-0.94,0.66-0.93,1.31
	c0.01,0.38-0.13,0.49-0.51,0.48c-1.16-0.03-1.17-0.01-1.24-1.16c-0.02-0.29-0.13-0.41-0.4-0.48c-0.28-0.07-0.58-0.16-0.81-0.33
	c-0.37-0.27-0.63-0.17-0.93,0.11c-0.23,0.21-0.52,0.54-0.76,0.53c-0.25-0.02-0.45-0.42-0.7-0.62c-0.35-0.27-0.42-0.52-0.06-0.85
	c0.49-0.45,0.55-0.86,0.27-1.56C3.39,9.05,3,8.81,2.29,8.84c-0.36,0.01-0.52-0.13-0.44-0.5c0.01-0.03,0-0.06,0-0.08
	c0-1.09,0-1.1,1.1-1.17c0.32-0.02,0.47-0.11,0.54-0.43c0.06-0.33,0.19-0.65,0.39-0.92C4.04,5.49,3.99,5.32,3.8,5.1
	C3.56,4.82,3.16,4.49,3.18,4.21C3.2,3.92,3.64,3.66,3.9,3.39C4,3.29,4.1,3.2,4.21,3.11C4.4,3.26,4.6,3.38,4.75,3.54
	c0.4,0.41,0.8,0.6,1.3,0.17c0.04-0.03,0.1-0.07,0.15-0.07C7.07,3.59,7.15,2.96,7.16,2.3c0-0.35,0.12-0.53,0.49-0.46
	c0.03,0.01,0.06,0,0.08,0c1.1,0,1.12,0,1.18,1.09c0.02,0.35,0.14,0.48,0.46,0.55c0.35,0.08,0.69,0.23,0.99,0.43
	c0.17,0.11,0.3,0.1,0.43-0.03c0.02-0.02,0.04-0.04,0.06-0.05c0.31-0.23,0.65-0.69,0.93-0.65c0.4,0.05,0.64,0.57,0.98,0.86
	c0.14,0.12,0.11,0.21,0.01,0.34c-0.26,0.31-0.61,0.6-0.72,0.97c-0.11,0.37,0.36,0.68,0.39,1.08c0.06,0.76,0.64,0.66,1.12,0.72
	c0.59,0.08,0.59,0.07,0.59,0.65C14.15,8.78,14.16,8.82,13.2,8.89z"/>
<path class="st0" d="M8.06,5.38C6.57,5.36,5.4,6.49,5.38,7.96c-0.02,1.49,1.11,2.65,2.58,2.67c1.49,0.01,2.65-1.12,2.66-2.59
	C10.63,6.57,9.51,5.41,8.06,5.38z M8,9.8C7,9.81,6.19,9,6.2,8c0.01-0.99,0.79-1.78,1.77-1.79c1-0.02,1.81,0.78,1.82,1.78
	C9.81,8.99,9.01,9.8,8,9.8z"/>
</svg>
